<?xml version="1.0" encoding="utf-8" standalone="no"?>
<!DOCTYPE svg PUBLIC "-//W3C//DTD SVG 1.1//EN"
  "http://www.w3.org/Graphics/SVG/1.1/DTD/svg11.dtd">
<svg xmlns:xlink="http://www.w3.org/1999/xlink" width="822.384375pt" height="285.454125pt" viewBox="0 0 822.384375 285.454125" xmlns="http://www.w3.org/2000/svg" version="1.1">
 <metadata>
  <rdf:RDF xmlns:dc="http://purl.org/dc/elements/1.1/" xmlns:cc="http://creativecommons.org/ns#" xmlns:rdf="http://www.w3.org/1999/02/22-rdf-syntax-ns#">
   <cc:Work>
    <dc:type rdf:resource="http://purl.org/dc/dcmitype/StillImage"/>
    <dc:date>2026-07-14T08:44:31.926574</dc:date>
    <dc:format>image/svg+xml</dc:format>
    <dc:creator>
     <cc:Agent>
      <dc:title>Matplotlib v3.7.4, https://matplotlib.org/</dc:title>
     </cc:Agent>
    </dc:creator>
   </cc:Work>
  </rdf:RDF>
 </metadata>
 <defs>
  <style type="text/css">*{stroke-linejoin: round; stroke-linecap: butt}</style>
 </defs>
 <g id="figure_1">
  <g id="patch_1">
   <path d="M 0 285.454125 
L 822.384375 285.454125 
L 822.384375 0 
L 0 0 
z
" style="fill: #fcfcfb"/>
  </g>
  <g id="axes_1">
   <g id="table_1">
    <g id="patch_2">
     <path d="M 151.164375 109.786125 
L 283.968375 109.786125 
L 283.968375 91.186125 
L 151.164375 91.186125 
z
" style="fill: #fcfcfb; stroke: #e1e0d9; stroke-linejoin: miter"/>
    </g>
    <g id="text_1">
     <!-- smoke -->
     <g style="fill: #0b0b0b" transform="translate(199.360125 103.2455) scale(0.1 -0.1)">
      <defs>
       <path id="DejaVuSans-Bold-73" d="M 3272 3391 
L 3272 2541 
Q 2913 2691 2578 2766 
Q 2244 2841 1947 2841 
Q 1628 2841 1473 2761 
Q 1319 2681 1319 2516 
Q 1319 2381 1436 2309 
Q 1553 2238 1856 2203 
L 2053 2175 
Q 2913 2066 3209 1816 
Q 3506 1566 3506 1031 
Q 3506 472 3093 190 
Q 2681 -91 1863 -91 
Q 1516 -91 1145 -36 
Q 775 19 384 128 
L 384 978 
Q 719 816 1070 734 
Q 1422 653 1784 653 
Q 2113 653 2278 743 
Q 2444 834 2444 1013 
Q 2444 1163 2330 1236 
Q 2216 1309 1875 1350 
L 1678 1375 
Q 931 1469 631 1722 
Q 331 1975 331 2491 
Q 331 3047 712 3315 
Q 1094 3584 1881 3584 
Q 2191 3584 2531 3537 
Q 2872 3491 3272 3391 
z
" transform="scale(0.015625)"/>
       <path id="DejaVuSans-Bold-6d" d="M 3781 2919 
Q 3994 3244 4286 3414 
Q 4578 3584 4928 3584 
Q 5531 3584 5847 3212 
Q 6163 2841 6163 2131 
L 6163 0 
L 5038 0 
L 5038 1825 
Q 5041 1866 5042 1909 
Q 5044 1953 5044 2034 
Q 5044 2406 4934 2573 
Q 4825 2741 4581 2741 
Q 4263 2741 4089 2478 
Q 3916 2216 3909 1719 
L 3909 0 
L 2784 0 
L 2784 1825 
Q 2784 2406 2684 2573 
Q 2584 2741 2328 2741 
Q 2006 2741 1831 2477 
Q 1656 2213 1656 1722 
L 1656 0 
L 531 0 
L 531 3500 
L 1656 3500 
L 1656 2988 
Q 1863 3284 2130 3434 
Q 2397 3584 2719 3584 
Q 3081 3584 3359 3409 
Q 3638 3234 3781 2919 
z
" transform="scale(0.015625)"/>
       <path id="DejaVuSans-Bold-6f" d="M 2203 2784 
Q 1831 2784 1636 2517 
Q 1441 2250 1441 1747 
Q 1441 1244 1636 976 
Q 1831 709 2203 709 
Q 2569 709 2762 976 
Q 2956 1244 2956 1747 
Q 2956 2250 2762 2517 
Q 2569 2784 2203 2784 
z
M 2203 3584 
Q 3106 3584 3614 3096 
Q 4122 2609 4122 1747 
Q 4122 884 3614 396 
Q 3106 -91 2203 -91 
Q 1297 -91 786 396 
Q 275 884 275 1747 
Q 275 2609 786 3096 
Q 1297 3584 2203 3584 
z
" transform="scale(0.015625)"/>
       <path id="DejaVuSans-Bold-6b" d="M 538 4863 
L 1656 4863 
L 1656 2216 
L 2944 3500 
L 4244 3500 
L 2534 1894 
L 4378 0 
L 3022 0 
L 1656 1459 
L 1656 0 
L 538 0 
L 538 4863 
z
" transform="scale(0.015625)"/>
       <path id="DejaVuSans-Bold-65" d="M 4031 1759 
L 4031 1441 
L 1416 1441 
Q 1456 1047 1700 850 
Q 1944 653 2381 653 
Q 2734 653 3104 758 
Q 3475 863 3866 1075 
L 3866 213 
Q 3469 63 3072 -14 
Q 2675 -91 2278 -91 
Q 1328 -91 801 392 
Q 275 875 275 1747 
Q 275 2603 792 3093 
Q 1309 3584 2216 3584 
Q 3041 3584 3536 3087 
Q 4031 2591 4031 1759 
z
M 2881 2131 
Q 2881 2450 2695 2645 
Q 2509 2841 2209 2841 
Q 1884 2841 1681 2658 
Q 1478 2475 1428 2131 
L 2881 2131 
z
" transform="scale(0.015625)"/>
      </defs>
      <use xlink:href="#DejaVuSans-Bold-73"/>
      <use xlink:href="#DejaVuSans-Bold-6d" x="59.521484"/>
      <use xlink:href="#DejaVuSans-Bold-6f" x="163.720703"/>
      <use xlink:href="#DejaVuSans-Bold-6b" x="232.421875"/>
      <use xlink:href="#DejaVuSans-Bold-65" x="296.300781"/>
     </g>
    </g>
    <g id="patch_3">
     <path d="M 283.968375 109.786125 
L 416.772375 109.786125 
L 416.772375 91.186125 
L 283.968375 91.186125 
z
" style="fill: #fcfcfb; stroke: #e1e0d9; stroke-linejoin: miter"/>
    </g>
    <g id="text_2">
     <!-- small -->
     <g style="fill: #0b0b0b" transform="translate(335.382094 103.2455) scale(0.1 -0.1)">
      <defs>
       <path id="DejaVuSans-Bold-61" d="M 2106 1575 
Q 1756 1575 1579 1456 
Q 1403 1338 1403 1106 
Q 1403 894 1545 773 
Q 1688 653 1941 653 
Q 2256 653 2472 879 
Q 2688 1106 2688 1447 
L 2688 1575 
L 2106 1575 
z
M 3816 1997 
L 3816 0 
L 2688 0 
L 2688 519 
Q 2463 200 2181 54 
Q 1900 -91 1497 -91 
Q 953 -91 614 226 
Q 275 544 275 1050 
Q 275 1666 698 1953 
Q 1122 2241 2028 2241 
L 2688 2241 
L 2688 2328 
Q 2688 2594 2478 2717 
Q 2269 2841 1825 2841 
Q 1466 2841 1156 2769 
Q 847 2697 581 2553 
L 581 3406 
Q 941 3494 1303 3539 
Q 1666 3584 2028 3584 
Q 2975 3584 3395 3211 
Q 3816 2838 3816 1997 
z
" transform="scale(0.015625)"/>
       <path id="DejaVuSans-Bold-6c" d="M 538 4863 
L 1656 4863 
L 1656 0 
L 538 0 
L 538 4863 
z
" transform="scale(0.015625)"/>
      </defs>
      <use xlink:href="#DejaVuSans-Bold-73"/>
      <use xlink:href="#DejaVuSans-Bold-6d" x="59.521484"/>
      <use xlink:href="#DejaVuSans-Bold-61" x="163.720703"/>
      <use xlink:href="#DejaVuSans-Bold-6c" x="231.201172"/>
      <use xlink:href="#DejaVuSans-Bold-6c" x="265.478516"/>
     </g>
    </g>
    <g id="patch_4">
     <path d="M 416.772375 109.786125 
L 549.576375 109.786125 
L 549.576375 91.186125 
L 416.772375 91.186125 
z
" style="fill: #fcfcfb; stroke: #e1e0d9; stroke-linejoin: miter"/>
    </g>
    <g id="text_3">
     <!-- full  (headline) -->
     <g style="fill: #0b0b0b" transform="translate(441.6775 103.2455) scale(0.1 -0.1)">
      <defs>
       <path id="DejaVuSans-Bold-66" d="M 2841 4863 
L 2841 4128 
L 2222 4128 
Q 1984 4128 1890 4042 
Q 1797 3956 1797 3744 
L 1797 3500 
L 2753 3500 
L 2753 2700 
L 1797 2700 
L 1797 0 
L 678 0 
L 678 2700 
L 122 2700 
L 122 3500 
L 678 3500 
L 678 3744 
Q 678 4316 997 4589 
Q 1316 4863 1984 4863 
L 2841 4863 
z
" transform="scale(0.015625)"/>
       <path id="DejaVuSans-Bold-75" d="M 500 1363 
L 500 3500 
L 1625 3500 
L 1625 3150 
Q 1625 2866 1622 2436 
Q 1619 2006 1619 1863 
Q 1619 1441 1641 1255 
Q 1663 1069 1716 984 
Q 1784 875 1895 815 
Q 2006 756 2150 756 
Q 2500 756 2700 1025 
Q 2900 1294 2900 1772 
L 2900 3500 
L 4019 3500 
L 4019 0 
L 2900 0 
L 2900 506 
Q 2647 200 2364 54 
Q 2081 -91 1741 -91 
Q 1134 -91 817 281 
Q 500 653 500 1363 
z
" transform="scale(0.015625)"/>
       <path id="DejaVuSans-Bold-20" transform="scale(0.015625)"/>
       <path id="DejaVuSans-Bold-28" d="M 2413 -844 
L 1484 -844 
Q 1006 -72 778 623 
Q 550 1319 550 2003 
Q 550 2688 779 3389 
Q 1009 4091 1484 4856 
L 2413 4856 
Q 2013 4116 1813 3408 
Q 1613 2700 1613 2009 
Q 1613 1319 1811 609 
Q 2009 -100 2413 -844 
z
" transform="scale(0.015625)"/>
       <path id="DejaVuSans-Bold-68" d="M 4056 2131 
L 4056 0 
L 2931 0 
L 2931 347 
L 2931 1625 
Q 2931 2084 2911 2256 
Q 2891 2428 2841 2509 
Q 2775 2619 2662 2680 
Q 2550 2741 2406 2741 
Q 2056 2741 1856 2470 
Q 1656 2200 1656 1722 
L 1656 0 
L 538 0 
L 538 4863 
L 1656 4863 
L 1656 2988 
Q 1909 3294 2193 3439 
Q 2478 3584 2822 3584 
Q 3428 3584 3742 3212 
Q 4056 2841 4056 2131 
z
" transform="scale(0.015625)"/>
       <path id="DejaVuSans-Bold-64" d="M 2919 2988 
L 2919 4863 
L 4044 4863 
L 4044 0 
L 2919 0 
L 2919 506 
Q 2688 197 2409 53 
Q 2131 -91 1766 -91 
Q 1119 -91 703 423 
Q 288 938 288 1747 
Q 288 2556 703 3070 
Q 1119 3584 1766 3584 
Q 2128 3584 2408 3439 
Q 2688 3294 2919 2988 
z
M 2181 722 
Q 2541 722 2730 984 
Q 2919 1247 2919 1747 
Q 2919 2247 2730 2509 
Q 2541 2772 2181 2772 
Q 1825 2772 1636 2509 
Q 1447 2247 1447 1747 
Q 1447 1247 1636 984 
Q 1825 722 2181 722 
z
" transform="scale(0.015625)"/>
       <path id="DejaVuSans-Bold-69" d="M 538 3500 
L 1656 3500 
L 1656 0 
L 538 0 
L 538 3500 
z
M 538 4863 
L 1656 4863 
L 1656 3950 
L 538 3950 
L 538 4863 
z
" transform="scale(0.015625)"/>
       <path id="DejaVuSans-Bold-6e" d="M 4056 2131 
L 4056 0 
L 2931 0 
L 2931 347 
L 2931 1631 
Q 2931 2084 2911 2256 
Q 2891 2428 2841 2509 
Q 2775 2619 2662 2680 
Q 2550 2741 2406 2741 
Q 2056 2741 1856 2470 
Q 1656 2200 1656 1722 
L 1656 0 
L 538 0 
L 538 3500 
L 1656 3500 
L 1656 2988 
Q 1909 3294 2193 3439 
Q 2478 3584 2822 3584 
Q 3428 3584 3742 3212 
Q 4056 2841 4056 2131 
z
" transform="scale(0.015625)"/>
       <path id="DejaVuSans-Bold-29" d="M 513 -844 
Q 913 -100 1113 609 
Q 1313 1319 1313 2009 
Q 1313 2700 1113 3408 
Q 913 4116 513 4856 
L 1441 4856 
Q 1916 4091 2145 3389 
Q 2375 2688 2375 2003 
Q 2375 1319 2147 623 
Q 1919 -72 1441 -844 
L 513 -844 
z
" transform="scale(0.015625)"/>
      </defs>
      <use xlink:href="#DejaVuSans-Bold-66"/>
      <use xlink:href="#DejaVuSans-Bold-75" x="43.505859"/>
      <use xlink:href="#DejaVuSans-Bold-6c" x="114.697266"/>
      <use xlink:href="#DejaVuSans-Bold-6c" x="148.974609"/>
      <use xlink:href="#DejaVuSans-Bold-20" x="183.251953"/>
      <use xlink:href="#DejaVuSans-Bold-20" x="218.066406"/>
      <use xlink:href="#DejaVuSans-Bold-28" x="252.880859"/>
      <use xlink:href="#DejaVuSans-Bold-68" x="298.583984"/>
      <use xlink:href="#DejaVuSans-Bold-65" x="369.775391"/>
      <use xlink:href="#DejaVuSans-Bold-61" x="437.597656"/>
      <use xlink:href="#DejaVuSans-Bold-64" x="505.078125"/>
      <use xlink:href="#DejaVuSans-Bold-6c" x="576.660156"/>
      <use xlink:href="#DejaVuSans-Bold-69" x="610.9375"/>
      <use xlink:href="#DejaVuSans-Bold-6e" x="645.214844"/>
      <use xlink:href="#DejaVuSans-Bold-65" x="716.40625"/>
      <use xlink:href="#DejaVuSans-Bold-29" x="784.228516"/>
     </g>
    </g>
    <g id="patch_5">
     <path d="M 549.576375 109.786125 
L 682.380375 109.786125 
L 682.380375 91.186125 
L 549.576375 91.186125 
z
" style="fill: #fcfcfb; stroke: #e1e0d9; stroke-linejoin: miter"/>
    </g>
    <g id="text_4">
     <!-- xl -->
     <g style="fill: #0b0b0b" transform="translate(611.039313 103.2455) scale(0.1 -0.1)">
      <defs>
       <path id="DejaVuSans-Bold-78" d="M 1422 1791 
L 159 3500 
L 1344 3500 
L 2059 2463 
L 2784 3500 
L 3969 3500 
L 2706 1797 
L 4031 0 
L 2847 0 
L 2059 1106 
L 1281 0 
L 97 0 
L 1422 1791 
z
" transform="scale(0.015625)"/>
      </defs>
      <use xlink:href="#DejaVuSans-Bold-78"/>
      <use xlink:href="#DejaVuSans-Bold-6c" x="64.501953"/>
     </g>
    </g>
    <g id="patch_6">
     <path d="M 682.380375 109.786125 
L 815.184375 109.786125 
L 815.184375 91.186125 
L 682.380375 91.186125 
z
" style="fill: #fcfcfb; stroke: #e1e0d9; stroke-linejoin: miter"/>
    </g>
    <g id="text_5">
     <!-- xxl -->
     <g style="fill: #0b0b0b" transform="translate(740.618313 103.2455) scale(0.1 -0.1)">
      <use xlink:href="#DejaVuSans-Bold-78"/>
      <use xlink:href="#DejaVuSans-Bold-78" x="64.501953"/>
      <use xlink:href="#DejaVuSans-Bold-6c" x="129.003906"/>
     </g>
    </g>
    <g id="patch_7">
     <path d="M 7.2 128.386125 
L 151.164375 128.386125 
L 151.164375 109.786125 
L 7.2 109.786125 
z
" style="fill: #ffffff; stroke: #e1e0d9; stroke-linejoin: miter"/>
    </g>
    <g id="text_6">
     <!-- cards sampled -->
     <g style="fill: #52514e" transform="translate(63.76325 121.8455) scale(0.1 -0.1)">
      <defs>
       <path id="DejaVuSans-63" d="M 3122 3366 
L 3122 2828 
Q 2878 2963 2633 3030 
Q 2388 3097 2138 3097 
Q 1578 3097 1268 2742 
Q 959 2388 959 1747 
Q 959 1106 1268 751 
Q 1578 397 2138 397 
Q 2388 397 2633 464 
Q 2878 531 3122 666 
L 3122 134 
Q 2881 22 2623 -34 
Q 2366 -91 2075 -91 
Q 1284 -91 818 406 
Q 353 903 353 1747 
Q 353 2603 823 3093 
Q 1294 3584 2113 3584 
Q 2378 3584 2631 3529 
Q 2884 3475 3122 3366 
z
" transform="scale(0.015625)"/>
       <path id="DejaVuSans-61" d="M 2194 1759 
Q 1497 1759 1228 1600 
Q 959 1441 959 1056 
Q 959 750 1161 570 
Q 1363 391 1709 391 
Q 2188 391 2477 730 
Q 2766 1069 2766 1631 
L 2766 1759 
L 2194 1759 
z
M 3341 1997 
L 3341 0 
L 2766 0 
L 2766 531 
Q 2569 213 2275 61 
Q 1981 -91 1556 -91 
Q 1019 -91 701 211 
Q 384 513 384 1019 
Q 384 1609 779 1909 
Q 1175 2209 1959 2209 
L 2766 2209 
L 2766 2266 
Q 2766 2663 2505 2880 
Q 2244 3097 1772 3097 
Q 1472 3097 1187 3025 
Q 903 2953 641 2809 
L 641 3341 
Q 956 3463 1253 3523 
Q 1550 3584 1831 3584 
Q 2591 3584 2966 3190 
Q 3341 2797 3341 1997 
z
" transform="scale(0.015625)"/>
       <path id="DejaVuSans-72" d="M 2631 2963 
Q 2534 3019 2420 3045 
Q 2306 3072 2169 3072 
Q 1681 3072 1420 2755 
Q 1159 2438 1159 1844 
L 1159 0 
L 581 0 
L 581 3500 
L 1159 3500 
L 1159 2956 
Q 1341 3275 1631 3429 
Q 1922 3584 2338 3584 
Q 2397 3584 2469 3576 
Q 2541 3569 2628 3553 
L 2631 2963 
z
" transform="scale(0.015625)"/>
       <path id="DejaVuSans-64" d="M 2906 2969 
L 2906 4863 
L 3481 4863 
L 3481 0 
L 2906 0 
L 2906 525 
Q 2725 213 2448 61 
Q 2172 -91 1784 -91 
Q 1150 -91 751 415 
Q 353 922 353 1747 
Q 353 2572 751 3078 
Q 1150 3584 1784 3584 
Q 2172 3584 2448 3432 
Q 2725 3281 2906 2969 
z
M 947 1747 
Q 947 1113 1208 752 
Q 1469 391 1925 391 
Q 2381 391 2643 752 
Q 2906 1113 2906 1747 
Q 2906 2381 2643 2742 
Q 2381 3103 1925 3103 
Q 1469 3103 1208 2742 
Q 947 2381 947 1747 
z
" transform="scale(0.015625)"/>
       <path id="DejaVuSans-73" d="M 2834 3397 
L 2834 2853 
Q 2591 2978 2328 3040 
Q 2066 3103 1784 3103 
Q 1356 3103 1142 2972 
Q 928 2841 928 2578 
Q 928 2378 1081 2264 
Q 1234 2150 1697 2047 
L 1894 2003 
Q 2506 1872 2764 1633 
Q 3022 1394 3022 966 
Q 3022 478 2636 193 
Q 2250 -91 1575 -91 
Q 1294 -91 989 -36 
Q 684 19 347 128 
L 347 722 
Q 666 556 975 473 
Q 1284 391 1588 391 
Q 1994 391 2212 530 
Q 2431 669 2431 922 
Q 2431 1156 2273 1281 
Q 2116 1406 1581 1522 
L 1381 1569 
Q 847 1681 609 1914 
Q 372 2147 372 2553 
Q 372 3047 722 3315 
Q 1072 3584 1716 3584 
Q 2034 3584 2315 3537 
Q 2597 3491 2834 3397 
z
" transform="scale(0.015625)"/>
       <path id="DejaVuSans-20" transform="scale(0.015625)"/>
       <path id="DejaVuSans-6d" d="M 3328 2828 
Q 3544 3216 3844 3400 
Q 4144 3584 4550 3584 
Q 5097 3584 5394 3201 
Q 5691 2819 5691 2113 
L 5691 0 
L 5113 0 
L 5113 2094 
Q 5113 2597 4934 2840 
Q 4756 3084 4391 3084 
Q 3944 3084 3684 2787 
Q 3425 2491 3425 1978 
L 3425 0 
L 2847 0 
L 2847 2094 
Q 2847 2600 2669 2842 
Q 2491 3084 2119 3084 
Q 1678 3084 1418 2786 
Q 1159 2488 1159 1978 
L 1159 0 
L 581 0 
L 581 3500 
L 1159 3500 
L 1159 2956 
Q 1356 3278 1631 3431 
Q 1906 3584 2284 3584 
Q 2666 3584 2933 3390 
Q 3200 3197 3328 2828 
z
" transform="scale(0.015625)"/>
       <path id="DejaVuSans-70" d="M 1159 525 
L 1159 -1331 
L 581 -1331 
L 581 3500 
L 1159 3500 
L 1159 2969 
Q 1341 3281 1617 3432 
Q 1894 3584 2278 3584 
Q 2916 3584 3314 3078 
Q 3713 2572 3713 1747 
Q 3713 922 3314 415 
Q 2916 -91 2278 -91 
Q 1894 -91 1617 61 
Q 1341 213 1159 525 
z
M 3116 1747 
Q 3116 2381 2855 2742 
Q 2594 3103 2138 3103 
Q 1681 3103 1420 2742 
Q 1159 2381 1159 1747 
Q 1159 1113 1420 752 
Q 1681 391 2138 391 
Q 2594 391 2855 752 
Q 3116 1113 3116 1747 
z
" transform="scale(0.015625)"/>
       <path id="DejaVuSans-6c" d="M 603 4863 
L 1178 4863 
L 1178 0 
L 603 0 
L 603 4863 
z
" transform="scale(0.015625)"/>
       <path id="DejaVuSans-65" d="M 3597 1894 
L 3597 1613 
L 953 1613 
Q 991 1019 1311 708 
Q 1631 397 2203 397 
Q 2534 397 2845 478 
Q 3156 559 3463 722 
L 3463 178 
Q 3153 47 2828 -22 
Q 2503 -91 2169 -91 
Q 1331 -91 842 396 
Q 353 884 353 1716 
Q 353 2575 817 3079 
Q 1281 3584 2069 3584 
Q 2775 3584 3186 3129 
Q 3597 2675 3597 1894 
z
M 3022 2063 
Q 3016 2534 2758 2815 
Q 2500 3097 2075 3097 
Q 1594 3097 1305 2825 
Q 1016 2553 972 2059 
L 3022 2063 
z
" transform="scale(0.015625)"/>
      </defs>
      <use xlink:href="#DejaVuSans-63"/>
      <use xlink:href="#DejaVuSans-61" x="54.980469"/>
      <use xlink:href="#DejaVuSans-72" x="116.259766"/>
      <use xlink:href="#DejaVuSans-64" x="155.623047"/>
      <use xlink:href="#DejaVuSans-73" x="219.099609"/>
      <use xlink:href="#DejaVuSans-20" x="271.199219"/>
      <use xlink:href="#DejaVuSans-73" x="302.986328"/>
      <use xlink:href="#DejaVuSans-61" x="355.085938"/>
      <use xlink:href="#DejaVuSans-6d" x="416.365234"/>
      <use xlink:href="#DejaVuSans-70" x="513.777344"/>
      <use xlink:href="#DejaVuSans-6c" x="577.253906"/>
      <use xlink:href="#DejaVuSans-65" x="605.037109"/>
      <use xlink:href="#DejaVuSans-64" x="666.560547"/>
     </g>
    </g>
    <g id="patch_8">
     <path d="M 151.164375 128.386125 
L 283.968375 128.386125 
L 283.968375 109.786125 
L 151.164375 109.786125 
z
" style="fill: #ffffff; stroke: #e1e0d9; stroke-linejoin: miter"/>
    </g>
    <g id="text_7">
     <!-- 2,000 -->
     <g style="fill: #0b0b0b" transform="translate(203.252312 121.8455) scale(0.1 -0.1)">
      <defs>
       <path id="DejaVuSans-32" d="M 1228 531 
L 3431 531 
L 3431 0 
L 469 0 
L 469 531 
Q 828 903 1448 1529 
Q 2069 2156 2228 2338 
Q 2531 2678 2651 2914 
Q 2772 3150 2772 3378 
Q 2772 3750 2511 3984 
Q 2250 4219 1831 4219 
Q 1534 4219 1204 4116 
Q 875 4013 500 3803 
L 500 4441 
Q 881 4594 1212 4672 
Q 1544 4750 1819 4750 
Q 2544 4750 2975 4387 
Q 3406 4025 3406 3419 
Q 3406 3131 3298 2873 
Q 3191 2616 2906 2266 
Q 2828 2175 2409 1742 
Q 1991 1309 1228 531 
z
" transform="scale(0.015625)"/>
       <path id="DejaVuSans-2c" d="M 750 794 
L 1409 794 
L 1409 256 
L 897 -744 
L 494 -744 
L 750 256 
L 750 794 
z
" transform="scale(0.015625)"/>
       <path id="DejaVuSans-30" d="M 2034 4250 
Q 1547 4250 1301 3770 
Q 1056 3291 1056 2328 
Q 1056 1369 1301 889 
Q 1547 409 2034 409 
Q 2525 409 2770 889 
Q 3016 1369 3016 2328 
Q 3016 3291 2770 3770 
Q 2525 4250 2034 4250 
z
M 2034 4750 
Q 2819 4750 3233 4129 
Q 3647 3509 3647 2328 
Q 3647 1150 3233 529 
Q 2819 -91 2034 -91 
Q 1250 -91 836 529 
Q 422 1150 422 2328 
Q 422 3509 836 4129 
Q 1250 4750 2034 4750 
z
" transform="scale(0.015625)"/>
      </defs>
      <use xlink:href="#DejaVuSans-32"/>
      <use xlink:href="#DejaVuSans-2c" x="63.623047"/>
      <use xlink:href="#DejaVuSans-30" x="95.410156"/>
      <use xlink:href="#DejaVuSans-30" x="159.033203"/>
      <use xlink:href="#DejaVuSans-30" x="222.65625"/>
     </g>
    </g>
    <g id="patch_9">
     <path d="M 283.968375 128.386125 
L 416.772375 128.386125 
L 416.772375 109.786125 
L 283.968375 109.786125 
z
" style="fill: #ffffff; stroke: #e1e0d9; stroke-linejoin: miter"/>
    </g>
    <g id="text_8">
     <!-- 20,000 -->
     <g style="fill: #0b0b0b" transform="translate(332.875063 121.8455) scale(0.1 -0.1)">
      <use xlink:href="#DejaVuSans-32"/>
      <use xlink:href="#DejaVuSans-30" x="63.623047"/>
      <use xlink:href="#DejaVuSans-2c" x="127.246094"/>
      <use xlink:href="#DejaVuSans-30" x="159.033203"/>
      <use xlink:href="#DejaVuSans-30" x="222.65625"/>
      <use xlink:href="#DejaVuSans-30" x="286.279297"/>
     </g>
    </g>
    <g id="patch_10">
     <path d="M 416.772375 128.386125 
L 549.576375 128.386125 
L 549.576375 109.786125 
L 416.772375 109.786125 
z
" style="fill: #ffffff; stroke: #e1e0d9; stroke-linejoin: miter"/>
    </g>
    <g id="text_9">
     <!-- 200,000 -->
     <g style="fill: #0b0b0b" transform="translate(462.497813 121.8455) scale(0.1 -0.1)">
      <use xlink:href="#DejaVuSans-32"/>
      <use xlink:href="#DejaVuSans-30" x="63.623047"/>
      <use xlink:href="#DejaVuSans-30" x="127.246094"/>
      <use xlink:href="#DejaVuSans-2c" x="190.869141"/>
      <use xlink:href="#DejaVuSans-30" x="222.65625"/>
      <use xlink:href="#DejaVuSans-30" x="286.279297"/>
      <use xlink:href="#DejaVuSans-30" x="349.902344"/>
     </g>
    </g>
    <g id="patch_11">
     <path d="M 549.576375 128.386125 
L 682.380375 128.386125 
L 682.380375 109.786125 
L 549.576375 109.786125 
z
" style="fill: #ffffff; stroke: #e1e0d9; stroke-linejoin: miter"/>
    </g>
    <g id="text_10">
     <!-- 200,000 -->
     <g style="fill: #0b0b0b" transform="translate(595.301812 121.8455) scale(0.1 -0.1)">
      <use xlink:href="#DejaVuSans-32"/>
      <use xlink:href="#DejaVuSans-30" x="63.623047"/>
      <use xlink:href="#DejaVuSans-30" x="127.246094"/>
      <use xlink:href="#DejaVuSans-2c" x="190.869141"/>
      <use xlink:href="#DejaVuSans-30" x="222.65625"/>
      <use xlink:href="#DejaVuSans-30" x="286.279297"/>
      <use xlink:href="#DejaVuSans-30" x="349.902344"/>
     </g>
    </g>
    <g id="patch_12">
     <path d="M 682.380375 128.386125 
L 815.184375 128.386125 
L 815.184375 109.786125 
L 682.380375 109.786125 
z
" style="fill: #ffffff; stroke: #e1e0d9; stroke-linejoin: miter"/>
    </g>
    <g id="text_11">
     <!-- 200,000 -->
     <g style="fill: #0b0b0b" transform="translate(728.105812 121.8455) scale(0.1 -0.1)">
      <use xlink:href="#DejaVuSans-32"/>
      <use xlink:href="#DejaVuSans-30" x="63.623047"/>
      <use xlink:href="#DejaVuSans-30" x="127.246094"/>
      <use xlink:href="#DejaVuSans-2c" x="190.869141"/>
      <use xlink:href="#DejaVuSans-30" x="222.65625"/>
      <use xlink:href="#DejaVuSans-30" x="286.279297"/>
      <use xlink:href="#DejaVuSans-30" x="349.902344"/>
     </g>
    </g>
    <g id="patch_13">
     <path d="M 7.2 146.986125 
L 151.164375 146.986125 
L 151.164375 128.386125 
L 7.2 128.386125 
z
" style="fill: #ffffff; stroke: #e1e0d9; stroke-linejoin: miter"/>
    </g>
    <g id="text_12">
     <!-- context (txns/window) -->
     <g style="fill: #52514e" transform="translate(25.40075 140.4455) scale(0.1 -0.1)">
      <defs>
       <path id="DejaVuSans-6f" d="M 1959 3097 
Q 1497 3097 1228 2736 
Q 959 2375 959 1747 
Q 959 1119 1226 758 
Q 1494 397 1959 397 
Q 2419 397 2687 759 
Q 2956 1122 2956 1747 
Q 2956 2369 2687 2733 
Q 2419 3097 1959 3097 
z
M 1959 3584 
Q 2709 3584 3137 3096 
Q 3566 2609 3566 1747 
Q 3566 888 3137 398 
Q 2709 -91 1959 -91 
Q 1206 -91 779 398 
Q 353 888 353 1747 
Q 353 2609 779 3096 
Q 1206 3584 1959 3584 
z
" transform="scale(0.015625)"/>
       <path id="DejaVuSans-6e" d="M 3513 2113 
L 3513 0 
L 2938 0 
L 2938 2094 
Q 2938 2591 2744 2837 
Q 2550 3084 2163 3084 
Q 1697 3084 1428 2787 
Q 1159 2491 1159 1978 
L 1159 0 
L 581 0 
L 581 3500 
L 1159 3500 
L 1159 2956 
Q 1366 3272 1645 3428 
Q 1925 3584 2291 3584 
Q 2894 3584 3203 3211 
Q 3513 2838 3513 2113 
z
" transform="scale(0.015625)"/>
       <path id="DejaVuSans-74" d="M 1172 4494 
L 1172 3500 
L 2356 3500 
L 2356 3053 
L 1172 3053 
L 1172 1153 
Q 1172 725 1289 603 
Q 1406 481 1766 481 
L 2356 481 
L 2356 0 
L 1766 0 
Q 1100 0 847 248 
Q 594 497 594 1153 
L 594 3053 
L 172 3053 
L 172 3500 
L 594 3500 
L 594 4494 
L 1172 4494 
z
" transform="scale(0.015625)"/>
       <path id="DejaVuSans-78" d="M 3513 3500 
L 2247 1797 
L 3578 0 
L 2900 0 
L 1881 1375 
L 863 0 
L 184 0 
L 1544 1831 
L 300 3500 
L 978 3500 
L 1906 2253 
L 2834 3500 
L 3513 3500 
z
" transform="scale(0.015625)"/>
       <path id="DejaVuSans-28" d="M 1984 4856 
Q 1566 4138 1362 3434 
Q 1159 2731 1159 2009 
Q 1159 1288 1364 580 
Q 1569 -128 1984 -844 
L 1484 -844 
Q 1016 -109 783 600 
Q 550 1309 550 2009 
Q 550 2706 781 3412 
Q 1013 4119 1484 4856 
L 1984 4856 
z
" transform="scale(0.015625)"/>
       <path id="DejaVuSans-2f" d="M 1625 4666 
L 2156 4666 
L 531 -594 
L 0 -594 
L 1625 4666 
z
" transform="scale(0.015625)"/>
       <path id="DejaVuSans-77" d="M 269 3500 
L 844 3500 
L 1563 769 
L 2278 3500 
L 2956 3500 
L 3675 769 
L 4391 3500 
L 4966 3500 
L 4050 0 
L 3372 0 
L 2619 2869 
L 1863 0 
L 1184 0 
L 269 3500 
z
" transform="scale(0.015625)"/>
       <path id="DejaVuSans-69" d="M 603 3500 
L 1178 3500 
L 1178 0 
L 603 0 
L 603 3500 
z
M 603 4863 
L 1178 4863 
L 1178 4134 
L 603 4134 
L 603 4863 
z
" transform="scale(0.015625)"/>
       <path id="DejaVuSans-29" d="M 513 4856 
L 1013 4856 
Q 1481 4119 1714 3412 
Q 1947 2706 1947 2009 
Q 1947 1309 1714 600 
Q 1481 -109 1013 -844 
L 513 -844 
Q 928 -128 1133 580 
Q 1338 1288 1338 2009 
Q 1338 2731 1133 3434 
Q 928 4138 513 4856 
z
" transform="scale(0.015625)"/>
      </defs>
      <use xlink:href="#DejaVuSans-63"/>
      <use xlink:href="#DejaVuSans-6f" x="54.980469"/>
      <use xlink:href="#DejaVuSans-6e" x="116.162109"/>
      <use xlink:href="#DejaVuSans-74" x="179.541016"/>
      <use xlink:href="#DejaVuSans-65" x="218.75"/>
      <use xlink:href="#DejaVuSans-78" x="278.523438"/>
      <use xlink:href="#DejaVuSans-74" x="337.703125"/>
      <use xlink:href="#DejaVuSans-20" x="376.912109"/>
      <use xlink:href="#DejaVuSans-28" x="408.699219"/>
      <use xlink:href="#DejaVuSans-74" x="447.712891"/>
      <use xlink:href="#DejaVuSans-78" x="486.921875"/>
      <use xlink:href="#DejaVuSans-6e" x="546.101562"/>
      <use xlink:href="#DejaVuSans-73" x="609.480469"/>
      <use xlink:href="#DejaVuSans-2f" x="661.580078"/>
      <use xlink:href="#DejaVuSans-77" x="695.271484"/>
      <use xlink:href="#DejaVuSans-69" x="777.058594"/>
      <use xlink:href="#DejaVuSans-6e" x="804.841797"/>
      <use xlink:href="#DejaVuSans-64" x="868.220703"/>
      <use xlink:href="#DejaVuSans-6f" x="931.697266"/>
      <use xlink:href="#DejaVuSans-77" x="992.878906"/>
      <use xlink:href="#DejaVuSans-29" x="1074.666016"/>
     </g>
    </g>
    <g id="patch_14">
     <path d="M 151.164375 146.986125 
L 283.968375 146.986125 
L 283.968375 128.386125 
L 151.164375 128.386125 
z
" style="fill: #ffffff; stroke: #e1e0d9; stroke-linejoin: miter"/>
    </g>
    <g id="text_13">
     <!-- 32 -->
     <g style="fill: #0b0b0b" transform="translate(211.203875 140.4455) scale(0.1 -0.1)">
      <defs>
       <path id="DejaVuSans-33" d="M 2597 2516 
Q 3050 2419 3304 2112 
Q 3559 1806 3559 1356 
Q 3559 666 3084 287 
Q 2609 -91 1734 -91 
Q 1441 -91 1130 -33 
Q 819 25 488 141 
L 488 750 
Q 750 597 1062 519 
Q 1375 441 1716 441 
Q 2309 441 2620 675 
Q 2931 909 2931 1356 
Q 2931 1769 2642 2001 
Q 2353 2234 1838 2234 
L 1294 2234 
L 1294 2753 
L 1863 2753 
Q 2328 2753 2575 2939 
Q 2822 3125 2822 3475 
Q 2822 3834 2567 4026 
Q 2313 4219 1838 4219 
Q 1578 4219 1281 4162 
Q 984 4106 628 3988 
L 628 4550 
Q 988 4650 1302 4700 
Q 1616 4750 1894 4750 
Q 2613 4750 3031 4423 
Q 3450 4097 3450 3541 
Q 3450 3153 3228 2886 
Q 3006 2619 2597 2516 
z
" transform="scale(0.015625)"/>
      </defs>
      <use xlink:href="#DejaVuSans-33"/>
      <use xlink:href="#DejaVuSans-32" x="63.623047"/>
     </g>
    </g>
    <g id="patch_15">
     <path d="M 283.968375 146.986125 
L 416.772375 146.986125 
L 416.772375 128.386125 
L 283.968375 128.386125 
z
" style="fill: #ffffff; stroke: #e1e0d9; stroke-linejoin: miter"/>
    </g>
    <g id="text_14">
     <!-- 128 -->
     <g style="fill: #0b0b0b" transform="translate(340.826625 140.4455) scale(0.1 -0.1)">
      <defs>
       <path id="DejaVuSans-31" d="M 794 531 
L 1825 531 
L 1825 4091 
L 703 3866 
L 703 4441 
L 1819 4666 
L 2450 4666 
L 2450 531 
L 3481 531 
L 3481 0 
L 794 0 
L 794 531 
z
" transform="scale(0.015625)"/>
       <path id="DejaVuSans-38" d="M 2034 2216 
Q 1584 2216 1326 1975 
Q 1069 1734 1069 1313 
Q 1069 891 1326 650 
Q 1584 409 2034 409 
Q 2484 409 2743 651 
Q 3003 894 3003 1313 
Q 3003 1734 2745 1975 
Q 2488 2216 2034 2216 
z
M 1403 2484 
Q 997 2584 770 2862 
Q 544 3141 544 3541 
Q 544 4100 942 4425 
Q 1341 4750 2034 4750 
Q 2731 4750 3128 4425 
Q 3525 4100 3525 3541 
Q 3525 3141 3298 2862 
Q 3072 2584 2669 2484 
Q 3125 2378 3379 2068 
Q 3634 1759 3634 1313 
Q 3634 634 3220 271 
Q 2806 -91 2034 -91 
Q 1263 -91 848 271 
Q 434 634 434 1313 
Q 434 1759 690 2068 
Q 947 2378 1403 2484 
z
M 1172 3481 
Q 1172 3119 1398 2916 
Q 1625 2713 2034 2713 
Q 2441 2713 2670 2916 
Q 2900 3119 2900 3481 
Q 2900 3844 2670 4047 
Q 2441 4250 2034 4250 
Q 1625 4250 1398 4047 
Q 1172 3844 1172 3481 
z
" transform="scale(0.015625)"/>
      </defs>
      <use xlink:href="#DejaVuSans-31"/>
      <use xlink:href="#DejaVuSans-32" x="63.623047"/>
      <use xlink:href="#DejaVuSans-38" x="127.246094"/>
     </g>
    </g>
    <g id="patch_16">
     <path d="M 416.772375 146.986125 
L 549.576375 146.986125 
L 549.576375 128.386125 
L 416.772375 128.386125 
z
" style="fill: #ffffff; stroke: #e1e0d9; stroke-linejoin: miter"/>
    </g>
    <g id="text_15">
     <!-- 512 -->
     <g style="fill: #0b0b0b" transform="translate(473.630625 140.4455) scale(0.1 -0.1)">
      <defs>
       <path id="DejaVuSans-35" d="M 691 4666 
L 3169 4666 
L 3169 4134 
L 1269 4134 
L 1269 2991 
Q 1406 3038 1543 3061 
Q 1681 3084 1819 3084 
Q 2600 3084 3056 2656 
Q 3513 2228 3513 1497 
Q 3513 744 3044 326 
Q 2575 -91 1722 -91 
Q 1428 -91 1123 -41 
Q 819 9 494 109 
L 494 744 
Q 775 591 1075 516 
Q 1375 441 1709 441 
Q 2250 441 2565 725 
Q 2881 1009 2881 1497 
Q 2881 1984 2565 2268 
Q 2250 2553 1709 2553 
Q 1456 2553 1204 2497 
Q 953 2441 691 2322 
L 691 4666 
z
" transform="scale(0.015625)"/>
      </defs>
      <use xlink:href="#DejaVuSans-35"/>
      <use xlink:href="#DejaVuSans-31" x="63.623047"/>
      <use xlink:href="#DejaVuSans-32" x="127.246094"/>
     </g>
    </g>
    <g id="patch_17">
     <path d="M 549.576375 146.986125 
L 682.380375 146.986125 
L 682.380375 128.386125 
L 549.576375 128.386125 
z
" style="fill: #ffffff; stroke: #e1e0d9; stroke-linejoin: miter"/>
    </g>
    <g id="text_16">
     <!-- 1,024 -->
     <g style="fill: #0b0b0b" transform="translate(601.664313 140.4455) scale(0.1 -0.1)">
      <defs>
       <path id="DejaVuSans-34" d="M 2419 4116 
L 825 1625 
L 2419 1625 
L 2419 4116 
z
M 2253 4666 
L 3047 4666 
L 3047 1625 
L 3713 1625 
L 3713 1100 
L 3047 1100 
L 3047 0 
L 2419 0 
L 2419 1100 
L 313 1100 
L 313 1709 
L 2253 4666 
z
" transform="scale(0.015625)"/>
      </defs>
      <use xlink:href="#DejaVuSans-31"/>
      <use xlink:href="#DejaVuSans-2c" x="63.623047"/>
      <use xlink:href="#DejaVuSans-30" x="95.410156"/>
      <use xlink:href="#DejaVuSans-32" x="159.033203"/>
      <use xlink:href="#DejaVuSans-34" x="222.65625"/>
     </g>
    </g>
    <g id="patch_18">
     <path d="M 682.380375 146.986125 
L 815.184375 146.986125 
L 815.184375 128.386125 
L 682.380375 128.386125 
z
" style="fill: #ffffff; stroke: #e1e0d9; stroke-linejoin: miter"/>
    </g>
    <g id="text_17">
     <!-- 2,048 -->
     <g style="fill: #0b0b0b" transform="translate(734.468313 140.4455) scale(0.1 -0.1)">
      <use xlink:href="#DejaVuSans-32"/>
      <use xlink:href="#DejaVuSans-2c" x="63.623047"/>
      <use xlink:href="#DejaVuSans-30" x="95.410156"/>
      <use xlink:href="#DejaVuSans-34" x="159.033203"/>
      <use xlink:href="#DejaVuSans-38" x="222.65625"/>
     </g>
    </g>
    <g id="patch_19">
     <path d="M 7.2 165.586125 
L 151.164375 165.586125 
L 151.164375 146.986125 
L 7.2 146.986125 
z
" style="fill: #ffffff; stroke: #e1e0d9; stroke-linejoin: miter"/>
    </g>
    <g id="text_18">
     <!-- d_model / layers -->
     <g style="fill: #52514e" transform="translate(54.257 158.906437) scale(0.1 -0.1)">
      <defs>
       <path id="DejaVuSans-5f" d="M 3263 -1063 
L 3263 -1509 
L -63 -1509 
L -63 -1063 
L 3263 -1063 
z
" transform="scale(0.015625)"/>
       <path id="DejaVuSans-79" d="M 2059 -325 
Q 1816 -950 1584 -1140 
Q 1353 -1331 966 -1331 
L 506 -1331 
L 506 -850 
L 844 -850 
Q 1081 -850 1212 -737 
Q 1344 -625 1503 -206 
L 1606 56 
L 191 3500 
L 800 3500 
L 1894 763 
L 2988 3500 
L 3597 3500 
L 2059 -325 
z
" transform="scale(0.015625)"/>
      </defs>
      <use xlink:href="#DejaVuSans-64"/>
      <use xlink:href="#DejaVuSans-5f" x="63.476562"/>
      <use xlink:href="#DejaVuSans-6d" x="113.476562"/>
      <use xlink:href="#DejaVuSans-6f" x="210.888672"/>
      <use xlink:href="#DejaVuSans-64" x="272.070312"/>
      <use xlink:href="#DejaVuSans-65" x="335.546875"/>
      <use xlink:href="#DejaVuSans-6c" x="397.070312"/>
      <use xlink:href="#DejaVuSans-20" x="424.853516"/>
      <use xlink:href="#DejaVuSans-2f" x="456.640625"/>
      <use xlink:href="#DejaVuSans-20" x="490.332031"/>
      <use xlink:href="#DejaVuSans-6c" x="522.119141"/>
      <use xlink:href="#DejaVuSans-61" x="549.902344"/>
      <use xlink:href="#DejaVuSans-79" x="611.181641"/>
      <use xlink:href="#DejaVuSans-65" x="670.361328"/>
      <use xlink:href="#DejaVuSans-72" x="731.884766"/>
      <use xlink:href="#DejaVuSans-73" x="772.998047"/>
     </g>
    </g>
    <g id="patch_20">
     <path d="M 151.164375 165.586125 
L 283.968375 165.586125 
L 283.968375 146.986125 
L 151.164375 146.986125 
z
" style="fill: #ffffff; stroke: #e1e0d9; stroke-linejoin: miter"/>
    </g>
    <g id="text_19">
     <!-- 64 / 2 -->
     <g style="fill: #0b0b0b" transform="translate(203.160125 159.0455) scale(0.1 -0.1)">
      <defs>
       <path id="DejaVuSans-36" d="M 2113 2584 
Q 1688 2584 1439 2293 
Q 1191 2003 1191 1497 
Q 1191 994 1439 701 
Q 1688 409 2113 409 
Q 2538 409 2786 701 
Q 3034 994 3034 1497 
Q 3034 2003 2786 2293 
Q 2538 2584 2113 2584 
z
M 3366 4563 
L 3366 3988 
Q 3128 4100 2886 4159 
Q 2644 4219 2406 4219 
Q 1781 4219 1451 3797 
Q 1122 3375 1075 2522 
Q 1259 2794 1537 2939 
Q 1816 3084 2150 3084 
Q 2853 3084 3261 2657 
Q 3669 2231 3669 1497 
Q 3669 778 3244 343 
Q 2819 -91 2113 -91 
Q 1303 -91 875 529 
Q 447 1150 447 2328 
Q 447 3434 972 4092 
Q 1497 4750 2381 4750 
Q 2619 4750 2861 4703 
Q 3103 4656 3366 4563 
z
" transform="scale(0.015625)"/>
      </defs>
      <use xlink:href="#DejaVuSans-36"/>
      <use xlink:href="#DejaVuSans-34" x="63.623047"/>
      <use xlink:href="#DejaVuSans-20" x="127.246094"/>
      <use xlink:href="#DejaVuSans-2f" x="159.033203"/>
      <use xlink:href="#DejaVuSans-20" x="192.724609"/>
      <use xlink:href="#DejaVuSans-32" x="224.511719"/>
     </g>
    </g>
    <g id="patch_21">
     <path d="M 283.968375 165.586125 
L 416.772375 165.586125 
L 416.772375 146.986125 
L 283.968375 146.986125 
z
" style="fill: #ffffff; stroke: #e1e0d9; stroke-linejoin: miter"/>
    </g>
    <g id="text_20">
     <!-- 256 / 4 -->
     <g style="fill: #0b0b0b" transform="translate(332.782875 159.0455) scale(0.1 -0.1)">
      <use xlink:href="#DejaVuSans-32"/>
      <use xlink:href="#DejaVuSans-35" x="63.623047"/>
      <use xlink:href="#DejaVuSans-36" x="127.246094"/>
      <use xlink:href="#DejaVuSans-20" x="190.869141"/>
      <use xlink:href="#DejaVuSans-2f" x="222.65625"/>
      <use xlink:href="#DejaVuSans-20" x="256.347656"/>
      <use xlink:href="#DejaVuSans-34" x="288.134766"/>
     </g>
    </g>
    <g id="patch_22">
     <path d="M 416.772375 165.586125 
L 549.576375 165.586125 
L 549.576375 146.986125 
L 416.772375 146.986125 
z
" style="fill: #ffffff; stroke: #e1e0d9; stroke-linejoin: miter"/>
    </g>
    <g id="text_21">
     <!-- 512 / 8 -->
     <g style="fill: #0b0b0b" transform="translate(465.586875 159.0455) scale(0.1 -0.1)">
      <use xlink:href="#DejaVuSans-35"/>
      <use xlink:href="#DejaVuSans-31" x="63.623047"/>
      <use xlink:href="#DejaVuSans-32" x="127.246094"/>
      <use xlink:href="#DejaVuSans-20" x="190.869141"/>
      <use xlink:href="#DejaVuSans-2f" x="222.65625"/>
      <use xlink:href="#DejaVuSans-20" x="256.347656"/>
      <use xlink:href="#DejaVuSans-38" x="288.134766"/>
     </g>
    </g>
    <g id="patch_23">
     <path d="M 549.576375 165.586125 
L 682.380375 165.586125 
L 682.380375 146.986125 
L 549.576375 146.986125 
z
" style="fill: #ffffff; stroke: #e1e0d9; stroke-linejoin: miter"/>
    </g>
    <g id="text_22">
     <!-- 512 / 8 -->
     <g style="fill: #0b0b0b" transform="translate(598.390875 159.0455) scale(0.1 -0.1)">
      <use xlink:href="#DejaVuSans-35"/>
      <use xlink:href="#DejaVuSans-31" x="63.623047"/>
      <use xlink:href="#DejaVuSans-32" x="127.246094"/>
      <use xlink:href="#DejaVuSans-20" x="190.869141"/>
      <use xlink:href="#DejaVuSans-2f" x="222.65625"/>
      <use xlink:href="#DejaVuSans-20" x="256.347656"/>
      <use xlink:href="#DejaVuSans-38" x="288.134766"/>
     </g>
    </g>
    <g id="patch_24">
     <path d="M 682.380375 165.586125 
L 815.184375 165.586125 
L 815.184375 146.986125 
L 682.380375 146.986125 
z
" style="fill: #ffffff; stroke: #e1e0d9; stroke-linejoin: miter"/>
    </g>
    <g id="text_23">
     <!-- 512 / 8 -->
     <g style="fill: #0b0b0b" transform="translate(731.194875 159.0455) scale(0.1 -0.1)">
      <use xlink:href="#DejaVuSans-35"/>
      <use xlink:href="#DejaVuSans-31" x="63.623047"/>
      <use xlink:href="#DejaVuSans-32" x="127.246094"/>
      <use xlink:href="#DejaVuSans-20" x="190.869141"/>
      <use xlink:href="#DejaVuSans-2f" x="222.65625"/>
      <use xlink:href="#DejaVuSans-20" x="256.347656"/>
      <use xlink:href="#DejaVuSans-38" x="288.134766"/>
     </g>
    </g>
    <g id="patch_25">
     <path d="M 7.2 184.186125 
L 151.164375 184.186125 
L 151.164375 165.586125 
L 7.2 165.586125 
z
" style="fill: #ffffff; stroke: #e1e0d9; stroke-linejoin: miter"/>
    </g>
    <g id="text_24">
     <!-- pretrain epochs -->
     <g style="fill: #52514e" transform="translate(58.261687 177.6455) scale(0.1 -0.1)">
      <defs>
       <path id="DejaVuSans-68" d="M 3513 2113 
L 3513 0 
L 2938 0 
L 2938 2094 
Q 2938 2591 2744 2837 
Q 2550 3084 2163 3084 
Q 1697 3084 1428 2787 
Q 1159 2491 1159 1978 
L 1159 0 
L 581 0 
L 581 4863 
L 1159 4863 
L 1159 2956 
Q 1366 3272 1645 3428 
Q 1925 3584 2291 3584 
Q 2894 3584 3203 3211 
Q 3513 2838 3513 2113 
z
" transform="scale(0.015625)"/>
      </defs>
      <use xlink:href="#DejaVuSans-70"/>
      <use xlink:href="#DejaVuSans-72" x="63.476562"/>
      <use xlink:href="#DejaVuSans-65" x="102.339844"/>
      <use xlink:href="#DejaVuSans-74" x="163.863281"/>
      <use xlink:href="#DejaVuSans-72" x="203.072266"/>
      <use xlink:href="#DejaVuSans-61" x="244.185547"/>
      <use xlink:href="#DejaVuSans-69" x="305.464844"/>
      <use xlink:href="#DejaVuSans-6e" x="333.248047"/>
      <use xlink:href="#DejaVuSans-20" x="396.626953"/>
      <use xlink:href="#DejaVuSans-65" x="428.414062"/>
      <use xlink:href="#DejaVuSans-70" x="489.9375"/>
      <use xlink:href="#DejaVuSans-6f" x="553.414062"/>
      <use xlink:href="#DejaVuSans-63" x="614.595703"/>
      <use xlink:href="#DejaVuSans-68" x="669.576172"/>
      <use xlink:href="#DejaVuSans-73" x="732.955078"/>
     </g>
    </g>
    <g id="patch_26">
     <path d="M 151.164375 184.186125 
L 283.968375 184.186125 
L 283.968375 165.586125 
L 151.164375 165.586125 
z
" style="fill: #ffffff; stroke: #e1e0d9; stroke-linejoin: miter"/>
    </g>
    <g id="text_25">
     <!-- 2 -->
     <g style="fill: #0b0b0b" transform="translate(214.385125 177.6455) scale(0.1 -0.1)">
      <use xlink:href="#DejaVuSans-32"/>
     </g>
    </g>
    <g id="patch_27">
     <path d="M 283.968375 184.186125 
L 416.772375 184.186125 
L 416.772375 165.586125 
L 283.968375 165.586125 
z
" style="fill: #ffffff; stroke: #e1e0d9; stroke-linejoin: miter"/>
    </g>
    <g id="text_26">
     <!-- 15 -->
     <g style="fill: #0b0b0b" transform="translate(344.007875 177.6455) scale(0.1 -0.1)">
      <use xlink:href="#DejaVuSans-31"/>
      <use xlink:href="#DejaVuSans-35" x="63.623047"/>
     </g>
    </g>
    <g id="patch_28">
     <path d="M 416.772375 184.186125 
L 549.576375 184.186125 
L 549.576375 165.586125 
L 416.772375 165.586125 
z
" style="fill: #ffffff; stroke: #e1e0d9; stroke-linejoin: miter"/>
    </g>
    <g id="text_27">
     <!-- 20 -->
     <g style="fill: #0b0b0b" transform="translate(476.811875 177.6455) scale(0.1 -0.1)">
      <use xlink:href="#DejaVuSans-32"/>
      <use xlink:href="#DejaVuSans-30" x="63.623047"/>
     </g>
    </g>
    <g id="patch_29">
     <path d="M 549.576375 184.186125 
L 682.380375 184.186125 
L 682.380375 165.586125 
L 549.576375 165.586125 
z
" style="fill: #ffffff; stroke: #e1e0d9; stroke-linejoin: miter"/>
    </g>
    <g id="text_28">
     <!-- 20 -->
     <g style="fill: #0b0b0b" transform="translate(609.615875 177.6455) scale(0.1 -0.1)">
      <use xlink:href="#DejaVuSans-32"/>
      <use xlink:href="#DejaVuSans-30" x="63.623047"/>
     </g>
    </g>
    <g id="patch_30">
     <path d="M 682.380375 184.186125 
L 815.184375 184.186125 
L 815.184375 165.586125 
L 682.380375 165.586125 
z
" style="fill: #ffffff; stroke: #e1e0d9; stroke-linejoin: miter"/>
    </g>
    <g id="text_29">
     <!-- 20 -->
     <g style="fill: #0b0b0b" transform="translate(742.419875 177.6455) scale(0.1 -0.1)">
      <use xlink:href="#DejaVuSans-32"/>
      <use xlink:href="#DejaVuSans-30" x="63.623047"/>
     </g>
    </g>
    <g id="patch_31">
     <path d="M 7.2 202.786125 
L 151.164375 202.786125 
L 151.164375 184.186125 
L 7.2 184.186125 
z
" style="fill: #ffffff; stroke: #e1e0d9; stroke-linejoin: miter"/>
    </g>
    <g id="text_30">
     <!-- train workers x GPU -->
     <g style="fill: #52514e" transform="translate(37.633562 196.2455) scale(0.1 -0.1)">
      <defs>
       <path id="DejaVuSans-6b" d="M 581 4863 
L 1159 4863 
L 1159 1991 
L 2875 3500 
L 3609 3500 
L 1753 1863 
L 3688 0 
L 2938 0 
L 1159 1709 
L 1159 0 
L 581 0 
L 581 4863 
z
" transform="scale(0.015625)"/>
       <path id="DejaVuSans-47" d="M 3809 666 
L 3809 1919 
L 2778 1919 
L 2778 2438 
L 4434 2438 
L 4434 434 
Q 4069 175 3628 42 
Q 3188 -91 2688 -91 
Q 1594 -91 976 548 
Q 359 1188 359 2328 
Q 359 3472 976 4111 
Q 1594 4750 2688 4750 
Q 3144 4750 3555 4637 
Q 3966 4525 4313 4306 
L 4313 3634 
Q 3963 3931 3569 4081 
Q 3175 4231 2741 4231 
Q 1884 4231 1454 3753 
Q 1025 3275 1025 2328 
Q 1025 1384 1454 906 
Q 1884 428 2741 428 
Q 3075 428 3337 486 
Q 3600 544 3809 666 
z
" transform="scale(0.015625)"/>
       <path id="DejaVuSans-50" d="M 1259 4147 
L 1259 2394 
L 2053 2394 
Q 2494 2394 2734 2622 
Q 2975 2850 2975 3272 
Q 2975 3691 2734 3919 
Q 2494 4147 2053 4147 
L 1259 4147 
z
M 628 4666 
L 2053 4666 
Q 2838 4666 3239 4311 
Q 3641 3956 3641 3272 
Q 3641 2581 3239 2228 
Q 2838 1875 2053 1875 
L 1259 1875 
L 1259 0 
L 628 0 
L 628 4666 
z
" transform="scale(0.015625)"/>
       <path id="DejaVuSans-55" d="M 556 4666 
L 1191 4666 
L 1191 1831 
Q 1191 1081 1462 751 
Q 1734 422 2344 422 
Q 2950 422 3222 751 
Q 3494 1081 3494 1831 
L 3494 4666 
L 4128 4666 
L 4128 1753 
Q 4128 841 3676 375 
Q 3225 -91 2344 -91 
Q 1459 -91 1007 375 
Q 556 841 556 1753 
L 556 4666 
z
" transform="scale(0.015625)"/>
      </defs>
      <use xlink:href="#DejaVuSans-74"/>
      <use xlink:href="#DejaVuSans-72" x="39.208984"/>
      <use xlink:href="#DejaVuSans-61" x="80.322266"/>
      <use xlink:href="#DejaVuSans-69" x="141.601562"/>
      <use xlink:href="#DejaVuSans-6e" x="169.384766"/>
      <use xlink:href="#DejaVuSans-20" x="232.763672"/>
      <use xlink:href="#DejaVuSans-77" x="264.550781"/>
      <use xlink:href="#DejaVuSans-6f" x="346.337891"/>
      <use xlink:href="#DejaVuSans-72" x="407.519531"/>
      <use xlink:href="#DejaVuSans-6b" x="448.632812"/>
      <use xlink:href="#DejaVuSans-65" x="502.917969"/>
      <use xlink:href="#DejaVuSans-72" x="564.441406"/>
      <use xlink:href="#DejaVuSans-73" x="605.554688"/>
      <use xlink:href="#DejaVuSans-20" x="657.654297"/>
      <use xlink:href="#DejaVuSans-78" x="689.441406"/>
      <use xlink:href="#DejaVuSans-20" x="748.621094"/>
      <use xlink:href="#DejaVuSans-47" x="780.408203"/>
      <use xlink:href="#DejaVuSans-50" x="857.898438"/>
      <use xlink:href="#DejaVuSans-55" x="918.201172"/>
     </g>
    </g>
    <g id="patch_32">
     <path d="M 151.164375 202.786125 
L 283.968375 202.786125 
L 283.968375 184.186125 
L 151.164375 184.186125 
z
" style="fill: #ffffff; stroke: #e1e0d9; stroke-linejoin: miter"/>
    </g>
    <g id="text_31">
     <!-- 1 x CPU -->
     <g style="fill: #0b0b0b" transform="translate(198.082 196.2455) scale(0.1 -0.1)">
      <defs>
       <path id="DejaVuSans-43" d="M 4122 4306 
L 4122 3641 
Q 3803 3938 3442 4084 
Q 3081 4231 2675 4231 
Q 1875 4231 1450 3742 
Q 1025 3253 1025 2328 
Q 1025 1406 1450 917 
Q 1875 428 2675 428 
Q 3081 428 3442 575 
Q 3803 722 4122 1019 
L 4122 359 
Q 3791 134 3420 21 
Q 3050 -91 2638 -91 
Q 1578 -91 968 557 
Q 359 1206 359 2328 
Q 359 3453 968 4101 
Q 1578 4750 2638 4750 
Q 3056 4750 3426 4639 
Q 3797 4528 4122 4306 
z
" transform="scale(0.015625)"/>
      </defs>
      <use xlink:href="#DejaVuSans-31"/>
      <use xlink:href="#DejaVuSans-20" x="63.623047"/>
      <use xlink:href="#DejaVuSans-78" x="95.410156"/>
      <use xlink:href="#DejaVuSans-20" x="154.589844"/>
      <use xlink:href="#DejaVuSans-43" x="186.376953"/>
      <use xlink:href="#DejaVuSans-50" x="256.201172"/>
      <use xlink:href="#DejaVuSans-55" x="316.503906"/>
     </g>
    </g>
    <g id="patch_33">
     <path d="M 283.968375 202.786125 
L 416.772375 202.786125 
L 416.772375 184.186125 
L 283.968375 184.186125 
z
" style="fill: #ffffff; stroke: #e1e0d9; stroke-linejoin: miter"/>
    </g>
    <g id="text_32">
     <!-- 2 x GPU -->
     <g style="fill: #0b0b0b" transform="translate(330.503188 196.2455) scale(0.1 -0.1)">
      <use xlink:href="#DejaVuSans-32"/>
      <use xlink:href="#DejaVuSans-20" x="63.623047"/>
      <use xlink:href="#DejaVuSans-78" x="95.410156"/>
      <use xlink:href="#DejaVuSans-20" x="154.589844"/>
      <use xlink:href="#DejaVuSans-47" x="186.376953"/>
      <use xlink:href="#DejaVuSans-50" x="263.867188"/>
      <use xlink:href="#DejaVuSans-55" x="324.169922"/>
     </g>
    </g>
    <g id="patch_34">
     <path d="M 416.772375 202.786125 
L 549.576375 202.786125 
L 549.576375 184.186125 
L 416.772375 184.186125 
z
" style="fill: #ffffff; stroke: #e1e0d9; stroke-linejoin: miter"/>
    </g>
    <g id="text_33">
     <!-- 4 x GPU -->
     <g style="fill: #0b0b0b" transform="translate(463.307188 196.2455) scale(0.1 -0.1)">
      <use xlink:href="#DejaVuSans-34"/>
      <use xlink:href="#DejaVuSans-20" x="63.623047"/>
      <use xlink:href="#DejaVuSans-78" x="95.410156"/>
      <use xlink:href="#DejaVuSans-20" x="154.589844"/>
      <use xlink:href="#DejaVuSans-47" x="186.376953"/>
      <use xlink:href="#DejaVuSans-50" x="263.867188"/>
      <use xlink:href="#DejaVuSans-55" x="324.169922"/>
     </g>
    </g>
    <g id="patch_35">
     <path d="M 549.576375 202.786125 
L 682.380375 202.786125 
L 682.380375 184.186125 
L 549.576375 184.186125 
z
" style="fill: #ffffff; stroke: #e1e0d9; stroke-linejoin: miter"/>
    </g>
    <g id="text_34">
     <!-- 4 x GPU -->
     <g style="fill: #0b0b0b" transform="translate(596.111188 196.2455) scale(0.1 -0.1)">
      <use xlink:href="#DejaVuSans-34"/>
      <use xlink:href="#DejaVuSans-20" x="63.623047"/>
      <use xlink:href="#DejaVuSans-78" x="95.410156"/>
      <use xlink:href="#DejaVuSans-20" x="154.589844"/>
      <use xlink:href="#DejaVuSans-47" x="186.376953"/>
      <use xlink:href="#DejaVuSans-50" x="263.867188"/>
      <use xlink:href="#DejaVuSans-55" x="324.169922"/>
     </g>
    </g>
    <g id="patch_36">
     <path d="M 682.380375 202.786125 
L 815.184375 202.786125 
L 815.184375 184.186125 
L 682.380375 184.186125 
z
" style="fill: #ffffff; stroke: #e1e0d9; stroke-linejoin: miter"/>
    </g>
    <g id="text_35">
     <!-- 4 x GPU -->
     <g style="fill: #0b0b0b" transform="translate(728.915188 196.2455) scale(0.1 -0.1)">
      <use xlink:href="#DejaVuSans-34"/>
      <use xlink:href="#DejaVuSans-20" x="63.623047"/>
      <use xlink:href="#DejaVuSans-78" x="95.410156"/>
      <use xlink:href="#DejaVuSans-20" x="154.589844"/>
      <use xlink:href="#DejaVuSans-47" x="186.376953"/>
      <use xlink:href="#DejaVuSans-50" x="263.867188"/>
      <use xlink:href="#DejaVuSans-55" x="324.169922"/>
     </g>
    </g>
    <g id="patch_37">
     <path d="M 7.2 221.386125 
L 151.164375 221.386125 
L 151.164375 202.786125 
L 7.2 202.786125 
z
" style="fill: #ffffff; stroke: #e1e0d9; stroke-linejoin: miter"/>
    </g>
    <g id="text_36">
     <!-- embed workers (job_full -->
     <g style="fill: #52514e" transform="translate(16.797625 209.107531) scale(0.1 -0.1)">
      <defs>
       <path id="DejaVuSans-62" d="M 3116 1747 
Q 3116 2381 2855 2742 
Q 2594 3103 2138 3103 
Q 1681 3103 1420 2742 
Q 1159 2381 1159 1747 
Q 1159 1113 1420 752 
Q 1681 391 2138 391 
Q 2594 391 2855 752 
Q 3116 1113 3116 1747 
z
M 1159 2969 
Q 1341 3281 1617 3432 
Q 1894 3584 2278 3584 
Q 2916 3584 3314 3078 
Q 3713 2572 3713 1747 
Q 3713 922 3314 415 
Q 2916 -91 2278 -91 
Q 1894 -91 1617 61 
Q 1341 213 1159 525 
L 1159 0 
L 581 0 
L 581 4863 
L 1159 4863 
L 1159 2969 
z
" transform="scale(0.015625)"/>
       <path id="DejaVuSans-6a" d="M 603 3500 
L 1178 3500 
L 1178 -63 
Q 1178 -731 923 -1031 
Q 669 -1331 103 -1331 
L -116 -1331 
L -116 -844 
L 38 -844 
Q 366 -844 484 -692 
Q 603 -541 603 -63 
L 603 3500 
z
M 603 4863 
L 1178 4863 
L 1178 4134 
L 603 4134 
L 603 4863 
z
" transform="scale(0.015625)"/>
       <path id="DejaVuSans-66" d="M 2375 4863 
L 2375 4384 
L 1825 4384 
Q 1516 4384 1395 4259 
Q 1275 4134 1275 3809 
L 1275 3500 
L 2222 3500 
L 2222 3053 
L 1275 3053 
L 1275 0 
L 697 0 
L 697 3053 
L 147 3053 
L 147 3500 
L 697 3500 
L 697 3744 
Q 697 4328 969 4595 
Q 1241 4863 1831 4863 
L 2375 4863 
z
" transform="scale(0.015625)"/>
       <path id="DejaVuSans-75" d="M 544 1381 
L 544 3500 
L 1119 3500 
L 1119 1403 
Q 1119 906 1312 657 
Q 1506 409 1894 409 
Q 2359 409 2629 706 
Q 2900 1003 2900 1516 
L 2900 3500 
L 3475 3500 
L 3475 0 
L 2900 0 
L 2900 538 
Q 2691 219 2414 64 
Q 2138 -91 1772 -91 
Q 1169 -91 856 284 
Q 544 659 544 1381 
z
M 1991 3584 
L 1991 3584 
z
" transform="scale(0.015625)"/>
      </defs>
      <use xlink:href="#DejaVuSans-65"/>
      <use xlink:href="#DejaVuSans-6d" x="61.523438"/>
      <use xlink:href="#DejaVuSans-62" x="158.935547"/>
      <use xlink:href="#DejaVuSans-65" x="222.412109"/>
      <use xlink:href="#DejaVuSans-64" x="283.935547"/>
      <use xlink:href="#DejaVuSans-20" x="347.412109"/>
      <use xlink:href="#DejaVuSans-77" x="379.199219"/>
      <use xlink:href="#DejaVuSans-6f" x="460.986328"/>
      <use xlink:href="#DejaVuSans-72" x="522.167969"/>
      <use xlink:href="#DejaVuSans-6b" x="563.28125"/>
      <use xlink:href="#DejaVuSans-65" x="617.566406"/>
      <use xlink:href="#DejaVuSans-72" x="679.089844"/>
      <use xlink:href="#DejaVuSans-73" x="720.203125"/>
      <use xlink:href="#DejaVuSans-20" x="772.302734"/>
      <use xlink:href="#DejaVuSans-28" x="804.089844"/>
      <use xlink:href="#DejaVuSans-6a" x="843.103516"/>
      <use xlink:href="#DejaVuSans-6f" x="870.886719"/>
      <use xlink:href="#DejaVuSans-62" x="932.068359"/>
      <use xlink:href="#DejaVuSans-5f" x="995.544922"/>
      <use xlink:href="#DejaVuSans-66" x="1045.544922"/>
      <use xlink:href="#DejaVuSans-75" x="1080.75"/>
      <use xlink:href="#DejaVuSans-6c" x="1144.128906"/>
      <use xlink:href="#DejaVuSans-6c" x="1171.912109"/>
     </g>
     <!-- overrides to 8) -->
     <g style="fill: #52514e" transform="translate(63.382 220.583469) scale(0.1 -0.1)">
      <defs>
       <path id="DejaVuSans-76" d="M 191 3500 
L 800 3500 
L 1894 563 
L 2988 3500 
L 3597 3500 
L 2284 0 
L 1503 0 
L 191 3500 
z
" transform="scale(0.015625)"/>
      </defs>
      <use xlink:href="#DejaVuSans-6f"/>
      <use xlink:href="#DejaVuSans-76" x="61.181641"/>
      <use xlink:href="#DejaVuSans-65" x="120.361328"/>
      <use xlink:href="#DejaVuSans-72" x="181.884766"/>
      <use xlink:href="#DejaVuSans-72" x="221.248047"/>
      <use xlink:href="#DejaVuSans-69" x="262.361328"/>
      <use xlink:href="#DejaVuSans-64" x="290.144531"/>
      <use xlink:href="#DejaVuSans-65" x="353.621094"/>
      <use xlink:href="#DejaVuSans-73" x="415.144531"/>
      <use xlink:href="#DejaVuSans-20" x="467.244141"/>
      <use xlink:href="#DejaVuSans-74" x="499.03125"/>
      <use xlink:href="#DejaVuSans-6f" x="538.240234"/>
      <use xlink:href="#DejaVuSans-20" x="599.421875"/>
      <use xlink:href="#DejaVuSans-38" x="631.208984"/>
      <use xlink:href="#DejaVuSans-29" x="694.832031"/>
     </g>
    </g>
    <g id="patch_38">
     <path d="M 151.164375 221.386125 
L 283.968375 221.386125 
L 283.968375 202.786125 
L 151.164375 202.786125 
z
" style="fill: #ffffff; stroke: #e1e0d9; stroke-linejoin: miter"/>
    </g>
    <g id="text_37">
     <!-- 8 (CPU) -->
     <g style="fill: #0b0b0b" transform="translate(198.728875 214.8455) scale(0.1 -0.1)">
      <use xlink:href="#DejaVuSans-38"/>
      <use xlink:href="#DejaVuSans-20" x="63.623047"/>
      <use xlink:href="#DejaVuSans-28" x="95.410156"/>
      <use xlink:href="#DejaVuSans-43" x="134.423828"/>
      <use xlink:href="#DejaVuSans-50" x="204.248047"/>
      <use xlink:href="#DejaVuSans-55" x="264.550781"/>
      <use xlink:href="#DejaVuSans-29" x="337.744141"/>
     </g>
    </g>
    <g id="patch_39">
     <path d="M 283.968375 221.386125 
L 416.772375 221.386125 
L 416.772375 202.786125 
L 283.968375 202.786125 
z
" style="fill: #ffffff; stroke: #e1e0d9; stroke-linejoin: miter"/>
    </g>
    <g id="text_38">
     <!-- 4 (GPU) -->
     <g style="fill: #0b0b0b" transform="translate(331.150063 214.8455) scale(0.1 -0.1)">
      <use xlink:href="#DejaVuSans-34"/>
      <use xlink:href="#DejaVuSans-20" x="63.623047"/>
      <use xlink:href="#DejaVuSans-28" x="95.410156"/>
      <use xlink:href="#DejaVuSans-47" x="134.423828"/>
      <use xlink:href="#DejaVuSans-50" x="211.914062"/>
      <use xlink:href="#DejaVuSans-55" x="272.216797"/>
      <use xlink:href="#DejaVuSans-29" x="345.410156"/>
     </g>
    </g>
    <g id="patch_40">
     <path d="M 416.772375 221.386125 
L 549.576375 221.386125 
L 549.576375 202.786125 
L 416.772375 202.786125 
z
" style="fill: #ffffff; stroke: #e1e0d9; stroke-linejoin: miter"/>
    </g>
    <g id="text_39">
     <!-- 4 (GPU) -->
     <g style="fill: #0b0b0b" transform="translate(463.954063 214.8455) scale(0.1 -0.1)">
      <use xlink:href="#DejaVuSans-34"/>
      <use xlink:href="#DejaVuSans-20" x="63.623047"/>
      <use xlink:href="#DejaVuSans-28" x="95.410156"/>
      <use xlink:href="#DejaVuSans-47" x="134.423828"/>
      <use xlink:href="#DejaVuSans-50" x="211.914062"/>
      <use xlink:href="#DejaVuSans-55" x="272.216797"/>
      <use xlink:href="#DejaVuSans-29" x="345.410156"/>
     </g>
    </g>
    <g id="patch_41">
     <path d="M 549.576375 221.386125 
L 682.380375 221.386125 
L 682.380375 202.786125 
L 549.576375 202.786125 
z
" style="fill: #ffffff; stroke: #e1e0d9; stroke-linejoin: miter"/>
    </g>
    <g id="text_40">
     <!-- 4 (GPU) -->
     <g style="fill: #0b0b0b" transform="translate(596.758063 214.8455) scale(0.1 -0.1)">
      <use xlink:href="#DejaVuSans-34"/>
      <use xlink:href="#DejaVuSans-20" x="63.623047"/>
      <use xlink:href="#DejaVuSans-28" x="95.410156"/>
      <use xlink:href="#DejaVuSans-47" x="134.423828"/>
      <use xlink:href="#DejaVuSans-50" x="211.914062"/>
      <use xlink:href="#DejaVuSans-55" x="272.216797"/>
      <use xlink:href="#DejaVuSans-29" x="345.410156"/>
     </g>
    </g>
    <g id="patch_42">
     <path d="M 682.380375 221.386125 
L 815.184375 221.386125 
L 815.184375 202.786125 
L 682.380375 202.786125 
z
" style="fill: #ffffff; stroke: #e1e0d9; stroke-linejoin: miter"/>
    </g>
    <g id="text_41">
     <!-- 4 (GPU) -->
     <g style="fill: #0b0b0b" transform="translate(729.562063 214.8455) scale(0.1 -0.1)">
      <use xlink:href="#DejaVuSans-34"/>
      <use xlink:href="#DejaVuSans-20" x="63.623047"/>
      <use xlink:href="#DejaVuSans-28" x="95.410156"/>
      <use xlink:href="#DejaVuSans-47" x="134.423828"/>
      <use xlink:href="#DejaVuSans-50" x="211.914062"/>
      <use xlink:href="#DejaVuSans-55" x="272.216797"/>
      <use xlink:href="#DejaVuSans-29" x="345.410156"/>
     </g>
    </g>
   </g>
   <g id="text_42">
    <!-- Same program at every scale — one YAML per column is the ENTIRE diff -->
    <g style="fill: #0b0b0b" transform="translate(266.25375 16.318125) scale(0.12 -0.12)">
     <defs>
      <path id="DejaVuSans-53" d="M 3425 4513 
L 3425 3897 
Q 3066 4069 2747 4153 
Q 2428 4238 2131 4238 
Q 1616 4238 1336 4038 
Q 1056 3838 1056 3469 
Q 1056 3159 1242 3001 
Q 1428 2844 1947 2747 
L 2328 2669 
Q 3034 2534 3370 2195 
Q 3706 1856 3706 1288 
Q 3706 609 3251 259 
Q 2797 -91 1919 -91 
Q 1588 -91 1214 -16 
Q 841 59 441 206 
L 441 856 
Q 825 641 1194 531 
Q 1563 422 1919 422 
Q 2459 422 2753 634 
Q 3047 847 3047 1241 
Q 3047 1584 2836 1778 
Q 2625 1972 2144 2069 
L 1759 2144 
Q 1053 2284 737 2584 
Q 422 2884 422 3419 
Q 422 4038 858 4394 
Q 1294 4750 2059 4750 
Q 2388 4750 2728 4690 
Q 3069 4631 3425 4513 
z
" transform="scale(0.015625)"/>
      <path id="DejaVuSans-67" d="M 2906 1791 
Q 2906 2416 2648 2759 
Q 2391 3103 1925 3103 
Q 1463 3103 1205 2759 
Q 947 2416 947 1791 
Q 947 1169 1205 825 
Q 1463 481 1925 481 
Q 2391 481 2648 825 
Q 2906 1169 2906 1791 
z
M 3481 434 
Q 3481 -459 3084 -895 
Q 2688 -1331 1869 -1331 
Q 1566 -1331 1297 -1286 
Q 1028 -1241 775 -1147 
L 775 -588 
Q 1028 -725 1275 -790 
Q 1522 -856 1778 -856 
Q 2344 -856 2625 -561 
Q 2906 -266 2906 331 
L 2906 616 
Q 2728 306 2450 153 
Q 2172 0 1784 0 
Q 1141 0 747 490 
Q 353 981 353 1791 
Q 353 2603 747 3093 
Q 1141 3584 1784 3584 
Q 2172 3584 2450 3431 
Q 2728 3278 2906 2969 
L 2906 3500 
L 3481 3500 
L 3481 434 
z
" transform="scale(0.015625)"/>
      <path id="DejaVuSans-2014" d="M 313 1978 
L 6088 1978 
L 6088 1528 
L 313 1528 
L 313 1978 
z
" transform="scale(0.015625)"/>
      <path id="DejaVuSans-59" d="M -13 4666 
L 666 4666 
L 1959 2747 
L 3244 4666 
L 3922 4666 
L 2272 2222 
L 2272 0 
L 1638 0 
L 1638 2222 
L -13 4666 
z
" transform="scale(0.015625)"/>
      <path id="DejaVuSans-41" d="M 2188 4044 
L 1331 1722 
L 3047 1722 
L 2188 4044 
z
M 1831 4666 
L 2547 4666 
L 4325 0 
L 3669 0 
L 3244 1197 
L 1141 1197 
L 716 0 
L 50 0 
L 1831 4666 
z
" transform="scale(0.015625)"/>
      <path id="DejaVuSans-4d" d="M 628 4666 
L 1569 4666 
L 2759 1491 
L 3956 4666 
L 4897 4666 
L 4897 0 
L 4281 0 
L 4281 4097 
L 3078 897 
L 2444 897 
L 1241 4097 
L 1241 0 
L 628 0 
L 628 4666 
z
" transform="scale(0.015625)"/>
      <path id="DejaVuSans-4c" d="M 628 4666 
L 1259 4666 
L 1259 531 
L 3531 531 
L 3531 0 
L 628 0 
L 628 4666 
z
" transform="scale(0.015625)"/>
      <path id="DejaVuSans-45" d="M 628 4666 
L 3578 4666 
L 3578 4134 
L 1259 4134 
L 1259 2753 
L 3481 2753 
L 3481 2222 
L 1259 2222 
L 1259 531 
L 3634 531 
L 3634 0 
L 628 0 
L 628 4666 
z
" transform="scale(0.015625)"/>
      <path id="DejaVuSans-4e" d="M 628 4666 
L 1478 4666 
L 3547 763 
L 3547 4666 
L 4159 4666 
L 4159 0 
L 3309 0 
L 1241 3903 
L 1241 0 
L 628 0 
L 628 4666 
z
" transform="scale(0.015625)"/>
      <path id="DejaVuSans-54" d="M -19 4666 
L 3928 4666 
L 3928 4134 
L 2272 4134 
L 2272 0 
L 1638 0 
L 1638 4134 
L -19 4134 
L -19 4666 
z
" transform="scale(0.015625)"/>
      <path id="DejaVuSans-49" d="M 628 4666 
L 1259 4666 
L 1259 0 
L 628 0 
L 628 4666 
z
" transform="scale(0.015625)"/>
      <path id="DejaVuSans-52" d="M 2841 2188 
Q 3044 2119 3236 1894 
Q 3428 1669 3622 1275 
L 4263 0 
L 3584 0 
L 2988 1197 
Q 2756 1666 2539 1819 
Q 2322 1972 1947 1972 
L 1259 1972 
L 1259 0 
L 628 0 
L 628 4666 
L 2053 4666 
Q 2853 4666 3247 4331 
Q 3641 3997 3641 3322 
Q 3641 2881 3436 2590 
Q 3231 2300 2841 2188 
z
M 1259 4147 
L 1259 2491 
L 2053 2491 
Q 2509 2491 2742 2702 
Q 2975 2913 2975 3322 
Q 2975 3731 2742 3939 
Q 2509 4147 2053 4147 
L 1259 4147 
z
" transform="scale(0.015625)"/>
     </defs>
     <use xlink:href="#DejaVuSans-53"/>
     <use xlink:href="#DejaVuSans-61" x="63.476562"/>
     <use xlink:href="#DejaVuSans-6d" x="124.755859"/>
     <use xlink:href="#DejaVuSans-65" x="222.167969"/>
     <use xlink:href="#DejaVuSans-20" x="283.691406"/>
     <use xlink:href="#DejaVuSans-70" x="315.478516"/>
     <use xlink:href="#DejaVuSans-72" x="378.955078"/>
     <use xlink:href="#DejaVuSans-6f" x="417.818359"/>
     <use xlink:href="#DejaVuSans-67" x="479"/>
     <use xlink:href="#DejaVuSans-72" x="542.476562"/>
     <use xlink:href="#DejaVuSans-61" x="583.589844"/>
     <use xlink:href="#DejaVuSans-6d" x="644.869141"/>
     <use xlink:href="#DejaVuSans-20" x="742.28125"/>
     <use xlink:href="#DejaVuSans-61" x="774.068359"/>
     <use xlink:href="#DejaVuSans-74" x="835.347656"/>
     <use xlink:href="#DejaVuSans-20" x="874.556641"/>
     <use xlink:href="#DejaVuSans-65" x="906.34375"/>
     <use xlink:href="#DejaVuSans-76" x="967.867188"/>
     <use xlink:href="#DejaVuSans-65" x="1027.046875"/>
     <use xlink:href="#DejaVuSans-72" x="1088.570312"/>
     <use xlink:href="#DejaVuSans-79" x="1129.683594"/>
     <use xlink:href="#DejaVuSans-20" x="1188.863281"/>
     <use xlink:href="#DejaVuSans-73" x="1220.650391"/>
     <use xlink:href="#DejaVuSans-63" x="1272.75"/>
     <use xlink:href="#DejaVuSans-61" x="1327.730469"/>
     <use xlink:href="#DejaVuSans-6c" x="1389.009766"/>
     <use xlink:href="#DejaVuSans-65" x="1416.792969"/>
     <use xlink:href="#DejaVuSans-20" x="1478.316406"/>
     <use xlink:href="#DejaVuSans-2014" x="1510.103516"/>
     <use xlink:href="#DejaVuSans-20" x="1610.103516"/>
     <use xlink:href="#DejaVuSans-6f" x="1641.890625"/>
     <use xlink:href="#DejaVuSans-6e" x="1703.072266"/>
     <use xlink:href="#DejaVuSans-65" x="1766.451172"/>
     <use xlink:href="#DejaVuSans-20" x="1827.974609"/>
     <use xlink:href="#DejaVuSans-59" x="1859.761719"/>
     <use xlink:href="#DejaVuSans-41" x="1913.095703"/>
     <use xlink:href="#DejaVuSans-4d" x="1981.503906"/>
     <use xlink:href="#DejaVuSans-4c" x="2067.783203"/>
     <use xlink:href="#DejaVuSans-20" x="2123.496094"/>
     <use xlink:href="#DejaVuSans-70" x="2155.283203"/>
     <use xlink:href="#DejaVuSans-65" x="2218.759766"/>
     <use xlink:href="#DejaVuSans-72" x="2280.283203"/>
     <use xlink:href="#DejaVuSans-20" x="2321.396484"/>
     <use xlink:href="#DejaVuSans-63" x="2353.183594"/>
     <use xlink:href="#DejaVuSans-6f" x="2408.164062"/>
     <use xlink:href="#DejaVuSans-6c" x="2469.345703"/>
     <use xlink:href="#DejaVuSans-75" x="2497.128906"/>
     <use xlink:href="#DejaVuSans-6d" x="2560.507812"/>
     <use xlink:href="#DejaVuSans-6e" x="2657.919922"/>
     <use xlink:href="#DejaVuSans-20" x="2721.298828"/>
     <use xlink:href="#DejaVuSans-69" x="2753.085938"/>
     <use xlink:href="#DejaVuSans-73" x="2780.869141"/>
     <use xlink:href="#DejaVuSans-20" x="2832.96875"/>
     <use xlink:href="#DejaVuSans-74" x="2864.755859"/>
     <use xlink:href="#DejaVuSans-68" x="2903.964844"/>
     <use xlink:href="#DejaVuSans-65" x="2967.34375"/>
     <use xlink:href="#DejaVuSans-20" x="3028.867188"/>
     <use xlink:href="#DejaVuSans-45" x="3060.654297"/>
     <use xlink:href="#DejaVuSans-4e" x="3123.837891"/>
     <use xlink:href="#DejaVuSans-54" x="3198.642578"/>
     <use xlink:href="#DejaVuSans-49" x="3259.726562"/>
     <use xlink:href="#DejaVuSans-52" x="3289.21875"/>
     <use xlink:href="#DejaVuSans-45" x="3358.701172"/>
     <use xlink:href="#DejaVuSans-20" x="3421.884766"/>
     <use xlink:href="#DejaVuSans-64" x="3453.671875"/>
     <use xlink:href="#DejaVuSans-69" x="3517.148438"/>
     <use xlink:href="#DejaVuSans-66" x="3544.931641"/>
     <use xlink:href="#DejaVuSans-66" x="3580.136719"/>
    </g>
   </g>
  </g>
 </g>
</svg>
