<svg class="main-svg" xmlns="http://www.w3.org/2000/svg" xmlns:xlink="http://www.w3.org/1999/xlink" width="1050" height="480" style="" viewBox="0 0 1050 480"><rect x="0" y="0" width="1050" height="480" style="fill: rgb(255, 255, 255); fill-opacity: 1;"/><defs id="defs-d935b3"><g class="clips"><clipPath id="clipd935b3xyplot" class="plotclip"><rect width="940" height="300"/></clipPath><clipPath class="axesclip" id="clipd935b3x"><rect x="70" y="0" width="940" height="480"/></clipPath><clipPath class="axesclip" id="clipd935b3y"><rect x="0" y="110" width="1050" height="300"/></clipPath><clipPath class="axesclip" id="clipd935b3xy"><rect x="70" y="110" width="940" height="300"/></clipPath></g><g class="gradients"/><g class="patterns"/></defs><g class="bglayer"/><g class="layer-below"><g class="imagelayer"/><g class="shapelayer"/></g><g class="cartesianlayer"><g class="subplot xy"><g class="layer-subplot"><g class="shapelayer"/><g class="imagelayer"/></g><g class="minor-gridlayer"><g class="x"/><g class="y"/></g><g class="gridlayer"><g class="x"><path class="xgrid crisp" transform="translate(122,0)" d="M0,110v300" style="stroke: rgb(230, 224, 218); stroke-opacity: 1; stroke-width: 1px;"/><path class="xgrid crisp" transform="translate(289.2,0)" d="M0,110v300" style="stroke: rgb(230, 224, 218); stroke-opacity: 1; stroke-width: 1px;"/><path class="xgrid crisp" transform="translate(456.4,0)" d="M0,110v300" style="stroke: rgb(230, 224, 218); stroke-opacity: 1; stroke-width: 1px;"/><path class="xgrid crisp" transform="translate(623.6,0)" d="M0,110v300" style="stroke: rgb(230, 224, 218); stroke-opacity: 1; stroke-width: 1px;"/><path class="xgrid crisp" transform="translate(790.8,0)" d="M0,110v300" style="stroke: rgb(230, 224, 218); stroke-opacity: 1; stroke-width: 1px;"/><path class="xgrid crisp" transform="translate(958,0)" d="M0,110v300" style="stroke: rgb(230, 224, 218); stroke-opacity: 1; stroke-width: 1px;"/></g><g class="y"><path class="ygrid crisp" transform="translate(0,392.69)" d="M70,0h940" style="stroke: rgb(230, 224, 218); stroke-opacity: 1; stroke-width: 1px;"/><path class="ygrid crisp" transform="translate(0,277.31)" d="M70,0h940" style="stroke: rgb(230, 224, 218); stroke-opacity: 1; stroke-width: 1px;"/><path class="ygrid crisp" transform="translate(0,161.92000000000002)" d="M70,0h940" style="stroke: rgb(230, 224, 218); stroke-opacity: 1; stroke-width: 1px;"/></g></g><g class="zerolinelayer"/><g class="layer-between"><g class="shapelayer"/><g class="imagelayer"/></g><path class="xlines-below"/><path class="ylines-below"/><g class="overlines-below"/><g class="xaxislayer-below"/><g class="yaxislayer-below"/><g class="overaxes-below"/><g class="overplot"><g class="xy" transform="translate(70,110)"><g class="scatterlayer mlayer"><g class="trace scatter traceaa2a60" style="stroke-miterlimit: 2; opacity: 1;"><g class="fills" clip-path="url(#clipd935b3xyplot)"/><g class="errorbars"/><g class="lines"><path class="js-line" d="M52,282.69H135.6V282.69H219.2H302.8V167.31H386.4H470V51.92H553.6H637.2V282.69H720.8H804.4V253.85H888" clip-path="url(#clipd935b3xyplot)" style="vector-effect: none; fill: none; stroke: rgb(0, 102, 255); stroke-opacity: 1; stroke-width: 2.4px; opacity: 1;"/></g><g class="points"><path class="point" transform="translate(52,282.69)" d="M4,0A4,4 0 1,1 0,-4A4,4 0 0,1 4,0Z" style="opacity: 1; stroke-width: 0px; fill: rgb(0, 102, 255); fill-opacity: 1;"/><path class="point" transform="translate(219.2,282.69)" d="M4,0A4,4 0 1,1 0,-4A4,4 0 0,1 4,0Z" style="opacity: 1; stroke-width: 0px; fill: rgb(0, 102, 255); fill-opacity: 1;"/><path class="point" transform="translate(386.4,167.31)" d="M4,0A4,4 0 1,1 0,-4A4,4 0 0,1 4,0Z" style="opacity: 1; stroke-width: 0px; fill: rgb(0, 102, 255); fill-opacity: 1;"/><path class="point" transform="translate(553.6,51.92)" d="M4,0A4,4 0 1,1 0,-4A4,4 0 0,1 4,0Z" style="opacity: 1; stroke-width: 0px; fill: rgb(0, 102, 255); fill-opacity: 1;"/><path class="point" transform="translate(720.8,282.69)" d="M4,0A4,4 0 1,1 0,-4A4,4 0 0,1 4,0Z" style="opacity: 1; stroke-width: 0px; fill: rgb(0, 102, 255); fill-opacity: 1;"/><path class="point" transform="translate(888,253.85)" d="M4,0A4,4 0 1,1 0,-4A4,4 0 0,1 4,0Z" style="opacity: 1; stroke-width: 0px; fill: rgb(0, 102, 255); fill-opacity: 1;"/></g><g class="text"><g class="textpoint" transform="translate(0,-9.25)"><text x="52" y="282.69" text-anchor="middle" style="font-family: Archivo, Inter, Helvetica, Arial; font-size: 13px; fill: rgb(0, 102, 255); fill-opacity: 1; white-space: pre;">0</text></g><g class="textpoint" transform="translate(0,-9.25)"><text x="219.2" y="282.69" text-anchor="middle" style="font-family: Archivo, Inter, Helvetica, Arial; font-size: 13px; fill: rgb(0, 102, 255); fill-opacity: 1; white-space: pre;">0</text></g><g class="textpoint" transform="translate(0,-9.25)"><text x="386.4" y="167.31" text-anchor="middle" style="font-family: Archivo, Inter, Helvetica, Arial; font-size: 13px; fill: rgb(0, 102, 255); fill-opacity: 1; white-space: pre;">4</text></g><g class="textpoint" transform="translate(0,-9.25)"><text x="553.6" y="51.92" text-anchor="middle" style="font-family: Archivo, Inter, Helvetica, Arial; font-size: 13px; fill: rgb(0, 102, 255); fill-opacity: 1; white-space: pre;">8</text></g><g class="textpoint" transform="translate(0,-9.25)"><text x="720.8" y="282.69" text-anchor="middle" style="font-family: Archivo, Inter, Helvetica, Arial; font-size: 13px; fill: rgb(0, 102, 255); fill-opacity: 1; white-space: pre;">0</text></g><g class="textpoint" transform="translate(0,-9.25)"><text x="888" y="253.85" text-anchor="middle" style="font-family: Archivo, Inter, Helvetica, Arial; font-size: 13px; fill: rgb(0, 102, 255); fill-opacity: 1; white-space: pre;">1</text></g></g></g><g class="trace scatter tracec7adfe" style="stroke-miterlimit: 2; opacity: 1;"><g class="fills" clip-path="url(#clipd935b3xyplot)"/><g class="errorbars"/><g class="lines"><path class="js-line" d="M52,167.31H135.6V167.31H219.2H302.8V282.69H386.4H470V167.31H553.6H637.2V282.69H720.8H804.4V282.69H888" clip-path="url(#clipd935b3xyplot)" style="vector-effect: none; fill: none; stroke: rgb(82, 81, 78); stroke-opacity: 1; stroke-dasharray: 3px, 3px; stroke-width: 2.4px; opacity: 1;"/></g><g class="points"><path class="point" transform="translate(52,167.31)" d="M4,0A4,4 0 1,1 0,-4A4,4 0 0,1 4,0Z" style="opacity: 1; stroke-width: 0px; fill: rgb(82, 81, 78); fill-opacity: 1;"/><path class="point" transform="translate(219.2,167.31)" d="M4,0A4,4 0 1,1 0,-4A4,4 0 0,1 4,0Z" style="opacity: 1; stroke-width: 0px; fill: rgb(82, 81, 78); fill-opacity: 1;"/><path class="point" transform="translate(386.4,282.69)" d="M4,0A4,4 0 1,1 0,-4A4,4 0 0,1 4,0Z" style="opacity: 1; stroke-width: 0px; fill: rgb(82, 81, 78); fill-opacity: 1;"/><path class="point" transform="translate(553.6,167.31)" d="M4,0A4,4 0 1,1 0,-4A4,4 0 0,1 4,0Z" style="opacity: 1; stroke-width: 0px; fill: rgb(82, 81, 78); fill-opacity: 1;"/><path class="point" transform="translate(720.8,282.69)" d="M4,0A4,4 0 1,1 0,-4A4,4 0 0,1 4,0Z" style="opacity: 1; stroke-width: 0px; fill: rgb(82, 81, 78); fill-opacity: 1;"/><path class="point" transform="translate(888,282.69)" d="M4,0A4,4 0 1,1 0,-4A4,4 0 0,1 4,0Z" style="opacity: 1; stroke-width: 0px; fill: rgb(82, 81, 78); fill-opacity: 1;"/></g><g class="text"><g class="textpoint" transform="translate(0,-9.25)"><text x="52" y="167.31" text-anchor="middle" style="font-family: Archivo, Inter, Helvetica, Arial; font-size: 13px; fill: rgb(82, 81, 78); fill-opacity: 1; white-space: pre;">4</text></g><g class="textpoint" transform="translate(0,-9.25)"><text x="219.2" y="167.31" text-anchor="middle" style="font-family: Archivo, Inter, Helvetica, Arial; font-size: 13px; fill: rgb(82, 81, 78); fill-opacity: 1; white-space: pre;">4</text></g><g class="textpoint" transform="translate(0,-9.25)"><text x="386.4" y="282.69" text-anchor="middle" style="font-family: Archivo, Inter, Helvetica, Arial; font-size: 13px; fill: rgb(82, 81, 78); fill-opacity: 1; white-space: pre;">0</text></g><g class="textpoint" transform="translate(0,-9.25)"><text x="553.6" y="167.31" text-anchor="middle" style="font-family: Archivo, Inter, Helvetica, Arial; font-size: 13px; fill: rgb(82, 81, 78); fill-opacity: 1; white-space: pre;">4</text></g><g class="textpoint" transform="translate(0,-9.25)"><text x="720.8" y="282.69" text-anchor="middle" style="font-family: Archivo, Inter, Helvetica, Arial; font-size: 13px; fill: rgb(82, 81, 78); fill-opacity: 1; white-space: pre;">0</text></g><g class="textpoint" transform="translate(0,-9.25)"><text x="888" y="282.69" text-anchor="middle" style="font-family: Archivo, Inter, Helvetica, Arial; font-size: 13px; fill: rgb(82, 81, 78); fill-opacity: 1; white-space: pre;">0</text></g></g></g></g></g></g><g class="zerolinelayer-above"/><path class="xlines-above crisp" d="M0,0" style="fill: none;"/><path class="ylines-above crisp" d="M0,0" style="fill: none;"/><g class="overlines-above"/><g class="xaxislayer-above"><g class="xtick"><text text-anchor="middle" x="0" y="424" transform="translate(122,0)" style="font-family: Archivo, Inter, Helvetica, Arial; font-size: 13px; fill: rgb(82, 81, 78); fill-opacity: 1; white-space: pre;">data + vocab</text></g><g class="xtick"><text text-anchor="middle" x="0" y="424" transform="translate(289.2,0)" style="font-family: Archivo, Inter, Helvetica, Arial; font-size: 13px; fill: rgb(82, 81, 78); fill-opacity: 1; white-space: pre;">tokenize</text></g><g class="xtick"><text text-anchor="middle" x="0" y="424" transform="translate(456.4,0)" style="font-family: Archivo, Inter, Helvetica, Arial; font-size: 13px; fill: rgb(82, 81, 78); fill-opacity: 1; white-space: pre;">pretrain</text></g><g class="xtick"><text text-anchor="middle" x="0" y="424" transform="translate(623.6,0)" style="font-family: Archivo, Inter, Helvetica, Arial; font-size: 13px; fill: rgb(82, 81, 78); fill-opacity: 1; white-space: pre;">embed</text></g><g class="xtick"><text text-anchor="middle" x="0" y="424" transform="translate(790.8,0)" style="font-family: Archivo, Inter, Helvetica, Arial; font-size: 13px; fill: rgb(82, 81, 78); fill-opacity: 1; white-space: pre;">XGBoost + reco</text></g><g class="xtick"><text text-anchor="middle" x="0" y="424" transform="translate(958,0)" style="font-family: Archivo, Inter, Helvetica, Arial; font-size: 13px; fill: rgb(82, 81, 78); fill-opacity: 1; white-space: pre;">serve</text></g></g><g class="yaxislayer-above"><g class="ytick"><text text-anchor="end" x="69" y="4.55" transform="translate(0,392.69)" style="font-family: Archivo, Inter, Helvetica, Arial; font-size: 13px; fill: rgb(82, 81, 78); fill-opacity: 1; white-space: pre;">0</text></g><g class="ytick"><text text-anchor="end" x="69" y="4.55" style="font-family: Archivo, Inter, Helvetica, Arial; font-size: 13px; fill: rgb(82, 81, 78); fill-opacity: 1; white-space: pre;" transform="translate(0,277.31)">4</text></g><g class="ytick"><text text-anchor="end" x="69" y="4.55" style="font-family: Archivo, Inter, Helvetica, Arial; font-size: 13px; fill: rgb(82, 81, 78); fill-opacity: 1; white-space: pre;" transform="translate(0,161.92000000000002)">8</text></g></g><g class="overaxes-above"/></g></g><g class="polarlayer"/><g class="smithlayer"/><g class="ternarylayer"/><g class="geolayer"/><g class="funnelarealayer"/><g class="pielayer"/><g class="iciclelayer"/><g class="treemaplayer"/><g class="sunburstlayer"/><g class="glimages"/><defs id="topdefs-d935b3"><g class="clips"/><clipPath id="legendd935b3"><rect width="376" height="30" x="0" y="0"/></clipPath></defs><g class="layer-above"><g class="imagelayer"/><g class="shapelayer"/></g><g class="infolayer"><g class="legend" pointer-events="all" transform="translate(634,80)"><rect class="bg" shape-rendering="crispEdges" style="stroke: rgb(68, 68, 68); stroke-opacity: 1; fill: rgb(255, 255, 255); fill-opacity: 1; stroke-width: 0px;" width="376" height="30" x="0" y="0"/><g class="scrollbox" transform="" clip-path="url(#legendd935b3)"><g class="groups"><g class="traces" transform="translate(0,14.950000000000001)" style="opacity: 1;"><text class="legendtext" text-anchor="start" x="40" y="5.07" style="font-family: Archivo, Inter, Helvetica, Arial; font-size: 13px; fill: rgb(82, 81, 78); fill-opacity: 1; white-space: pre;">A10G GPUs held</text><g class="layers" style="opacity: 1;"><g class="legendfill"/><g class="legendlines"><path class="js-line" d="M5,0h30" style="fill: none; stroke: rgb(0, 102, 255); stroke-opacity: 1; stroke-width: 2.4px;"/></g><g class="legendsymbols"><g class="legendpoints"><path class="scatterpts" transform="translate(20,0)" d="M4,0A4,4 0 1,1 0,-4A4,4 0 0,1 4,0Z" style="opacity: 1; stroke-width: 0px; fill: rgb(0, 102, 255); fill-opacity: 1;"/></g></g></g><rect class="legendtoggle" x="0" y="-9.950000000000001" width="142.21875" height="19.900000000000002" style="fill: rgb(0, 0, 0); fill-opacity: 0;"/></g><g class="traces" transform="translate(144.71875,14.950000000000001)" style="opacity: 1;"><text class="legendtext" text-anchor="start" x="40" y="5.07" style="font-family: Archivo, Inter, Helvetica, Arial; font-size: 13px; fill: rgb(82, 81, 78); fill-opacity: 1; white-space: pre;">CPU worker nodes (m5.4xlarge)</text><g class="layers" style="opacity: 1;"><g class="legendfill"/><g class="legendlines"><path class="js-line" d="M5,0h30" style="fill: none; stroke: rgb(82, 81, 78); stroke-opacity: 1; stroke-dasharray: 3px, 3px; stroke-width: 2.4px;"/></g><g class="legendsymbols"><g class="legendpoints"><path class="scatterpts" transform="translate(20,0)" d="M4,0A4,4 0 1,1 0,-4A4,4 0 0,1 4,0Z" style="opacity: 1; stroke-width: 0px; fill: rgb(82, 81, 78); fill-opacity: 1;"/></g></g></g><rect class="legendtoggle" x="0" y="-9.950000000000001" width="228.1875" height="19.900000000000002" style="fill: rgb(0, 0, 0); fill-opacity: 0;"/></g></g></g><rect class="scrollbar" rx="20" ry="3" width="0" height="0" style="fill: rgb(128, 139, 164); fill-opacity: 1;" x="0" y="0"/></g><g class="g-gtitle"><text class="gtitle" x="21" y="55" text-anchor="start" dy="0em" style="opacity: 1; font-family: Archivo, Inter, Helvetica, Arial; font-size: 17px; fill: rgb(0, 0, 0); fill-opacity: 1; white-space: pre;"><tspan class="line" dy="0em" x="21" y="55">The cluster reshapes itself per stage — CPU fleet for data, GPU fleet for</tspan><tspan class="line" dy="1.3em" x="21" y="55">training and inference; min_nodes: 0 scales both to zero</tspan></text></g><g class="g-xtitle"/><g class="g-ytitle"><text class="ytitle" transform="rotate(-90,28,260)" x="28" y="260" text-anchor="middle" style="opacity: 1; font-family: Archivo, Inter, Helvetica, Arial; font-size: 16px; fill: rgb(82, 81, 78); fill-opacity: 1; white-space: pre;">nodes held</text></g></g></svg>