<?xml version="1.0" encoding="utf-8" standalone="no"?>
<!DOCTYPE svg PUBLIC "-//W3C//DTD SVG 1.1//EN"
  "http://www.w3.org/Graphics/SVG/1.1/DTD/svg11.dtd">
<svg xmlns:xlink="http://www.w3.org/1999/xlink" width="600.7275pt" height="270.642344pt" viewBox="0 0 600.7275 270.642344" xmlns="http://www.w3.org/2000/svg" version="1.1">
 <metadata>
  <rdf:RDF xmlns:dc="http://purl.org/dc/elements/1.1/" xmlns:cc="http://creativecommons.org/ns#" xmlns:rdf="http://www.w3.org/1999/02/22-rdf-syntax-ns#">
   <cc:Work>
    <dc:type rdf:resource="http://purl.org/dc/dcmitype/StillImage"/>
    <dc:date>2026-07-14T08:44:32.557757</dc:date>
    <dc:format>image/svg+xml</dc:format>
    <dc:creator>
     <cc:Agent>
      <dc:title>Matplotlib v3.7.4, https://matplotlib.org/</dc:title>
     </cc:Agent>
    </dc:creator>
   </cc:Work>
  </rdf:RDF>
 </metadata>
 <defs>
  <style type="text/css">*{stroke-linejoin: round; stroke-linecap: butt}</style>
 </defs>
 <g id="figure_1">
  <g id="patch_1">
   <path d="M 0 270.642344 
L 600.7275 270.642344 
L 600.7275 0 
L 0 0 
z
" style="fill: #fcfcfb"/>
  </g>
  <g id="axes_1">
   <g id="patch_2">
    <path d="M 49.26375 236.610203 
L 551.46375 236.610203 
L 551.46375 25.938203 
L 49.26375 25.938203 
z
" style="fill: #fcfcfb"/>
   </g>
   <g id="matplotlib.axis_1">
    <g id="xtick_1">
     <g id="line2d_1">
      <path d="M 91.11375 236.610203 
L 91.11375 25.938203 
" clip-path="url(#p5a93753b1b)" style="fill: none; stroke: #e1e0d9; stroke-width: 0.6; stroke-linecap: square"/>
     </g>
     <g id="line2d_2">
      <defs>
       <path id="m6e47890cda" d="M 0 0 
L 0 3.5 
" style="stroke: #52514e; stroke-width: 0.8"/>
      </defs>
      <g>
       <use xlink:href="#m6e47890cda" x="91.11375" y="236.610203" style="fill: #52514e; stroke: #52514e; stroke-width: 0.8"/>
      </g>
     </g>
     <g id="text_1">
      <!-- data + -->
      <g style="fill: #52514e" transform="translate(74.924414 250.828719) scale(0.095 -0.095)">
       <defs>
        <path id="DejaVuSans-64" d="M 2906 2969 
L 2906 4863 
L 3481 4863 
L 3481 0 
L 2906 0 
L 2906 525 
Q 2725 213 2448 61 
Q 2172 -91 1784 -91 
Q 1150 -91 751 415 
Q 353 922 353 1747 
Q 353 2572 751 3078 
Q 1150 3584 1784 3584 
Q 2172 3584 2448 3432 
Q 2725 3281 2906 2969 
z
M 947 1747 
Q 947 1113 1208 752 
Q 1469 391 1925 391 
Q 2381 391 2643 752 
Q 2906 1113 2906 1747 
Q 2906 2381 2643 2742 
Q 2381 3103 1925 3103 
Q 1469 3103 1208 2742 
Q 947 2381 947 1747 
z
" transform="scale(0.015625)"/>
        <path id="DejaVuSans-61" d="M 2194 1759 
Q 1497 1759 1228 1600 
Q 959 1441 959 1056 
Q 959 750 1161 570 
Q 1363 391 1709 391 
Q 2188 391 2477 730 
Q 2766 1069 2766 1631 
L 2766 1759 
L 2194 1759 
z
M 3341 1997 
L 3341 0 
L 2766 0 
L 2766 531 
Q 2569 213 2275 61 
Q 1981 -91 1556 -91 
Q 1019 -91 701 211 
Q 384 513 384 1019 
Q 384 1609 779 1909 
Q 1175 2209 1959 2209 
L 2766 2209 
L 2766 2266 
Q 2766 2663 2505 2880 
Q 2244 3097 1772 3097 
Q 1472 3097 1187 3025 
Q 903 2953 641 2809 
L 641 3341 
Q 956 3463 1253 3523 
Q 1550 3584 1831 3584 
Q 2591 3584 2966 3190 
Q 3341 2797 3341 1997 
z
" transform="scale(0.015625)"/>
        <path id="DejaVuSans-74" d="M 1172 4494 
L 1172 3500 
L 2356 3500 
L 2356 3053 
L 1172 3053 
L 1172 1153 
Q 1172 725 1289 603 
Q 1406 481 1766 481 
L 2356 481 
L 2356 0 
L 1766 0 
Q 1100 0 847 248 
Q 594 497 594 1153 
L 594 3053 
L 172 3053 
L 172 3500 
L 594 3500 
L 594 4494 
L 1172 4494 
z
" transform="scale(0.015625)"/>
        <path id="DejaVuSans-20" transform="scale(0.015625)"/>
        <path id="DejaVuSans-2b" d="M 2944 4013 
L 2944 2272 
L 4684 2272 
L 4684 1741 
L 2944 1741 
L 2944 0 
L 2419 0 
L 2419 1741 
L 678 1741 
L 678 2272 
L 2419 2272 
L 2419 4013 
L 2944 4013 
z
" transform="scale(0.015625)"/>
       </defs>
       <use xlink:href="#DejaVuSans-64"/>
       <use xlink:href="#DejaVuSans-61" x="63.476562"/>
       <use xlink:href="#DejaVuSans-74" x="124.755859"/>
       <use xlink:href="#DejaVuSans-61" x="163.964844"/>
       <use xlink:href="#DejaVuSans-20" x="225.244141"/>
       <use xlink:href="#DejaVuSans-2b" x="257.03125"/>
      </g>
      <!-- vocab -->
      <g style="fill: #52514e" transform="translate(76.857812 261.466641) scale(0.095 -0.095)">
       <defs>
        <path id="DejaVuSans-76" d="M 191 3500 
L 800 3500 
L 1894 563 
L 2988 3500 
L 3597 3500 
L 2284 0 
L 1503 0 
L 191 3500 
z
" transform="scale(0.015625)"/>
        <path id="DejaVuSans-6f" d="M 1959 3097 
Q 1497 3097 1228 2736 
Q 959 2375 959 1747 
Q 959 1119 1226 758 
Q 1494 397 1959 397 
Q 2419 397 2687 759 
Q 2956 1122 2956 1747 
Q 2956 2369 2687 2733 
Q 2419 3097 1959 3097 
z
M 1959 3584 
Q 2709 3584 3137 3096 
Q 3566 2609 3566 1747 
Q 3566 888 3137 398 
Q 2709 -91 1959 -91 
Q 1206 -91 779 398 
Q 353 888 353 1747 
Q 353 2609 779 3096 
Q 1206 3584 1959 3584 
z
" transform="scale(0.015625)"/>
        <path id="DejaVuSans-63" d="M 3122 3366 
L 3122 2828 
Q 2878 2963 2633 3030 
Q 2388 3097 2138 3097 
Q 1578 3097 1268 2742 
Q 959 2388 959 1747 
Q 959 1106 1268 751 
Q 1578 397 2138 397 
Q 2388 397 2633 464 
Q 2878 531 3122 666 
L 3122 134 
Q 2881 22 2623 -34 
Q 2366 -91 2075 -91 
Q 1284 -91 818 406 
Q 353 903 353 1747 
Q 353 2603 823 3093 
Q 1294 3584 2113 3584 
Q 2378 3584 2631 3529 
Q 2884 3475 3122 3366 
z
" transform="scale(0.015625)"/>
        <path id="DejaVuSans-62" d="M 3116 1747 
Q 3116 2381 2855 2742 
Q 2594 3103 2138 3103 
Q 1681 3103 1420 2742 
Q 1159 2381 1159 1747 
Q 1159 1113 1420 752 
Q 1681 391 2138 391 
Q 2594 391 2855 752 
Q 3116 1113 3116 1747 
z
M 1159 2969 
Q 1341 3281 1617 3432 
Q 1894 3584 2278 3584 
Q 2916 3584 3314 3078 
Q 3713 2572 3713 1747 
Q 3713 922 3314 415 
Q 2916 -91 2278 -91 
Q 1894 -91 1617 61 
Q 1341 213 1159 525 
L 1159 0 
L 581 0 
L 581 4863 
L 1159 4863 
L 1159 2969 
z
" transform="scale(0.015625)"/>
       </defs>
       <use xlink:href="#DejaVuSans-76"/>
       <use xlink:href="#DejaVuSans-6f" x="59.179688"/>
       <use xlink:href="#DejaVuSans-63" x="120.361328"/>
       <use xlink:href="#DejaVuSans-61" x="175.341797"/>
       <use xlink:href="#DejaVuSans-62" x="236.621094"/>
      </g>
     </g>
    </g>
    <g id="xtick_2">
     <g id="line2d_3">
      <path d="M 174.81375 236.610203 
L 174.81375 25.938203 
" clip-path="url(#p5a93753b1b)" style="fill: none; stroke: #e1e0d9; stroke-width: 0.6; stroke-linecap: square"/>
     </g>
     <g id="line2d_4">
      <g>
       <use xlink:href="#m6e47890cda" x="174.81375" y="236.610203" style="fill: #52514e; stroke: #52514e; stroke-width: 0.8"/>
      </g>
     </g>
     <g id="text_2">
      <!-- tokenize -->
      <g style="fill: #52514e" transform="translate(154.798437 250.828719) scale(0.095 -0.095)">
       <defs>
        <path id="DejaVuSans-6b" d="M 581 4863 
L 1159 4863 
L 1159 1991 
L 2875 3500 
L 3609 3500 
L 1753 1863 
L 3688 0 
L 2938 0 
L 1159 1709 
L 1159 0 
L 581 0 
L 581 4863 
z
" transform="scale(0.015625)"/>
        <path id="DejaVuSans-65" d="M 3597 1894 
L 3597 1613 
L 953 1613 
Q 991 1019 1311 708 
Q 1631 397 2203 397 
Q 2534 397 2845 478 
Q 3156 559 3463 722 
L 3463 178 
Q 3153 47 2828 -22 
Q 2503 -91 2169 -91 
Q 1331 -91 842 396 
Q 353 884 353 1716 
Q 353 2575 817 3079 
Q 1281 3584 2069 3584 
Q 2775 3584 3186 3129 
Q 3597 2675 3597 1894 
z
M 3022 2063 
Q 3016 2534 2758 2815 
Q 2500 3097 2075 3097 
Q 1594 3097 1305 2825 
Q 1016 2553 972 2059 
L 3022 2063 
z
" transform="scale(0.015625)"/>
        <path id="DejaVuSans-6e" d="M 3513 2113 
L 3513 0 
L 2938 0 
L 2938 2094 
Q 2938 2591 2744 2837 
Q 2550 3084 2163 3084 
Q 1697 3084 1428 2787 
Q 1159 2491 1159 1978 
L 1159 0 
L 581 0 
L 581 3500 
L 1159 3500 
L 1159 2956 
Q 1366 3272 1645 3428 
Q 1925 3584 2291 3584 
Q 2894 3584 3203 3211 
Q 3513 2838 3513 2113 
z
" transform="scale(0.015625)"/>
        <path id="DejaVuSans-69" d="M 603 3500 
L 1178 3500 
L 1178 0 
L 603 0 
L 603 3500 
z
M 603 4863 
L 1178 4863 
L 1178 4134 
L 603 4134 
L 603 4863 
z
" transform="scale(0.015625)"/>
        <path id="DejaVuSans-7a" d="M 353 3500 
L 3084 3500 
L 3084 2975 
L 922 459 
L 3084 459 
L 3084 0 
L 275 0 
L 275 525 
L 2438 3041 
L 353 3041 
L 353 3500 
z
" transform="scale(0.015625)"/>
       </defs>
       <use xlink:href="#DejaVuSans-74"/>
       <use xlink:href="#DejaVuSans-6f" x="39.208984"/>
       <use xlink:href="#DejaVuSans-6b" x="100.390625"/>
       <use xlink:href="#DejaVuSans-65" x="154.675781"/>
       <use xlink:href="#DejaVuSans-6e" x="216.199219"/>
       <use xlink:href="#DejaVuSans-69" x="279.578125"/>
       <use xlink:href="#DejaVuSans-7a" x="307.361328"/>
       <use xlink:href="#DejaVuSans-65" x="359.851562"/>
      </g>
     </g>
    </g>
    <g id="xtick_3">
     <g id="line2d_5">
      <path d="M 258.51375 236.610203 
L 258.51375 25.938203 
" clip-path="url(#p5a93753b1b)" style="fill: none; stroke: #e1e0d9; stroke-width: 0.6; stroke-linecap: square"/>
     </g>
     <g id="line2d_6">
      <g>
       <use xlink:href="#m6e47890cda" x="258.51375" y="236.610203" style="fill: #52514e; stroke: #52514e; stroke-width: 0.8"/>
      </g>
     </g>
     <g id="text_3">
      <!-- pretrain -->
      <g style="fill: #52514e" transform="translate(239.674062 250.828719) scale(0.095 -0.095)">
       <defs>
        <path id="DejaVuSans-70" d="M 1159 525 
L 1159 -1331 
L 581 -1331 
L 581 3500 
L 1159 3500 
L 1159 2969 
Q 1341 3281 1617 3432 
Q 1894 3584 2278 3584 
Q 2916 3584 3314 3078 
Q 3713 2572 3713 1747 
Q 3713 922 3314 415 
Q 2916 -91 2278 -91 
Q 1894 -91 1617 61 
Q 1341 213 1159 525 
z
M 3116 1747 
Q 3116 2381 2855 2742 
Q 2594 3103 2138 3103 
Q 1681 3103 1420 2742 
Q 1159 2381 1159 1747 
Q 1159 1113 1420 752 
Q 1681 391 2138 391 
Q 2594 391 2855 752 
Q 3116 1113 3116 1747 
z
" transform="scale(0.015625)"/>
        <path id="DejaVuSans-72" d="M 2631 2963 
Q 2534 3019 2420 3045 
Q 2306 3072 2169 3072 
Q 1681 3072 1420 2755 
Q 1159 2438 1159 1844 
L 1159 0 
L 581 0 
L 581 3500 
L 1159 3500 
L 1159 2956 
Q 1341 3275 1631 3429 
Q 1922 3584 2338 3584 
Q 2397 3584 2469 3576 
Q 2541 3569 2628 3553 
L 2631 2963 
z
" transform="scale(0.015625)"/>
       </defs>
       <use xlink:href="#DejaVuSans-70"/>
       <use xlink:href="#DejaVuSans-72" x="63.476562"/>
       <use xlink:href="#DejaVuSans-65" x="102.339844"/>
       <use xlink:href="#DejaVuSans-74" x="163.863281"/>
       <use xlink:href="#DejaVuSans-72" x="203.072266"/>
       <use xlink:href="#DejaVuSans-61" x="244.185547"/>
       <use xlink:href="#DejaVuSans-69" x="305.464844"/>
       <use xlink:href="#DejaVuSans-6e" x="333.248047"/>
      </g>
     </g>
    </g>
    <g id="xtick_4">
     <g id="line2d_7">
      <path d="M 342.21375 236.610203 
L 342.21375 25.938203 
" clip-path="url(#p5a93753b1b)" style="fill: none; stroke: #e1e0d9; stroke-width: 0.6; stroke-linecap: square"/>
     </g>
     <g id="line2d_8">
      <g>
       <use xlink:href="#m6e47890cda" x="342.21375" y="236.610203" style="fill: #52514e; stroke: #52514e; stroke-width: 0.8"/>
      </g>
     </g>
     <g id="text_4">
      <!-- embed -->
      <g style="fill: #52514e" transform="translate(325.710469 250.828719) scale(0.095 -0.095)">
       <defs>
        <path id="DejaVuSans-6d" d="M 3328 2828 
Q 3544 3216 3844 3400 
Q 4144 3584 4550 3584 
Q 5097 3584 5394 3201 
Q 5691 2819 5691 2113 
L 5691 0 
L 5113 0 
L 5113 2094 
Q 5113 2597 4934 2840 
Q 4756 3084 4391 3084 
Q 3944 3084 3684 2787 
Q 3425 2491 3425 1978 
L 3425 0 
L 2847 0 
L 2847 2094 
Q 2847 2600 2669 2842 
Q 2491 3084 2119 3084 
Q 1678 3084 1418 2786 
Q 1159 2488 1159 1978 
L 1159 0 
L 581 0 
L 581 3500 
L 1159 3500 
L 1159 2956 
Q 1356 3278 1631 3431 
Q 1906 3584 2284 3584 
Q 2666 3584 2933 3390 
Q 3200 3197 3328 2828 
z
" transform="scale(0.015625)"/>
       </defs>
       <use xlink:href="#DejaVuSans-65"/>
       <use xlink:href="#DejaVuSans-6d" x="61.523438"/>
       <use xlink:href="#DejaVuSans-62" x="158.935547"/>
       <use xlink:href="#DejaVuSans-65" x="222.412109"/>
       <use xlink:href="#DejaVuSans-64" x="283.935547"/>
      </g>
     </g>
    </g>
    <g id="xtick_5">
     <g id="line2d_9">
      <path d="M 425.91375 236.610203 
L 425.91375 25.938203 
" clip-path="url(#p5a93753b1b)" style="fill: none; stroke: #e1e0d9; stroke-width: 0.6; stroke-linecap: square"/>
     </g>
     <g id="line2d_10">
      <g>
       <use xlink:href="#m6e47890cda" x="425.91375" y="236.610203" style="fill: #52514e; stroke: #52514e; stroke-width: 0.8"/>
      </g>
     </g>
     <g id="text_5">
      <!-- XGBoost + -->
      <g style="fill: #52514e" transform="translate(400.081172 250.828719) scale(0.095 -0.095)">
       <defs>
        <path id="DejaVuSans-58" d="M 403 4666 
L 1081 4666 
L 2241 2931 
L 3406 4666 
L 4084 4666 
L 2584 2425 
L 4184 0 
L 3506 0 
L 2194 1984 
L 872 0 
L 191 0 
L 1856 2491 
L 403 4666 
z
" transform="scale(0.015625)"/>
        <path id="DejaVuSans-47" d="M 3809 666 
L 3809 1919 
L 2778 1919 
L 2778 2438 
L 4434 2438 
L 4434 434 
Q 4069 175 3628 42 
Q 3188 -91 2688 -91 
Q 1594 -91 976 548 
Q 359 1188 359 2328 
Q 359 3472 976 4111 
Q 1594 4750 2688 4750 
Q 3144 4750 3555 4637 
Q 3966 4525 4313 4306 
L 4313 3634 
Q 3963 3931 3569 4081 
Q 3175 4231 2741 4231 
Q 1884 4231 1454 3753 
Q 1025 3275 1025 2328 
Q 1025 1384 1454 906 
Q 1884 428 2741 428 
Q 3075 428 3337 486 
Q 3600 544 3809 666 
z
" transform="scale(0.015625)"/>
        <path id="DejaVuSans-42" d="M 1259 2228 
L 1259 519 
L 2272 519 
Q 2781 519 3026 730 
Q 3272 941 3272 1375 
Q 3272 1813 3026 2020 
Q 2781 2228 2272 2228 
L 1259 2228 
z
M 1259 4147 
L 1259 2741 
L 2194 2741 
Q 2656 2741 2882 2914 
Q 3109 3088 3109 3444 
Q 3109 3797 2882 3972 
Q 2656 4147 2194 4147 
L 1259 4147 
z
M 628 4666 
L 2241 4666 
Q 2963 4666 3353 4366 
Q 3744 4066 3744 3513 
Q 3744 3084 3544 2831 
Q 3344 2578 2956 2516 
Q 3422 2416 3680 2098 
Q 3938 1781 3938 1306 
Q 3938 681 3513 340 
Q 3088 0 2303 0 
L 628 0 
L 628 4666 
z
" transform="scale(0.015625)"/>
        <path id="DejaVuSans-73" d="M 2834 3397 
L 2834 2853 
Q 2591 2978 2328 3040 
Q 2066 3103 1784 3103 
Q 1356 3103 1142 2972 
Q 928 2841 928 2578 
Q 928 2378 1081 2264 
Q 1234 2150 1697 2047 
L 1894 2003 
Q 2506 1872 2764 1633 
Q 3022 1394 3022 966 
Q 3022 478 2636 193 
Q 2250 -91 1575 -91 
Q 1294 -91 989 -36 
Q 684 19 347 128 
L 347 722 
Q 666 556 975 473 
Q 1284 391 1588 391 
Q 1994 391 2212 530 
Q 2431 669 2431 922 
Q 2431 1156 2273 1281 
Q 2116 1406 1581 1522 
L 1381 1569 
Q 847 1681 609 1914 
Q 372 2147 372 2553 
Q 372 3047 722 3315 
Q 1072 3584 1716 3584 
Q 2034 3584 2315 3537 
Q 2597 3491 2834 3397 
z
" transform="scale(0.015625)"/>
       </defs>
       <use xlink:href="#DejaVuSans-58"/>
       <use xlink:href="#DejaVuSans-47" x="68.505859"/>
       <use xlink:href="#DejaVuSans-42" x="145.996094"/>
       <use xlink:href="#DejaVuSans-6f" x="214.599609"/>
       <use xlink:href="#DejaVuSans-6f" x="275.78125"/>
       <use xlink:href="#DejaVuSans-73" x="336.962891"/>
       <use xlink:href="#DejaVuSans-74" x="389.0625"/>
       <use xlink:href="#DejaVuSans-20" x="428.271484"/>
       <use xlink:href="#DejaVuSans-2b" x="460.058594"/>
      </g>
      <!-- reco -->
      <g style="fill: #52514e" transform="translate(415.627031 261.466641) scale(0.095 -0.095)">
       <use xlink:href="#DejaVuSans-72"/>
       <use xlink:href="#DejaVuSans-65" x="38.863281"/>
       <use xlink:href="#DejaVuSans-63" x="100.386719"/>
       <use xlink:href="#DejaVuSans-6f" x="155.367188"/>
      </g>
     </g>
    </g>
    <g id="xtick_6">
     <g id="line2d_11">
      <path d="M 509.61375 236.610203 
L 509.61375 25.938203 
" clip-path="url(#p5a93753b1b)" style="fill: none; stroke: #e1e0d9; stroke-width: 0.6; stroke-linecap: square"/>
     </g>
     <g id="line2d_12">
      <g>
       <use xlink:href="#m6e47890cda" x="509.61375" y="236.610203" style="fill: #52514e; stroke: #52514e; stroke-width: 0.8"/>
      </g>
     </g>
     <g id="text_6">
      <!-- serve -->
      <g style="fill: #52514e" transform="translate(496.529727 250.828719) scale(0.095 -0.095)">
       <use xlink:href="#DejaVuSans-73"/>
       <use xlink:href="#DejaVuSans-65" x="52.099609"/>
       <use xlink:href="#DejaVuSans-72" x="113.623047"/>
       <use xlink:href="#DejaVuSans-76" x="154.736328"/>
       <use xlink:href="#DejaVuSans-65" x="213.916016"/>
      </g>
     </g>
    </g>
   </g>
   <g id="matplotlib.axis_2">
    <g id="ytick_1">
     <g id="line2d_13">
      <path d="M 49.26375 228.183323 
L 551.46375 228.183323 
" clip-path="url(#p5a93753b1b)" style="fill: none; stroke: #e1e0d9; stroke-width: 0.6; stroke-linecap: square"/>
     </g>
     <g id="line2d_14">
      <defs>
       <path id="m3e8abebde4" d="M 0 0 
L -3.5 0 
" style="stroke: #52514e; stroke-width: 0.8"/>
      </defs>
      <g>
       <use xlink:href="#m3e8abebde4" x="49.26375" y="228.183323" style="fill: #52514e; stroke: #52514e; stroke-width: 0.8"/>
      </g>
     </g>
     <g id="text_7">
      <!-- 0 -->
      <g style="fill: #52514e" transform="translate(35.583125 232.172503) scale(0.105 -0.105)">
       <defs>
        <path id="DejaVuSans-30" d="M 2034 4250 
Q 1547 4250 1301 3770 
Q 1056 3291 1056 2328 
Q 1056 1369 1301 889 
Q 1547 409 2034 409 
Q 2525 409 2770 889 
Q 3016 1369 3016 2328 
Q 3016 3291 2770 3770 
Q 2525 4250 2034 4250 
z
M 2034 4750 
Q 2819 4750 3233 4129 
Q 3647 3509 3647 2328 
Q 3647 1150 3233 529 
Q 2819 -91 2034 -91 
Q 1250 -91 836 529 
Q 422 1150 422 2328 
Q 422 3509 836 4129 
Q 1250 4750 2034 4750 
z
" transform="scale(0.015625)"/>
       </defs>
       <use xlink:href="#DejaVuSans-30"/>
      </g>
     </g>
    </g>
    <g id="ytick_2">
     <g id="line2d_15">
      <path d="M 49.26375 143.914523 
L 551.46375 143.914523 
" clip-path="url(#p5a93753b1b)" style="fill: none; stroke: #e1e0d9; stroke-width: 0.6; stroke-linecap: square"/>
     </g>
     <g id="line2d_16">
      <g>
       <use xlink:href="#m3e8abebde4" x="49.26375" y="143.914523" style="fill: #52514e; stroke: #52514e; stroke-width: 0.8"/>
      </g>
     </g>
     <g id="text_8">
      <!-- 4 -->
      <g style="fill: #52514e" transform="translate(35.583125 147.903703) scale(0.105 -0.105)">
       <defs>
        <path id="DejaVuSans-34" d="M 2419 4116 
L 825 1625 
L 2419 1625 
L 2419 4116 
z
M 2253 4666 
L 3047 4666 
L 3047 1625 
L 3713 1625 
L 3713 1100 
L 3047 1100 
L 3047 0 
L 2419 0 
L 2419 1100 
L 313 1100 
L 313 1709 
L 2253 4666 
z
" transform="scale(0.015625)"/>
       </defs>
       <use xlink:href="#DejaVuSans-34"/>
      </g>
     </g>
    </g>
    <g id="ytick_3">
     <g id="line2d_17">
      <path d="M 49.26375 59.645723 
L 551.46375 59.645723 
" clip-path="url(#p5a93753b1b)" style="fill: none; stroke: #e1e0d9; stroke-width: 0.6; stroke-linecap: square"/>
     </g>
     <g id="line2d_18">
      <g>
       <use xlink:href="#m3e8abebde4" x="49.26375" y="59.645723" style="fill: #52514e; stroke: #52514e; stroke-width: 0.8"/>
      </g>
     </g>
     <g id="text_9">
      <!-- 8 -->
      <g style="fill: #52514e" transform="translate(35.583125 63.634903) scale(0.105 -0.105)">
       <defs>
        <path id="DejaVuSans-38" d="M 2034 2216 
Q 1584 2216 1326 1975 
Q 1069 1734 1069 1313 
Q 1069 891 1326 650 
Q 1584 409 2034 409 
Q 2484 409 2743 651 
Q 3003 894 3003 1313 
Q 3003 1734 2745 1975 
Q 2488 2216 2034 2216 
z
M 1403 2484 
Q 997 2584 770 2862 
Q 544 3141 544 3541 
Q 544 4100 942 4425 
Q 1341 4750 2034 4750 
Q 2731 4750 3128 4425 
Q 3525 4100 3525 3541 
Q 3525 3141 3298 2862 
Q 3072 2584 2669 2484 
Q 3125 2378 3379 2068 
Q 3634 1759 3634 1313 
Q 3634 634 3220 271 
Q 2806 -91 2034 -91 
Q 1263 -91 848 271 
Q 434 634 434 1313 
Q 434 1759 690 2068 
Q 947 2378 1403 2484 
z
M 1172 3481 
Q 1172 3119 1398 2916 
Q 1625 2713 2034 2713 
Q 2441 2713 2670 2916 
Q 2900 3119 2900 3481 
Q 2900 3844 2670 4047 
Q 2441 4250 2034 4250 
Q 1625 4250 1398 4047 
Q 1172 3844 1172 3481 
z
" transform="scale(0.015625)"/>
       </defs>
       <use xlink:href="#DejaVuSans-38"/>
      </g>
     </g>
    </g>
    <g id="text_10">
     <!-- A10G GPUs held -->
     <g style="fill: #52514e" transform="translate(29.399453 174.110922) rotate(-90) scale(0.105 -0.105)">
      <defs>
       <path id="DejaVuSans-41" d="M 2188 4044 
L 1331 1722 
L 3047 1722 
L 2188 4044 
z
M 1831 4666 
L 2547 4666 
L 4325 0 
L 3669 0 
L 3244 1197 
L 1141 1197 
L 716 0 
L 50 0 
L 1831 4666 
z
" transform="scale(0.015625)"/>
       <path id="DejaVuSans-31" d="M 794 531 
L 1825 531 
L 1825 4091 
L 703 3866 
L 703 4441 
L 1819 4666 
L 2450 4666 
L 2450 531 
L 3481 531 
L 3481 0 
L 794 0 
L 794 531 
z
" transform="scale(0.015625)"/>
       <path id="DejaVuSans-50" d="M 1259 4147 
L 1259 2394 
L 2053 2394 
Q 2494 2394 2734 2622 
Q 2975 2850 2975 3272 
Q 2975 3691 2734 3919 
Q 2494 4147 2053 4147 
L 1259 4147 
z
M 628 4666 
L 2053 4666 
Q 2838 4666 3239 4311 
Q 3641 3956 3641 3272 
Q 3641 2581 3239 2228 
Q 2838 1875 2053 1875 
L 1259 1875 
L 1259 0 
L 628 0 
L 628 4666 
z
" transform="scale(0.015625)"/>
       <path id="DejaVuSans-55" d="M 556 4666 
L 1191 4666 
L 1191 1831 
Q 1191 1081 1462 751 
Q 1734 422 2344 422 
Q 2950 422 3222 751 
Q 3494 1081 3494 1831 
L 3494 4666 
L 4128 4666 
L 4128 1753 
Q 4128 841 3676 375 
Q 3225 -91 2344 -91 
Q 1459 -91 1007 375 
Q 556 841 556 1753 
L 556 4666 
z
" transform="scale(0.015625)"/>
       <path id="DejaVuSans-68" d="M 3513 2113 
L 3513 0 
L 2938 0 
L 2938 2094 
Q 2938 2591 2744 2837 
Q 2550 3084 2163 3084 
Q 1697 3084 1428 2787 
Q 1159 2491 1159 1978 
L 1159 0 
L 581 0 
L 581 4863 
L 1159 4863 
L 1159 2956 
Q 1366 3272 1645 3428 
Q 1925 3584 2291 3584 
Q 2894 3584 3203 3211 
Q 3513 2838 3513 2113 
z
" transform="scale(0.015625)"/>
       <path id="DejaVuSans-6c" d="M 603 4863 
L 1178 4863 
L 1178 0 
L 603 0 
L 603 4863 
z
" transform="scale(0.015625)"/>
      </defs>
      <use xlink:href="#DejaVuSans-41"/>
      <use xlink:href="#DejaVuSans-31" x="68.408203"/>
      <use xlink:href="#DejaVuSans-30" x="132.03125"/>
      <use xlink:href="#DejaVuSans-47" x="195.654297"/>
      <use xlink:href="#DejaVuSans-20" x="273.144531"/>
      <use xlink:href="#DejaVuSans-47" x="304.931641"/>
      <use xlink:href="#DejaVuSans-50" x="382.421875"/>
      <use xlink:href="#DejaVuSans-55" x="442.724609"/>
      <use xlink:href="#DejaVuSans-73" x="515.917969"/>
      <use xlink:href="#DejaVuSans-20" x="568.017578"/>
      <use xlink:href="#DejaVuSans-68" x="599.804688"/>
      <use xlink:href="#DejaVuSans-65" x="663.183594"/>
      <use xlink:href="#DejaVuSans-6c" x="724.707031"/>
      <use xlink:href="#DejaVuSans-64" x="752.490234"/>
     </g>
    </g>
   </g>
   <g id="PolyCollection_1">
    <defs>
     <path id="m70fde72d8c" d="M 49.26375 -42.459021 
L 49.26375 -42.459021 
L 132.96375 -42.459021 
L 132.96375 -42.459021 
L 216.66375 -42.459021 
L 216.66375 -126.727821 
L 300.36375 -126.727821 
L 300.36375 -210.996621 
L 384.06375 -210.996621 
L 384.06375 -42.459021 
L 467.76375 -42.459021 
L 467.76375 -63.526221 
L 551.46375 -63.526221 
L 551.46375 -63.526221 
L 551.46375 -42.459021 
L 551.46375 -42.459021 
L 551.46375 -42.459021 
L 467.76375 -42.459021 
L 467.76375 -42.459021 
L 384.06375 -42.459021 
L 384.06375 -42.459021 
L 300.36375 -42.459021 
L 300.36375 -42.459021 
L 216.66375 -42.459021 
L 216.66375 -42.459021 
L 132.96375 -42.459021 
L 132.96375 -42.459021 
L 49.26375 -42.459021 
z
" style="stroke: #2a78d6; stroke-opacity: 0.12"/>
    </defs>
    <g clip-path="url(#p5a93753b1b)">
     <use xlink:href="#m70fde72d8c" x="0" y="270.642344" style="fill: #2a78d6; fill-opacity: 0.12; stroke: #2a78d6; stroke-opacity: 0.12"/>
    </g>
   </g>
   <g id="patch_3">
    <path d="M 49.26375 236.610203 
L 49.26375 25.938203 
" style="fill: none; stroke: #c3c2b7; stroke-width: 0.8; stroke-linejoin: miter; stroke-linecap: square"/>
   </g>
   <g id="patch_4">
    <path d="M 49.26375 236.610203 
L 551.46375 236.610203 
" style="fill: none; stroke: #c3c2b7; stroke-width: 0.8; stroke-linejoin: miter; stroke-linecap: square"/>
   </g>
   <g id="line2d_19">
    <path d="M 49.26375 228.183323 
L 132.96375 228.183323 
L 132.96375 228.183323 
L 216.66375 228.183323 
L 216.66375 143.914523 
L 300.36375 143.914523 
L 300.36375 59.645723 
L 384.06375 59.645723 
L 384.06375 228.183323 
L 467.76375 228.183323 
L 467.76375 207.116123 
L 551.46375 207.116123 
L 551.46375 207.116123 
" clip-path="url(#p5a93753b1b)" style="fill: none; stroke: #2a78d6; stroke-width: 2.2; stroke-linecap: square"/>
   </g>
   <g id="text_11">
    <!-- 0 -->
    <g style="fill: #0b0b0b" transform="translate(87.634844 222.183323) scale(0.1 -0.1)">
     <defs>
      <path id="DejaVuSans-Bold-30" d="M 2944 2338 
Q 2944 3213 2780 3570 
Q 2616 3928 2228 3928 
Q 1841 3928 1675 3570 
Q 1509 3213 1509 2338 
Q 1509 1453 1675 1090 
Q 1841 728 2228 728 
Q 2613 728 2778 1090 
Q 2944 1453 2944 2338 
z
M 4147 2328 
Q 4147 1169 3647 539 
Q 3147 -91 2228 -91 
Q 1306 -91 806 539 
Q 306 1169 306 2328 
Q 306 3491 806 4120 
Q 1306 4750 2228 4750 
Q 3147 4750 3647 4120 
Q 4147 3491 4147 2328 
z
" transform="scale(0.015625)"/>
     </defs>
     <use xlink:href="#DejaVuSans-Bold-30"/>
    </g>
   </g>
   <g id="text_12">
    <!-- 0 -->
    <g style="fill: #0b0b0b" transform="translate(171.334844 222.183323) scale(0.1 -0.1)">
     <use xlink:href="#DejaVuSans-Bold-30"/>
    </g>
   </g>
   <g id="text_13">
    <!-- 4 -->
    <g style="fill: #0b0b0b" transform="translate(255.034844 137.914523) scale(0.1 -0.1)">
     <defs>
      <path id="DejaVuSans-Bold-34" d="M 2356 3675 
L 1038 1722 
L 2356 1722 
L 2356 3675 
z
M 2156 4666 
L 3494 4666 
L 3494 1722 
L 4159 1722 
L 4159 850 
L 3494 850 
L 3494 0 
L 2356 0 
L 2356 850 
L 288 850 
L 288 1881 
L 2156 4666 
z
" transform="scale(0.015625)"/>
     </defs>
     <use xlink:href="#DejaVuSans-Bold-34"/>
    </g>
   </g>
   <g id="text_14">
    <!-- 8 -->
    <g style="fill: #0b0b0b" transform="translate(338.734844 53.645723) scale(0.1 -0.1)">
     <defs>
      <path id="DejaVuSans-Bold-38" d="M 2228 2088 
Q 1891 2088 1709 1903 
Q 1528 1719 1528 1375 
Q 1528 1031 1709 848 
Q 1891 666 2228 666 
Q 2563 666 2741 848 
Q 2919 1031 2919 1375 
Q 2919 1722 2741 1905 
Q 2563 2088 2228 2088 
z
M 1350 2484 
Q 925 2613 709 2878 
Q 494 3144 494 3541 
Q 494 4131 934 4440 
Q 1375 4750 2228 4750 
Q 3075 4750 3515 4442 
Q 3956 4134 3956 3541 
Q 3956 3144 3739 2878 
Q 3522 2613 3097 2484 
Q 3572 2353 3814 2058 
Q 4056 1763 4056 1313 
Q 4056 619 3595 264 
Q 3134 -91 2228 -91 
Q 1319 -91 855 264 
Q 391 619 391 1313 
Q 391 1763 633 2058 
Q 875 2353 1350 2484 
z
M 1631 3419 
Q 1631 3141 1786 2991 
Q 1941 2841 2228 2841 
Q 2509 2841 2662 2991 
Q 2816 3141 2816 3419 
Q 2816 3697 2662 3845 
Q 2509 3994 2228 3994 
Q 1941 3994 1786 3844 
Q 1631 3694 1631 3419 
z
" transform="scale(0.015625)"/>
     </defs>
     <use xlink:href="#DejaVuSans-Bold-38"/>
    </g>
   </g>
   <g id="text_15">
    <!-- 0 -->
    <g style="fill: #0b0b0b" transform="translate(422.434844 222.183323) scale(0.1 -0.1)">
     <use xlink:href="#DejaVuSans-Bold-30"/>
    </g>
   </g>
   <g id="text_16">
    <!-- 1 -->
    <g style="fill: #0b0b0b" transform="translate(506.134844 201.116123) scale(0.1 -0.1)">
     <defs>
      <path id="DejaVuSans-Bold-31" d="M 750 831 
L 1813 831 
L 1813 3847 
L 722 3622 
L 722 4441 
L 1806 4666 
L 2950 4666 
L 2950 831 
L 4013 831 
L 4013 0 
L 750 0 
L 750 831 
z
" transform="scale(0.015625)"/>
     </defs>
     <use xlink:href="#DejaVuSans-Bold-31"/>
    </g>
   </g>
   <g id="text_17">
    <!-- GPU nodes scale 0 → 8 → 0 with the pipeline — min_nodes: 0, CPU stages can't land on them (CPU: 0) -->
    <g style="fill: #0b0b0b" transform="translate(7.2 15.938203) scale(0.115 -0.115)">
     <defs>
      <path id="DejaVuSans-2192" d="M 5050 2147 
L 5050 1866 
L 3822 638 
L 3447 1013 
L 4175 1741 
L 366 1741 
L 366 2272 
L 4175 2272 
L 3447 3000 
L 3822 3375 
L 5050 2147 
z
" transform="scale(0.015625)"/>
      <path id="DejaVuSans-77" d="M 269 3500 
L 844 3500 
L 1563 769 
L 2278 3500 
L 2956 3500 
L 3675 769 
L 4391 3500 
L 4966 3500 
L 4050 0 
L 3372 0 
L 2619 2869 
L 1863 0 
L 1184 0 
L 269 3500 
z
" transform="scale(0.015625)"/>
      <path id="DejaVuSans-2014" d="M 313 1978 
L 6088 1978 
L 6088 1528 
L 313 1528 
L 313 1978 
z
" transform="scale(0.015625)"/>
      <path id="DejaVuSans-5f" d="M 3263 -1063 
L 3263 -1509 
L -63 -1509 
L -63 -1063 
L 3263 -1063 
z
" transform="scale(0.015625)"/>
      <path id="DejaVuSans-3a" d="M 750 794 
L 1409 794 
L 1409 0 
L 750 0 
L 750 794 
z
M 750 3309 
L 1409 3309 
L 1409 2516 
L 750 2516 
L 750 3309 
z
" transform="scale(0.015625)"/>
      <path id="DejaVuSans-2c" d="M 750 794 
L 1409 794 
L 1409 256 
L 897 -744 
L 494 -744 
L 750 256 
L 750 794 
z
" transform="scale(0.015625)"/>
      <path id="DejaVuSans-43" d="M 4122 4306 
L 4122 3641 
Q 3803 3938 3442 4084 
Q 3081 4231 2675 4231 
Q 1875 4231 1450 3742 
Q 1025 3253 1025 2328 
Q 1025 1406 1450 917 
Q 1875 428 2675 428 
Q 3081 428 3442 575 
Q 3803 722 4122 1019 
L 4122 359 
Q 3791 134 3420 21 
Q 3050 -91 2638 -91 
Q 1578 -91 968 557 
Q 359 1206 359 2328 
Q 359 3453 968 4101 
Q 1578 4750 2638 4750 
Q 3056 4750 3426 4639 
Q 3797 4528 4122 4306 
z
" transform="scale(0.015625)"/>
      <path id="DejaVuSans-67" d="M 2906 1791 
Q 2906 2416 2648 2759 
Q 2391 3103 1925 3103 
Q 1463 3103 1205 2759 
Q 947 2416 947 1791 
Q 947 1169 1205 825 
Q 1463 481 1925 481 
Q 2391 481 2648 825 
Q 2906 1169 2906 1791 
z
M 3481 434 
Q 3481 -459 3084 -895 
Q 2688 -1331 1869 -1331 
Q 1566 -1331 1297 -1286 
Q 1028 -1241 775 -1147 
L 775 -588 
Q 1028 -725 1275 -790 
Q 1522 -856 1778 -856 
Q 2344 -856 2625 -561 
Q 2906 -266 2906 331 
L 2906 616 
Q 2728 306 2450 153 
Q 2172 0 1784 0 
Q 1141 0 747 490 
Q 353 981 353 1791 
Q 353 2603 747 3093 
Q 1141 3584 1784 3584 
Q 2172 3584 2450 3431 
Q 2728 3278 2906 2969 
L 2906 3500 
L 3481 3500 
L 3481 434 
z
" transform="scale(0.015625)"/>
      <path id="DejaVuSans-27" d="M 1147 4666 
L 1147 2931 
L 616 2931 
L 616 4666 
L 1147 4666 
z
" transform="scale(0.015625)"/>
      <path id="DejaVuSans-28" d="M 1984 4856 
Q 1566 4138 1362 3434 
Q 1159 2731 1159 2009 
Q 1159 1288 1364 580 
Q 1569 -128 1984 -844 
L 1484 -844 
Q 1016 -109 783 600 
Q 550 1309 550 2009 
Q 550 2706 781 3412 
Q 1013 4119 1484 4856 
L 1984 4856 
z
" transform="scale(0.015625)"/>
      <path id="DejaVuSans-29" d="M 513 4856 
L 1013 4856 
Q 1481 4119 1714 3412 
Q 1947 2706 1947 2009 
Q 1947 1309 1714 600 
Q 1481 -109 1013 -844 
L 513 -844 
Q 928 -128 1133 580 
Q 1338 1288 1338 2009 
Q 1338 2731 1133 3434 
Q 928 4138 513 4856 
z
" transform="scale(0.015625)"/>
     </defs>
     <use xlink:href="#DejaVuSans-47"/>
     <use xlink:href="#DejaVuSans-50" x="77.490234"/>
     <use xlink:href="#DejaVuSans-55" x="137.792969"/>
     <use xlink:href="#DejaVuSans-20" x="210.986328"/>
     <use xlink:href="#DejaVuSans-6e" x="242.773438"/>
     <use xlink:href="#DejaVuSans-6f" x="306.152344"/>
     <use xlink:href="#DejaVuSans-64" x="367.333984"/>
     <use xlink:href="#DejaVuSans-65" x="430.810547"/>
     <use xlink:href="#DejaVuSans-73" x="492.333984"/>
     <use xlink:href="#DejaVuSans-20" x="544.433594"/>
     <use xlink:href="#DejaVuSans-73" x="576.220703"/>
     <use xlink:href="#DejaVuSans-63" x="628.320312"/>
     <use xlink:href="#DejaVuSans-61" x="683.300781"/>
     <use xlink:href="#DejaVuSans-6c" x="744.580078"/>
     <use xlink:href="#DejaVuSans-65" x="772.363281"/>
     <use xlink:href="#DejaVuSans-20" x="833.886719"/>
     <use xlink:href="#DejaVuSans-30" x="865.673828"/>
     <use xlink:href="#DejaVuSans-20" x="929.296875"/>
     <use xlink:href="#DejaVuSans-2192" x="961.083984"/>
     <use xlink:href="#DejaVuSans-20" x="1044.873047"/>
     <use xlink:href="#DejaVuSans-38" x="1076.660156"/>
     <use xlink:href="#DejaVuSans-20" x="1140.283203"/>
     <use xlink:href="#DejaVuSans-2192" x="1172.070312"/>
     <use xlink:href="#DejaVuSans-20" x="1255.859375"/>
     <use xlink:href="#DejaVuSans-30" x="1287.646484"/>
     <use xlink:href="#DejaVuSans-20" x="1351.269531"/>
     <use xlink:href="#DejaVuSans-77" x="1383.056641"/>
     <use xlink:href="#DejaVuSans-69" x="1464.84375"/>
     <use xlink:href="#DejaVuSans-74" x="1492.626953"/>
     <use xlink:href="#DejaVuSans-68" x="1531.835938"/>
     <use xlink:href="#DejaVuSans-20" x="1595.214844"/>
     <use xlink:href="#DejaVuSans-74" x="1627.001953"/>
     <use xlink:href="#DejaVuSans-68" x="1666.210938"/>
     <use xlink:href="#DejaVuSans-65" x="1729.589844"/>
     <use xlink:href="#DejaVuSans-20" x="1791.113281"/>
     <use xlink:href="#DejaVuSans-70" x="1822.900391"/>
     <use xlink:href="#DejaVuSans-69" x="1886.376953"/>
     <use xlink:href="#DejaVuSans-70" x="1914.160156"/>
     <use xlink:href="#DejaVuSans-65" x="1977.636719"/>
     <use xlink:href="#DejaVuSans-6c" x="2039.160156"/>
     <use xlink:href="#DejaVuSans-69" x="2066.943359"/>
     <use xlink:href="#DejaVuSans-6e" x="2094.726562"/>
     <use xlink:href="#DejaVuSans-65" x="2158.105469"/>
     <use xlink:href="#DejaVuSans-20" x="2219.628906"/>
     <use xlink:href="#DejaVuSans-2014" x="2251.416016"/>
     <use xlink:href="#DejaVuSans-20" x="2351.416016"/>
     <use xlink:href="#DejaVuSans-6d" x="2383.203125"/>
     <use xlink:href="#DejaVuSans-69" x="2480.615234"/>
     <use xlink:href="#DejaVuSans-6e" x="2508.398438"/>
     <use xlink:href="#DejaVuSans-5f" x="2571.777344"/>
     <use xlink:href="#DejaVuSans-6e" x="2621.777344"/>
     <use xlink:href="#DejaVuSans-6f" x="2685.15625"/>
     <use xlink:href="#DejaVuSans-64" x="2746.337891"/>
     <use xlink:href="#DejaVuSans-65" x="2809.814453"/>
     <use xlink:href="#DejaVuSans-73" x="2871.337891"/>
     <use xlink:href="#DejaVuSans-3a" x="2923.4375"/>
     <use xlink:href="#DejaVuSans-20" x="2957.128906"/>
     <use xlink:href="#DejaVuSans-30" x="2988.916016"/>
     <use xlink:href="#DejaVuSans-2c" x="3052.539062"/>
     <use xlink:href="#DejaVuSans-20" x="3084.326172"/>
     <use xlink:href="#DejaVuSans-43" x="3116.113281"/>
     <use xlink:href="#DejaVuSans-50" x="3185.9375"/>
     <use xlink:href="#DejaVuSans-55" x="3246.240234"/>
     <use xlink:href="#DejaVuSans-20" x="3319.433594"/>
     <use xlink:href="#DejaVuSans-73" x="3351.220703"/>
     <use xlink:href="#DejaVuSans-74" x="3403.320312"/>
     <use xlink:href="#DejaVuSans-61" x="3442.529297"/>
     <use xlink:href="#DejaVuSans-67" x="3503.808594"/>
     <use xlink:href="#DejaVuSans-65" x="3567.285156"/>
     <use xlink:href="#DejaVuSans-73" x="3628.808594"/>
     <use xlink:href="#DejaVuSans-20" x="3680.908203"/>
     <use xlink:href="#DejaVuSans-63" x="3712.695312"/>
     <use xlink:href="#DejaVuSans-61" x="3767.675781"/>
     <use xlink:href="#DejaVuSans-6e" x="3828.955078"/>
     <use xlink:href="#DejaVuSans-27" x="3892.333984"/>
     <use xlink:href="#DejaVuSans-74" x="3919.824219"/>
     <use xlink:href="#DejaVuSans-20" x="3959.033203"/>
     <use xlink:href="#DejaVuSans-6c" x="3990.820312"/>
     <use xlink:href="#DejaVuSans-61" x="4018.603516"/>
     <use xlink:href="#DejaVuSans-6e" x="4079.882812"/>
     <use xlink:href="#DejaVuSans-64" x="4143.261719"/>
     <use xlink:href="#DejaVuSans-20" x="4206.738281"/>
     <use xlink:href="#DejaVuSans-6f" x="4238.525391"/>
     <use xlink:href="#DejaVuSans-6e" x="4299.707031"/>
     <use xlink:href="#DejaVuSans-20" x="4363.085938"/>
     <use xlink:href="#DejaVuSans-74" x="4394.873047"/>
     <use xlink:href="#DejaVuSans-68" x="4434.082031"/>
     <use xlink:href="#DejaVuSans-65" x="4497.460938"/>
     <use xlink:href="#DejaVuSans-6d" x="4558.984375"/>
     <use xlink:href="#DejaVuSans-20" x="4656.396484"/>
     <use xlink:href="#DejaVuSans-28" x="4688.183594"/>
     <use xlink:href="#DejaVuSans-43" x="4727.197266"/>
     <use xlink:href="#DejaVuSans-50" x="4797.021484"/>
     <use xlink:href="#DejaVuSans-55" x="4857.324219"/>
     <use xlink:href="#DejaVuSans-3a" x="4930.517578"/>
     <use xlink:href="#DejaVuSans-20" x="4964.208984"/>
     <use xlink:href="#DejaVuSans-30" x="4995.996094"/>
     <use xlink:href="#DejaVuSans-29" x="5059.619141"/>
    </g>
   </g>
  </g>
 </g>
 <defs>
  <clipPath id="p5a93753b1b">
   <rect x="49.26375" y="25.938203" width="502.2" height="210.672"/>
  </clipPath>
 </defs>
</svg>
