<?xml version="1.0" encoding="utf-8" standalone="no"?>
<!DOCTYPE svg PUBLIC "-//W3C//DTD SVG 1.1//EN"
  "http://www.w3.org/Graphics/SVG/1.1/DTD/svg11.dtd">
<svg xmlns:xlink="http://www.w3.org/1999/xlink" width="846.957084pt" height="207.666997pt" viewBox="0 0 846.957084 207.666997" xmlns="http://www.w3.org/2000/svg" version="1.1">
 <metadata>
  <rdf:RDF xmlns:dc="http://purl.org/dc/elements/1.1/" xmlns:cc="http://creativecommons.org/ns#" xmlns:rdf="http://www.w3.org/1999/02/22-rdf-syntax-ns#">
   <cc:Work>
    <dc:type rdf:resource="http://purl.org/dc/dcmitype/StillImage"/>
    <dc:date>2026-07-14T08:43:20.788863</dc:date>
    <dc:format>image/svg+xml</dc:format>
    <dc:creator>
     <cc:Agent>
      <dc:title>Matplotlib v3.7.4, https://matplotlib.org/</dc:title>
     </cc:Agent>
    </dc:creator>
   </cc:Work>
  </rdf:RDF>
 </metadata>
 <defs>
  <style type="text/css">*{stroke-linejoin: round; stroke-linecap: butt}</style>
 </defs>
 <g id="figure_1">
  <g id="patch_1">
   <path d="M 0 207.666997 
L 846.957084 207.666997 
L 846.957084 -0 
L 0 -0 
z
" style="fill: #fcfcfb"/>
  </g>
  <g id="axes_1">
   <g id="patch_2">
    <path d="M 156.71813 106.218997 
Q 165.505296 106.218997 172.839017 106.218997 
" clip-path="url(#p8b89624a88)" style="fill: none; stroke: #52514e; stroke-width: 1.3; stroke-linecap: round"/>
    <path d="M 167.639017 103.618997 
L 172.839017 106.218997 
L 167.639017 108.818997 
z
" clip-path="url(#p8b89624a88)" style="fill: #52514e; stroke: #52514e; stroke-width: 1.3; stroke-linecap: round"/>
   </g>
   <g id="patch_3">
    <path d="M 264.59813 106.218997 
Q 273.385296 106.218997 280.719017 106.218997 
" clip-path="url(#p8b89624a88)" style="fill: none; stroke: #52514e; stroke-width: 1.3; stroke-linecap: round"/>
    <path d="M 275.519017 103.618997 
L 280.719017 106.218997 
L 275.519017 108.818997 
z
" clip-path="url(#p8b89624a88)" style="fill: #52514e; stroke: #52514e; stroke-width: 1.3; stroke-linecap: round"/>
   </g>
   <g id="patch_4">
    <path d="M 372.47813 106.218997 
Q 381.265296 106.218997 388.599017 106.218997 
" clip-path="url(#p8b89624a88)" style="fill: none; stroke: #52514e; stroke-width: 1.3; stroke-linecap: round"/>
    <path d="M 383.399017 103.618997 
L 388.599017 106.218997 
L 383.399017 108.818997 
z
" clip-path="url(#p8b89624a88)" style="fill: #52514e; stroke: #52514e; stroke-width: 1.3; stroke-linecap: round"/>
   </g>
   <g id="patch_5">
    <path d="M 480.35813 106.218997 
Q 489.145296 106.218997 496.479017 106.218997 
" clip-path="url(#p8b89624a88)" style="fill: none; stroke: #52514e; stroke-width: 1.3; stroke-linecap: round"/>
    <path d="M 491.279017 103.618997 
L 496.479017 106.218997 
L 491.279017 108.818997 
z
" clip-path="url(#p8b89624a88)" style="fill: #52514e; stroke: #52514e; stroke-width: 1.3; stroke-linecap: round"/>
   </g>
   <g id="patch_6">
    <path d="M 588.23813 106.218997 
Q 597.025296 106.218997 604.359017 106.218997 
" clip-path="url(#p8b89624a88)" style="fill: none; stroke: #52514e; stroke-width: 1.3; stroke-linecap: round"/>
    <path d="M 599.159017 103.618997 
L 604.359017 106.218997 
L 599.159017 108.818997 
z
" clip-path="url(#p8b89624a88)" style="fill: #52514e; stroke: #52514e; stroke-width: 1.3; stroke-linecap: round"/>
   </g>
   <g id="patch_7">
    <path d="M 696.11813 106.218997 
Q 704.905296 106.218997 712.239017 106.218997 
" clip-path="url(#p8b89624a88)" style="fill: none; stroke: #52514e; stroke-width: 1.3; stroke-linecap: round"/>
    <path d="M 707.039017 103.618997 
L 712.239017 106.218997 
L 707.039017 108.818997 
z
" clip-path="url(#p8b89624a88)" style="fill: #52514e; stroke: #52514e; stroke-width: 1.3; stroke-linecap: round"/>
   </g>
   <g id="text_1">
    <!-- raw transactions -->
    <g style="fill: #52514e" transform="translate(7.2 107.288342) scale(0.09 -0.09)">
     <defs>
      <path id="DejaVuSans-Oblique-72" d="M 2853 2969 
Q 2766 3016 2653 3041 
Q 2541 3066 2413 3066 
Q 1953 3066 1609 2717 
Q 1266 2369 1153 1784 
L 800 0 
L 225 0 
L 909 3500 
L 1484 3500 
L 1375 2956 
Q 1603 3259 1920 3421 
Q 2238 3584 2597 3584 
Q 2691 3584 2781 3573 
Q 2872 3563 2963 3538 
L 2853 2969 
z
" transform="scale(0.015625)"/>
      <path id="DejaVuSans-Oblique-61" d="M 3438 1997 
L 3047 0 
L 2472 0 
L 2578 531 
Q 2325 219 2001 64 
Q 1678 -91 1281 -91 
Q 834 -91 548 182 
Q 263 456 263 884 
Q 263 1497 752 1853 
Q 1241 2209 2100 2209 
L 2900 2209 
L 2931 2363 
Q 2938 2388 2941 2417 
Q 2944 2447 2944 2509 
Q 2944 2788 2717 2942 
Q 2491 3097 2081 3097 
Q 1800 3097 1504 3025 
Q 1209 2953 897 2809 
L 997 3341 
Q 1322 3463 1633 3523 
Q 1944 3584 2234 3584 
Q 2853 3584 3176 3315 
Q 3500 3047 3500 2534 
Q 3500 2431 3484 2292 
Q 3469 2153 3438 1997 
z
M 2816 1759 
L 2241 1759 
Q 1534 1759 1195 1570 
Q 856 1381 856 984 
Q 856 709 1029 553 
Q 1203 397 1509 397 
Q 1978 397 2328 733 
Q 2678 1069 2791 1631 
L 2816 1759 
z
" transform="scale(0.015625)"/>
      <path id="DejaVuSans-Oblique-77" d="M 544 3500 
L 1113 3500 
L 1259 684 
L 2566 3500 
L 3231 3500 
L 3425 684 
L 4666 3500 
L 5241 3500 
L 3641 0 
L 2969 0 
L 2797 2900 
L 1459 0 
L 781 0 
L 544 3500 
z
" transform="scale(0.015625)"/>
      <path id="DejaVuSans-Oblique-20" transform="scale(0.015625)"/>
      <path id="DejaVuSans-Oblique-74" d="M 2706 3500 
L 2619 3053 
L 1472 3053 
L 1100 1153 
Q 1081 1047 1072 975 
Q 1063 903 1063 863 
Q 1063 663 1183 572 
Q 1303 481 1569 481 
L 2150 481 
L 2053 0 
L 1503 0 
Q 991 0 739 200 
Q 488 400 488 806 
Q 488 878 497 964 
Q 506 1050 525 1153 
L 897 3053 
L 409 3053 
L 500 3500 
L 978 3500 
L 1172 4494 
L 1747 4494 
L 1556 3500 
L 2706 3500 
z
" transform="scale(0.015625)"/>
      <path id="DejaVuSans-Oblique-6e" d="M 3566 2113 
L 3156 0 
L 2578 0 
L 2988 2091 
Q 3016 2238 3031 2350 
Q 3047 2463 3047 2528 
Q 3047 2791 2881 2937 
Q 2716 3084 2419 3084 
Q 1956 3084 1622 2776 
Q 1288 2469 1184 1941 
L 800 0 
L 225 0 
L 903 3500 
L 1478 3500 
L 1363 2950 
Q 1603 3253 1940 3418 
Q 2278 3584 2650 3584 
Q 3113 3584 3367 3334 
Q 3622 3084 3622 2631 
Q 3622 2519 3608 2391 
Q 3594 2263 3566 2113 
z
" transform="scale(0.015625)"/>
      <path id="DejaVuSans-Oblique-73" d="M 3200 3397 
L 3091 2853 
Q 2863 2978 2609 3040 
Q 2356 3103 2088 3103 
Q 1634 3103 1373 2948 
Q 1113 2794 1113 2528 
Q 1113 2219 1719 2053 
Q 1766 2041 1788 2034 
L 1972 1978 
Q 2547 1819 2739 1644 
Q 2931 1469 2931 1166 
Q 2931 609 2489 259 
Q 2047 -91 1331 -91 
Q 1053 -91 747 -37 
Q 441 16 72 128 
L 184 722 
Q 500 559 806 475 
Q 1113 391 1394 391 
Q 1816 391 2080 572 
Q 2344 753 2344 1031 
Q 2344 1331 1650 1516 
L 1591 1531 
L 1394 1581 
Q 956 1697 753 1886 
Q 550 2075 550 2369 
Q 550 2928 970 3256 
Q 1391 3584 2113 3584 
Q 2397 3584 2667 3537 
Q 2938 3491 3200 3397 
z
" transform="scale(0.015625)"/>
      <path id="DejaVuSans-Oblique-63" d="M 3431 3366 
L 3316 2797 
Q 3109 2947 2876 3022 
Q 2644 3097 2394 3097 
Q 2119 3097 1870 3000 
Q 1622 2903 1453 2725 
Q 1184 2453 1037 2087 
Q 891 1722 891 1331 
Q 891 859 1127 628 
Q 1363 397 1844 397 
Q 2081 397 2348 469 
Q 2616 541 2906 684 
L 2797 116 
Q 2547 13 2283 -39 
Q 2019 -91 1741 -91 
Q 1044 -91 669 257 
Q 294 606 294 1253 
Q 294 1797 489 2255 
Q 684 2713 1069 3078 
Q 1331 3328 1684 3456 
Q 2038 3584 2456 3584 
Q 2700 3584 2940 3529 
Q 3181 3475 3431 3366 
z
" transform="scale(0.015625)"/>
      <path id="DejaVuSans-Oblique-69" d="M 1172 4863 
L 1747 4863 
L 1606 4134 
L 1031 4134 
L 1172 4863 
z
M 909 3500 
L 1484 3500 
L 800 0 
L 225 0 
L 909 3500 
z
" transform="scale(0.015625)"/>
      <path id="DejaVuSans-Oblique-6f" d="M 1625 -91 
Q 1009 -91 651 289 
Q 294 669 294 1325 
Q 294 1706 417 2101 
Q 541 2497 738 2766 
Q 1047 3184 1428 3384 
Q 1809 3584 2291 3584 
Q 2888 3584 3255 3212 
Q 3622 2841 3622 2241 
Q 3622 1825 3500 1412 
Q 3378 1000 3181 728 
Q 2875 309 2494 109 
Q 2113 -91 1625 -91 
z
M 891 1344 
Q 891 869 1089 633 
Q 1288 397 1691 397 
Q 2269 397 2648 901 
Q 3028 1406 3028 2181 
Q 3028 2634 2825 2865 
Q 2622 3097 2228 3097 
Q 1903 3097 1650 2945 
Q 1397 2794 1197 2484 
Q 1050 2253 970 1956 
Q 891 1659 891 1344 
z
" transform="scale(0.015625)"/>
     </defs>
     <use xlink:href="#DejaVuSans-Oblique-72"/>
     <use xlink:href="#DejaVuSans-Oblique-61" x="41.113281"/>
     <use xlink:href="#DejaVuSans-Oblique-77" x="102.392578"/>
     <use xlink:href="#DejaVuSans-Oblique-20" x="184.179688"/>
     <use xlink:href="#DejaVuSans-Oblique-74" x="215.966797"/>
     <use xlink:href="#DejaVuSans-Oblique-72" x="255.175781"/>
     <use xlink:href="#DejaVuSans-Oblique-61" x="296.289062"/>
     <use xlink:href="#DejaVuSans-Oblique-6e" x="357.568359"/>
     <use xlink:href="#DejaVuSans-Oblique-73" x="420.947266"/>
     <use xlink:href="#DejaVuSans-Oblique-61" x="473.046875"/>
     <use xlink:href="#DejaVuSans-Oblique-63" x="534.326172"/>
     <use xlink:href="#DejaVuSans-Oblique-74" x="589.306641"/>
     <use xlink:href="#DejaVuSans-Oblique-69" x="628.515625"/>
     <use xlink:href="#DejaVuSans-Oblique-6f" x="656.298828"/>
     <use xlink:href="#DejaVuSans-Oblique-6e" x="717.480469"/>
     <use xlink:href="#DejaVuSans-Oblique-73" x="780.859375"/>
    </g>
    <!-- (Parquet, S3) -->
    <g style="fill: #52514e" transform="translate(15.027188 117.366374) scale(0.09 -0.09)">
     <defs>
      <path id="DejaVuSans-Oblique-28" d="M 2731 4856 
Q 1903 3822 1495 2892 
Q 1088 1963 1088 1100 
Q 1088 606 1206 120 
Q 1325 -366 1563 -844 
L 1063 -844 
Q 775 -306 634 201 
Q 494 709 494 1197 
Q 494 2125 923 3036 
Q 1353 3947 2222 4856 
L 2731 4856 
z
" transform="scale(0.015625)"/>
      <path id="DejaVuSans-Oblique-50" d="M 1081 4666 
L 2541 4666 
Q 3178 4666 3512 4369 
Q 3847 4072 3847 3500 
Q 3847 2731 3353 2303 
Q 2859 1875 1966 1875 
L 1172 1875 
L 806 0 
L 172 0 
L 1081 4666 
z
M 1613 4147 
L 1275 2394 
L 2069 2394 
Q 2606 2394 2893 2669 
Q 3181 2944 3181 3456 
Q 3181 3784 2986 3965 
Q 2791 4147 2438 4147 
L 1613 4147 
z
" transform="scale(0.015625)"/>
      <path id="DejaVuSans-Oblique-71" d="M 2669 525 
Q 2438 222 2123 65 
Q 1809 -91 1428 -91 
Q 897 -91 595 267 
Q 294 625 294 1253 
Q 294 1759 480 2231 
Q 666 2703 1013 3078 
Q 1238 3322 1530 3453 
Q 1822 3584 2144 3584 
Q 2531 3584 2781 3431 
Q 3031 3278 3144 2969 
L 3244 3494 
L 3822 3494 
L 2888 -1319 
L 2309 -1319 
L 2669 525 
z
M 891 1338 
Q 891 875 1084 633 
Q 1278 391 1644 391 
Q 2188 391 2572 911 
Q 2956 1431 2956 2175 
Q 2956 2625 2757 2864 
Q 2559 3103 2188 3103 
Q 1916 3103 1684 2976 
Q 1453 2850 1281 2606 
Q 1100 2350 995 2006 
Q 891 1663 891 1338 
z
" transform="scale(0.015625)"/>
      <path id="DejaVuSans-Oblique-75" d="M 428 1388 
L 838 3500 
L 1416 3500 
L 1006 1409 
Q 975 1256 961 1147 
Q 947 1038 947 966 
Q 947 700 1109 554 
Q 1272 409 1569 409 
Q 2031 409 2368 721 
Q 2706 1034 2809 1563 
L 3194 3500 
L 3769 3500 
L 3091 0 
L 2516 0 
L 2631 550 
Q 2388 244 2052 76 
Q 1716 -91 1338 -91 
Q 878 -91 622 161 
Q 366 413 366 863 
Q 366 956 381 1097 
Q 397 1238 428 1388 
z
" transform="scale(0.015625)"/>
      <path id="DejaVuSans-Oblique-65" d="M 3078 2063 
Q 3088 2113 3092 2166 
Q 3097 2219 3097 2272 
Q 3097 2653 2873 2875 
Q 2650 3097 2266 3097 
Q 1838 3097 1509 2826 
Q 1181 2556 1013 2059 
L 3078 2063 
z
M 3578 1613 
L 903 1613 
Q 884 1494 878 1425 
Q 872 1356 872 1306 
Q 872 872 1139 634 
Q 1406 397 1894 397 
Q 2269 397 2603 481 
Q 2938 566 3225 728 
L 3116 159 
Q 2806 34 2476 -28 
Q 2147 -91 1806 -91 
Q 1078 -91 686 257 
Q 294 606 294 1247 
Q 294 1794 489 2264 
Q 684 2734 1063 3103 
Q 1306 3334 1642 3459 
Q 1978 3584 2356 3584 
Q 2950 3584 3301 3228 
Q 3653 2872 3653 2272 
Q 3653 2128 3634 1964 
Q 3616 1800 3578 1613 
z
" transform="scale(0.015625)"/>
      <path id="DejaVuSans-Oblique-2c" d="M 575 794 
L 1234 794 
L 1131 256 
L 422 -744 
L 19 -744 
L 469 256 
L 575 794 
z
" transform="scale(0.015625)"/>
      <path id="DejaVuSans-Oblique-53" d="M 3859 4513 
L 3738 3897 
Q 3422 4066 3111 4152 
Q 2800 4238 2509 4238 
Q 1944 4238 1609 3991 
Q 1275 3744 1275 3334 
Q 1275 3109 1398 2989 
Q 1522 2869 2034 2731 
L 2413 2638 
Q 3053 2472 3303 2217 
Q 3553 1963 3553 1503 
Q 3553 797 2998 353 
Q 2444 -91 1538 -91 
Q 1166 -91 791 -17 
Q 416 56 38 206 
L 166 856 
Q 513 641 861 531 
Q 1209 422 1556 422 
Q 2147 422 2503 684 
Q 2859 947 2859 1369 
Q 2859 1650 2717 1795 
Q 2575 1941 2106 2059 
L 1728 2156 
Q 1081 2325 845 2545 
Q 609 2766 609 3163 
Q 609 3859 1145 4304 
Q 1681 4750 2541 4750 
Q 2875 4750 3203 4690 
Q 3531 4631 3859 4513 
z
" transform="scale(0.015625)"/>
      <path id="DejaVuSans-Oblique-33" d="M 1013 4550 
Q 1356 4650 1679 4700 
Q 2003 4750 2316 4750 
Q 2934 4750 3296 4475 
Q 3659 4200 3659 3738 
Q 3659 3284 3373 2959 
Q 3088 2634 2584 2516 
Q 2978 2403 3162 2165 
Q 3347 1928 3347 1538 
Q 3347 1163 3167 834 
Q 2988 506 2650 269 
Q 2394 88 2037 -1 
Q 1681 -91 1216 -91 
Q 922 -91 622 -33 
Q 322 25 13 141 
L 128 738 
Q 422 575 720 495 
Q 1019 416 1331 416 
Q 1947 416 2330 733 
Q 2713 1050 2713 1556 
Q 2713 1881 2469 2057 
Q 2225 2234 1772 2234 
L 1228 2234 
L 1325 2747 
L 1900 2747 
Q 2419 2747 2717 2984 
Q 3016 3222 3016 3628 
Q 3016 3922 2797 4083 
Q 2578 4244 2181 4244 
Q 1881 4244 1567 4180 
Q 1253 4116 916 3988 
L 1013 4550 
z
" transform="scale(0.015625)"/>
      <path id="DejaVuSans-Oblique-29" d="M -397 -844 
Q 434 191 840 1120 
Q 1247 2050 1247 2913 
Q 1247 3406 1130 3892 
Q 1013 4378 775 4856 
L 1275 4856 
Q 1563 4316 1703 3812 
Q 1844 3309 1844 2822 
Q 1844 1891 1411 973 
Q 978 56 116 -844 
L -397 -844 
z
" transform="scale(0.015625)"/>
     </defs>
     <use xlink:href="#DejaVuSans-Oblique-28"/>
     <use xlink:href="#DejaVuSans-Oblique-50" x="39.013672"/>
     <use xlink:href="#DejaVuSans-Oblique-61" x="99.316406"/>
     <use xlink:href="#DejaVuSans-Oblique-72" x="160.595703"/>
     <use xlink:href="#DejaVuSans-Oblique-71" x="201.708984"/>
     <use xlink:href="#DejaVuSans-Oblique-75" x="265.185547"/>
     <use xlink:href="#DejaVuSans-Oblique-65" x="328.564453"/>
     <use xlink:href="#DejaVuSans-Oblique-74" x="390.087891"/>
     <use xlink:href="#DejaVuSans-Oblique-2c" x="429.296875"/>
     <use xlink:href="#DejaVuSans-Oblique-20" x="461.083984"/>
     <use xlink:href="#DejaVuSans-Oblique-53" x="492.871094"/>
     <use xlink:href="#DejaVuSans-Oblique-33" x="556.347656"/>
     <use xlink:href="#DejaVuSans-Oblique-29" x="619.970703"/>
    </g>
   </g>
   <g id="patch_8">
    <path d="M 77.045484 141.743244 
L 146.088684 141.743244 
Q 152.561484 141.743244 152.561484 137.393336 
L 152.561484 77.944597 
Q 152.561484 73.59469 146.088684 73.59469 
L 77.045484 73.59469 
Q 70.572684 73.59469 70.572684 77.944597 
L 70.572684 137.393336 
Q 70.572684 141.743244 77.045484 141.743244 
z
" clip-path="url(#p8b89624a88)" style="fill: #fcfcfb; stroke: #2a78d6; stroke-width: 1.6; stroke-linejoin: miter"/>
   </g>
   <g id="patch_9">
    <path d="M 184.925484 141.743244 
L 253.968684 141.743244 
Q 260.441484 141.743244 260.441484 137.393336 
L 260.441484 77.944597 
Q 260.441484 73.59469 253.968684 73.59469 
L 184.925484 73.59469 
Q 178.452684 73.59469 178.452684 77.944597 
L 178.452684 137.393336 
Q 178.452684 141.743244 184.925484 141.743244 
z
" clip-path="url(#p8b89624a88)" style="fill: #fcfcfb; stroke: #2a78d6; stroke-width: 1.6; stroke-linejoin: miter"/>
   </g>
   <g id="patch_10">
    <path d="M 292.805484 141.743244 
L 361.848684 141.743244 
Q 368.321484 141.743244 368.321484 137.393336 
L 368.321484 77.944597 
Q 368.321484 73.59469 361.848684 73.59469 
L 292.805484 73.59469 
Q 286.332684 73.59469 286.332684 77.944597 
L 286.332684 137.393336 
Q 286.332684 141.743244 292.805484 141.743244 
z
" clip-path="url(#p8b89624a88)" style="fill: #fcfcfb; stroke: #104281; stroke-width: 1.6; stroke-linejoin: miter"/>
   </g>
   <g id="patch_11">
    <path d="M 400.685484 141.743244 
L 469.728684 141.743244 
Q 476.201484 141.743244 476.201484 137.393336 
L 476.201484 77.944597 
Q 476.201484 73.59469 469.728684 73.59469 
L 400.685484 73.59469 
Q 394.212684 73.59469 394.212684 77.944597 
L 394.212684 137.393336 
Q 394.212684 141.743244 400.685484 141.743244 
z
" clip-path="url(#p8b89624a88)" style="fill: #fcfcfb; stroke: #2a78d6; stroke-width: 1.6; stroke-linejoin: miter"/>
   </g>
   <g id="patch_12">
    <path d="M 508.565484 141.743244 
L 577.608684 141.743244 
Q 584.081484 141.743244 584.081484 137.393336 
L 584.081484 77.944597 
Q 584.081484 73.59469 577.608684 73.59469 
L 508.565484 73.59469 
Q 502.092684 73.59469 502.092684 77.944597 
L 502.092684 137.393336 
Q 502.092684 141.743244 508.565484 141.743244 
z
" clip-path="url(#p8b89624a88)" style="fill: #fcfcfb; stroke: #8a6d1f; stroke-width: 1.6; stroke-linejoin: miter"/>
   </g>
   <g id="patch_13">
    <path d="M 616.445484 141.743244 
L 685.488684 141.743244 
Q 691.961484 141.743244 691.961484 137.393336 
L 691.961484 77.944597 
Q 691.961484 73.59469 685.488684 73.59469 
L 616.445484 73.59469 
Q 609.972684 73.59469 609.972684 77.944597 
L 609.972684 137.393336 
Q 609.972684 141.743244 616.445484 141.743244 
z
" clip-path="url(#p8b89624a88)" style="fill: #fcfcfb; stroke: #8a6d1f; stroke-width: 1.6; stroke-linejoin: miter"/>
   </g>
   <g id="patch_14">
    <path d="M 724.325484 141.743244 
L 793.368684 141.743244 
Q 799.841484 141.743244 799.841484 137.393336 
L 799.841484 77.944597 
Q 799.841484 73.59469 793.368684 73.59469 
L 724.325484 73.59469 
Q 717.852684 73.59469 717.852684 77.944597 
L 717.852684 137.393336 
Q 717.852684 141.743244 724.325484 141.743244 
z
" clip-path="url(#p8b89624a88)" style="fill: #fcfcfb; stroke: #3d7a4e; stroke-width: 1.6; stroke-linejoin: miter"/>
   </g>
   <g id="text_2">
    <!-- same code laptop → multi-node: you change the config, not the program -->
    <g style="fill: #0b0b0b" transform="translate(252.878178 14.798437) scale(0.1 -0.1)">
     <defs>
      <path id="DejaVuSans-73" d="M 2834 3397 
L 2834 2853 
Q 2591 2978 2328 3040 
Q 2066 3103 1784 3103 
Q 1356 3103 1142 2972 
Q 928 2841 928 2578 
Q 928 2378 1081 2264 
Q 1234 2150 1697 2047 
L 1894 2003 
Q 2506 1872 2764 1633 
Q 3022 1394 3022 966 
Q 3022 478 2636 193 
Q 2250 -91 1575 -91 
Q 1294 -91 989 -36 
Q 684 19 347 128 
L 347 722 
Q 666 556 975 473 
Q 1284 391 1588 391 
Q 1994 391 2212 530 
Q 2431 669 2431 922 
Q 2431 1156 2273 1281 
Q 2116 1406 1581 1522 
L 1381 1569 
Q 847 1681 609 1914 
Q 372 2147 372 2553 
Q 372 3047 722 3315 
Q 1072 3584 1716 3584 
Q 2034 3584 2315 3537 
Q 2597 3491 2834 3397 
z
" transform="scale(0.015625)"/>
      <path id="DejaVuSans-61" d="M 2194 1759 
Q 1497 1759 1228 1600 
Q 959 1441 959 1056 
Q 959 750 1161 570 
Q 1363 391 1709 391 
Q 2188 391 2477 730 
Q 2766 1069 2766 1631 
L 2766 1759 
L 2194 1759 
z
M 3341 1997 
L 3341 0 
L 2766 0 
L 2766 531 
Q 2569 213 2275 61 
Q 1981 -91 1556 -91 
Q 1019 -91 701 211 
Q 384 513 384 1019 
Q 384 1609 779 1909 
Q 1175 2209 1959 2209 
L 2766 2209 
L 2766 2266 
Q 2766 2663 2505 2880 
Q 2244 3097 1772 3097 
Q 1472 3097 1187 3025 
Q 903 2953 641 2809 
L 641 3341 
Q 956 3463 1253 3523 
Q 1550 3584 1831 3584 
Q 2591 3584 2966 3190 
Q 3341 2797 3341 1997 
z
" transform="scale(0.015625)"/>
      <path id="DejaVuSans-6d" d="M 3328 2828 
Q 3544 3216 3844 3400 
Q 4144 3584 4550 3584 
Q 5097 3584 5394 3201 
Q 5691 2819 5691 2113 
L 5691 0 
L 5113 0 
L 5113 2094 
Q 5113 2597 4934 2840 
Q 4756 3084 4391 3084 
Q 3944 3084 3684 2787 
Q 3425 2491 3425 1978 
L 3425 0 
L 2847 0 
L 2847 2094 
Q 2847 2600 2669 2842 
Q 2491 3084 2119 3084 
Q 1678 3084 1418 2786 
Q 1159 2488 1159 1978 
L 1159 0 
L 581 0 
L 581 3500 
L 1159 3500 
L 1159 2956 
Q 1356 3278 1631 3431 
Q 1906 3584 2284 3584 
Q 2666 3584 2933 3390 
Q 3200 3197 3328 2828 
z
" transform="scale(0.015625)"/>
      <path id="DejaVuSans-65" d="M 3597 1894 
L 3597 1613 
L 953 1613 
Q 991 1019 1311 708 
Q 1631 397 2203 397 
Q 2534 397 2845 478 
Q 3156 559 3463 722 
L 3463 178 
Q 3153 47 2828 -22 
Q 2503 -91 2169 -91 
Q 1331 -91 842 396 
Q 353 884 353 1716 
Q 353 2575 817 3079 
Q 1281 3584 2069 3584 
Q 2775 3584 3186 3129 
Q 3597 2675 3597 1894 
z
M 3022 2063 
Q 3016 2534 2758 2815 
Q 2500 3097 2075 3097 
Q 1594 3097 1305 2825 
Q 1016 2553 972 2059 
L 3022 2063 
z
" transform="scale(0.015625)"/>
      <path id="DejaVuSans-20" transform="scale(0.015625)"/>
      <path id="DejaVuSans-63" d="M 3122 3366 
L 3122 2828 
Q 2878 2963 2633 3030 
Q 2388 3097 2138 3097 
Q 1578 3097 1268 2742 
Q 959 2388 959 1747 
Q 959 1106 1268 751 
Q 1578 397 2138 397 
Q 2388 397 2633 464 
Q 2878 531 3122 666 
L 3122 134 
Q 2881 22 2623 -34 
Q 2366 -91 2075 -91 
Q 1284 -91 818 406 
Q 353 903 353 1747 
Q 353 2603 823 3093 
Q 1294 3584 2113 3584 
Q 2378 3584 2631 3529 
Q 2884 3475 3122 3366 
z
" transform="scale(0.015625)"/>
      <path id="DejaVuSans-6f" d="M 1959 3097 
Q 1497 3097 1228 2736 
Q 959 2375 959 1747 
Q 959 1119 1226 758 
Q 1494 397 1959 397 
Q 2419 397 2687 759 
Q 2956 1122 2956 1747 
Q 2956 2369 2687 2733 
Q 2419 3097 1959 3097 
z
M 1959 3584 
Q 2709 3584 3137 3096 
Q 3566 2609 3566 1747 
Q 3566 888 3137 398 
Q 2709 -91 1959 -91 
Q 1206 -91 779 398 
Q 353 888 353 1747 
Q 353 2609 779 3096 
Q 1206 3584 1959 3584 
z
" transform="scale(0.015625)"/>
      <path id="DejaVuSans-64" d="M 2906 2969 
L 2906 4863 
L 3481 4863 
L 3481 0 
L 2906 0 
L 2906 525 
Q 2725 213 2448 61 
Q 2172 -91 1784 -91 
Q 1150 -91 751 415 
Q 353 922 353 1747 
Q 353 2572 751 3078 
Q 1150 3584 1784 3584 
Q 2172 3584 2448 3432 
Q 2725 3281 2906 2969 
z
M 947 1747 
Q 947 1113 1208 752 
Q 1469 391 1925 391 
Q 2381 391 2643 752 
Q 2906 1113 2906 1747 
Q 2906 2381 2643 2742 
Q 2381 3103 1925 3103 
Q 1469 3103 1208 2742 
Q 947 2381 947 1747 
z
" transform="scale(0.015625)"/>
      <path id="DejaVuSans-6c" d="M 603 4863 
L 1178 4863 
L 1178 0 
L 603 0 
L 603 4863 
z
" transform="scale(0.015625)"/>
      <path id="DejaVuSans-70" d="M 1159 525 
L 1159 -1331 
L 581 -1331 
L 581 3500 
L 1159 3500 
L 1159 2969 
Q 1341 3281 1617 3432 
Q 1894 3584 2278 3584 
Q 2916 3584 3314 3078 
Q 3713 2572 3713 1747 
Q 3713 922 3314 415 
Q 2916 -91 2278 -91 
Q 1894 -91 1617 61 
Q 1341 213 1159 525 
z
M 3116 1747 
Q 3116 2381 2855 2742 
Q 2594 3103 2138 3103 
Q 1681 3103 1420 2742 
Q 1159 2381 1159 1747 
Q 1159 1113 1420 752 
Q 1681 391 2138 391 
Q 2594 391 2855 752 
Q 3116 1113 3116 1747 
z
" transform="scale(0.015625)"/>
      <path id="DejaVuSans-74" d="M 1172 4494 
L 1172 3500 
L 2356 3500 
L 2356 3053 
L 1172 3053 
L 1172 1153 
Q 1172 725 1289 603 
Q 1406 481 1766 481 
L 2356 481 
L 2356 0 
L 1766 0 
Q 1100 0 847 248 
Q 594 497 594 1153 
L 594 3053 
L 172 3053 
L 172 3500 
L 594 3500 
L 594 4494 
L 1172 4494 
z
" transform="scale(0.015625)"/>
      <path id="DejaVuSans-2192" d="M 5050 2147 
L 5050 1866 
L 3822 638 
L 3447 1013 
L 4175 1741 
L 366 1741 
L 366 2272 
L 4175 2272 
L 3447 3000 
L 3822 3375 
L 5050 2147 
z
" transform="scale(0.015625)"/>
      <path id="DejaVuSans-75" d="M 544 1381 
L 544 3500 
L 1119 3500 
L 1119 1403 
Q 1119 906 1312 657 
Q 1506 409 1894 409 
Q 2359 409 2629 706 
Q 2900 1003 2900 1516 
L 2900 3500 
L 3475 3500 
L 3475 0 
L 2900 0 
L 2900 538 
Q 2691 219 2414 64 
Q 2138 -91 1772 -91 
Q 1169 -91 856 284 
Q 544 659 544 1381 
z
M 1991 3584 
L 1991 3584 
z
" transform="scale(0.015625)"/>
      <path id="DejaVuSans-69" d="M 603 3500 
L 1178 3500 
L 1178 0 
L 603 0 
L 603 3500 
z
M 603 4863 
L 1178 4863 
L 1178 4134 
L 603 4134 
L 603 4863 
z
" transform="scale(0.015625)"/>
      <path id="DejaVuSans-2d" d="M 313 2009 
L 1997 2009 
L 1997 1497 
L 313 1497 
L 313 2009 
z
" transform="scale(0.015625)"/>
      <path id="DejaVuSans-6e" d="M 3513 2113 
L 3513 0 
L 2938 0 
L 2938 2094 
Q 2938 2591 2744 2837 
Q 2550 3084 2163 3084 
Q 1697 3084 1428 2787 
Q 1159 2491 1159 1978 
L 1159 0 
L 581 0 
L 581 3500 
L 1159 3500 
L 1159 2956 
Q 1366 3272 1645 3428 
Q 1925 3584 2291 3584 
Q 2894 3584 3203 3211 
Q 3513 2838 3513 2113 
z
" transform="scale(0.015625)"/>
      <path id="DejaVuSans-3a" d="M 750 794 
L 1409 794 
L 1409 0 
L 750 0 
L 750 794 
z
M 750 3309 
L 1409 3309 
L 1409 2516 
L 750 2516 
L 750 3309 
z
" transform="scale(0.015625)"/>
      <path id="DejaVuSans-79" d="M 2059 -325 
Q 1816 -950 1584 -1140 
Q 1353 -1331 966 -1331 
L 506 -1331 
L 506 -850 
L 844 -850 
Q 1081 -850 1212 -737 
Q 1344 -625 1503 -206 
L 1606 56 
L 191 3500 
L 800 3500 
L 1894 763 
L 2988 3500 
L 3597 3500 
L 2059 -325 
z
" transform="scale(0.015625)"/>
      <path id="DejaVuSans-68" d="M 3513 2113 
L 3513 0 
L 2938 0 
L 2938 2094 
Q 2938 2591 2744 2837 
Q 2550 3084 2163 3084 
Q 1697 3084 1428 2787 
Q 1159 2491 1159 1978 
L 1159 0 
L 581 0 
L 581 4863 
L 1159 4863 
L 1159 2956 
Q 1366 3272 1645 3428 
Q 1925 3584 2291 3584 
Q 2894 3584 3203 3211 
Q 3513 2838 3513 2113 
z
" transform="scale(0.015625)"/>
      <path id="DejaVuSans-67" d="M 2906 1791 
Q 2906 2416 2648 2759 
Q 2391 3103 1925 3103 
Q 1463 3103 1205 2759 
Q 947 2416 947 1791 
Q 947 1169 1205 825 
Q 1463 481 1925 481 
Q 2391 481 2648 825 
Q 2906 1169 2906 1791 
z
M 3481 434 
Q 3481 -459 3084 -895 
Q 2688 -1331 1869 -1331 
Q 1566 -1331 1297 -1286 
Q 1028 -1241 775 -1147 
L 775 -588 
Q 1028 -725 1275 -790 
Q 1522 -856 1778 -856 
Q 2344 -856 2625 -561 
Q 2906 -266 2906 331 
L 2906 616 
Q 2728 306 2450 153 
Q 2172 0 1784 0 
Q 1141 0 747 490 
Q 353 981 353 1791 
Q 353 2603 747 3093 
Q 1141 3584 1784 3584 
Q 2172 3584 2450 3431 
Q 2728 3278 2906 2969 
L 2906 3500 
L 3481 3500 
L 3481 434 
z
" transform="scale(0.015625)"/>
      <path id="DejaVuSans-66" d="M 2375 4863 
L 2375 4384 
L 1825 4384 
Q 1516 4384 1395 4259 
Q 1275 4134 1275 3809 
L 1275 3500 
L 2222 3500 
L 2222 3053 
L 1275 3053 
L 1275 0 
L 697 0 
L 697 3053 
L 147 3053 
L 147 3500 
L 697 3500 
L 697 3744 
Q 697 4328 969 4595 
Q 1241 4863 1831 4863 
L 2375 4863 
z
" transform="scale(0.015625)"/>
      <path id="DejaVuSans-2c" d="M 750 794 
L 1409 794 
L 1409 256 
L 897 -744 
L 494 -744 
L 750 256 
L 750 794 
z
" transform="scale(0.015625)"/>
      <path id="DejaVuSans-72" d="M 2631 2963 
Q 2534 3019 2420 3045 
Q 2306 3072 2169 3072 
Q 1681 3072 1420 2755 
Q 1159 2438 1159 1844 
L 1159 0 
L 581 0 
L 581 3500 
L 1159 3500 
L 1159 2956 
Q 1341 3275 1631 3429 
Q 1922 3584 2338 3584 
Q 2397 3584 2469 3576 
Q 2541 3569 2628 3553 
L 2631 2963 
z
" transform="scale(0.015625)"/>
     </defs>
     <use xlink:href="#DejaVuSans-73"/>
     <use xlink:href="#DejaVuSans-61" x="52.099609"/>
     <use xlink:href="#DejaVuSans-6d" x="113.378906"/>
     <use xlink:href="#DejaVuSans-65" x="210.791016"/>
     <use xlink:href="#DejaVuSans-20" x="272.314453"/>
     <use xlink:href="#DejaVuSans-63" x="304.101562"/>
     <use xlink:href="#DejaVuSans-6f" x="359.082031"/>
     <use xlink:href="#DejaVuSans-64" x="420.263672"/>
     <use xlink:href="#DejaVuSans-65" x="483.740234"/>
     <use xlink:href="#DejaVuSans-20" x="545.263672"/>
     <use xlink:href="#DejaVuSans-6c" x="577.050781"/>
     <use xlink:href="#DejaVuSans-61" x="604.833984"/>
     <use xlink:href="#DejaVuSans-70" x="666.113281"/>
     <use xlink:href="#DejaVuSans-74" x="729.589844"/>
     <use xlink:href="#DejaVuSans-6f" x="768.798828"/>
     <use xlink:href="#DejaVuSans-70" x="829.980469"/>
     <use xlink:href="#DejaVuSans-20" x="893.457031"/>
     <use xlink:href="#DejaVuSans-2192" x="925.244141"/>
     <use xlink:href="#DejaVuSans-20" x="1009.033203"/>
     <use xlink:href="#DejaVuSans-6d" x="1040.820312"/>
     <use xlink:href="#DejaVuSans-75" x="1138.232422"/>
     <use xlink:href="#DejaVuSans-6c" x="1201.611328"/>
     <use xlink:href="#DejaVuSans-74" x="1229.394531"/>
     <use xlink:href="#DejaVuSans-69" x="1268.603516"/>
     <use xlink:href="#DejaVuSans-2d" x="1296.386719"/>
     <use xlink:href="#DejaVuSans-6e" x="1332.470703"/>
     <use xlink:href="#DejaVuSans-6f" x="1395.849609"/>
     <use xlink:href="#DejaVuSans-64" x="1457.03125"/>
     <use xlink:href="#DejaVuSans-65" x="1520.507812"/>
     <use xlink:href="#DejaVuSans-3a" x="1582.03125"/>
     <use xlink:href="#DejaVuSans-20" x="1615.722656"/>
     <use xlink:href="#DejaVuSans-79" x="1647.509766"/>
     <use xlink:href="#DejaVuSans-6f" x="1706.689453"/>
     <use xlink:href="#DejaVuSans-75" x="1767.871094"/>
     <use xlink:href="#DejaVuSans-20" x="1831.25"/>
     <use xlink:href="#DejaVuSans-63" x="1863.037109"/>
     <use xlink:href="#DejaVuSans-68" x="1918.017578"/>
     <use xlink:href="#DejaVuSans-61" x="1981.396484"/>
     <use xlink:href="#DejaVuSans-6e" x="2042.675781"/>
     <use xlink:href="#DejaVuSans-67" x="2106.054688"/>
     <use xlink:href="#DejaVuSans-65" x="2169.53125"/>
     <use xlink:href="#DejaVuSans-20" x="2231.054688"/>
     <use xlink:href="#DejaVuSans-74" x="2262.841797"/>
     <use xlink:href="#DejaVuSans-68" x="2302.050781"/>
     <use xlink:href="#DejaVuSans-65" x="2365.429688"/>
     <use xlink:href="#DejaVuSans-20" x="2426.953125"/>
     <use xlink:href="#DejaVuSans-63" x="2458.740234"/>
     <use xlink:href="#DejaVuSans-6f" x="2513.720703"/>
     <use xlink:href="#DejaVuSans-6e" x="2574.902344"/>
     <use xlink:href="#DejaVuSans-66" x="2638.28125"/>
     <use xlink:href="#DejaVuSans-69" x="2673.486328"/>
     <use xlink:href="#DejaVuSans-67" x="2701.269531"/>
     <use xlink:href="#DejaVuSans-2c" x="2764.746094"/>
     <use xlink:href="#DejaVuSans-20" x="2796.533203"/>
     <use xlink:href="#DejaVuSans-6e" x="2828.320312"/>
     <use xlink:href="#DejaVuSans-6f" x="2891.699219"/>
     <use xlink:href="#DejaVuSans-74" x="2952.880859"/>
     <use xlink:href="#DejaVuSans-20" x="2992.089844"/>
     <use xlink:href="#DejaVuSans-74" x="3023.876953"/>
     <use xlink:href="#DejaVuSans-68" x="3063.085938"/>
     <use xlink:href="#DejaVuSans-65" x="3126.464844"/>
     <use xlink:href="#DejaVuSans-20" x="3187.988281"/>
     <use xlink:href="#DejaVuSans-70" x="3219.775391"/>
     <use xlink:href="#DejaVuSans-72" x="3283.251953"/>
     <use xlink:href="#DejaVuSans-6f" x="3322.115234"/>
     <use xlink:href="#DejaVuSans-67" x="3383.296875"/>
     <use xlink:href="#DejaVuSans-72" x="3446.773438"/>
     <use xlink:href="#DejaVuSans-61" x="3487.886719"/>
     <use xlink:href="#DejaVuSans-6d" x="3549.166016"/>
    </g>
   </g>
   <g id="text_3">
    <!-- Ray Data -->
    <g style="fill: #2a78d6" transform="translate(87.477905 88.094382) scale(0.095 -0.095)">
     <defs>
      <path id="DejaVuSans-Bold-52" d="M 2297 2597 
Q 2675 2597 2839 2737 
Q 3003 2878 3003 3200 
Q 3003 3519 2839 3656 
Q 2675 3794 2297 3794 
L 1791 3794 
L 1791 2597 
L 2297 2597 
z
M 1791 1766 
L 1791 0 
L 588 0 
L 588 4666 
L 2425 4666 
Q 3347 4666 3776 4356 
Q 4206 4047 4206 3378 
Q 4206 2916 3982 2619 
Q 3759 2322 3309 2181 
Q 3556 2125 3751 1926 
Q 3947 1728 4147 1325 
L 4800 0 
L 3519 0 
L 2950 1159 
Q 2778 1509 2601 1637 
Q 2425 1766 2131 1766 
L 1791 1766 
z
" transform="scale(0.015625)"/>
      <path id="DejaVuSans-Bold-61" d="M 2106 1575 
Q 1756 1575 1579 1456 
Q 1403 1338 1403 1106 
Q 1403 894 1545 773 
Q 1688 653 1941 653 
Q 2256 653 2472 879 
Q 2688 1106 2688 1447 
L 2688 1575 
L 2106 1575 
z
M 3816 1997 
L 3816 0 
L 2688 0 
L 2688 519 
Q 2463 200 2181 54 
Q 1900 -91 1497 -91 
Q 953 -91 614 226 
Q 275 544 275 1050 
Q 275 1666 698 1953 
Q 1122 2241 2028 2241 
L 2688 2241 
L 2688 2328 
Q 2688 2594 2478 2717 
Q 2269 2841 1825 2841 
Q 1466 2841 1156 2769 
Q 847 2697 581 2553 
L 581 3406 
Q 941 3494 1303 3539 
Q 1666 3584 2028 3584 
Q 2975 3584 3395 3211 
Q 3816 2838 3816 1997 
z
" transform="scale(0.015625)"/>
      <path id="DejaVuSans-Bold-79" d="M 78 3500 
L 1197 3500 
L 2138 1125 
L 2938 3500 
L 4056 3500 
L 2584 -331 
Q 2363 -916 2067 -1148 
Q 1772 -1381 1288 -1381 
L 641 -1381 
L 641 -647 
L 991 -647 
Q 1275 -647 1404 -556 
Q 1534 -466 1606 -231 
L 1638 -134 
L 78 3500 
z
" transform="scale(0.015625)"/>
      <path id="DejaVuSans-Bold-20" transform="scale(0.015625)"/>
      <path id="DejaVuSans-Bold-44" d="M 1791 3756 
L 1791 909 
L 2222 909 
Q 2959 909 3348 1275 
Q 3738 1641 3738 2338 
Q 3738 3031 3350 3393 
Q 2963 3756 2222 3756 
L 1791 3756 
z
M 588 4666 
L 1856 4666 
Q 2919 4666 3439 4514 
Q 3959 4363 4331 4000 
Q 4659 3684 4818 3271 
Q 4978 2859 4978 2338 
Q 4978 1809 4818 1395 
Q 4659 981 4331 666 
Q 3956 303 3431 151 
Q 2906 0 1856 0 
L 588 0 
L 588 4666 
z
" transform="scale(0.015625)"/>
      <path id="DejaVuSans-Bold-74" d="M 1759 4494 
L 1759 3500 
L 2913 3500 
L 2913 2700 
L 1759 2700 
L 1759 1216 
Q 1759 972 1856 886 
Q 1953 800 2241 800 
L 2816 800 
L 2816 0 
L 1856 0 
Q 1194 0 917 276 
Q 641 553 641 1216 
L 641 2700 
L 84 2700 
L 84 3500 
L 641 3500 
L 641 4494 
L 1759 4494 
z
" transform="scale(0.015625)"/>
     </defs>
     <use xlink:href="#DejaVuSans-Bold-52"/>
     <use xlink:href="#DejaVuSans-Bold-61" x="77.001953"/>
     <use xlink:href="#DejaVuSans-Bold-79" x="141.357422"/>
     <use xlink:href="#DejaVuSans-Bold-20" x="206.542969"/>
     <use xlink:href="#DejaVuSans-Bold-44" x="241.357422"/>
     <use xlink:href="#DejaVuSans-Bold-61" x="324.365234"/>
     <use xlink:href="#DejaVuSans-Bold-74" x="391.845703"/>
     <use xlink:href="#DejaVuSans-Bold-61" x="439.648438"/>
    </g>
   </g>
   <g id="text_4">
    <!-- merchant vocab -->
    <g style="fill: #0b0b0b" transform="translate(78.278288 106.461591) scale(0.082 -0.082)">
     <defs>
      <path id="DejaVuSans-76" d="M 191 3500 
L 800 3500 
L 1894 563 
L 2988 3500 
L 3597 3500 
L 2284 0 
L 1503 0 
L 191 3500 
z
" transform="scale(0.015625)"/>
      <path id="DejaVuSans-62" d="M 3116 1747 
Q 3116 2381 2855 2742 
Q 2594 3103 2138 3103 
Q 1681 3103 1420 2742 
Q 1159 2381 1159 1747 
Q 1159 1113 1420 752 
Q 1681 391 2138 391 
Q 2594 391 2855 752 
Q 3116 1113 3116 1747 
z
M 1159 2969 
Q 1341 3281 1617 3432 
Q 1894 3584 2278 3584 
Q 2916 3584 3314 3078 
Q 3713 2572 3713 1747 
Q 3713 922 3314 415 
Q 2916 -91 2278 -91 
Q 1894 -91 1617 61 
Q 1341 213 1159 525 
L 1159 0 
L 581 0 
L 581 4863 
L 1159 4863 
L 1159 2969 
z
" transform="scale(0.015625)"/>
     </defs>
     <use xlink:href="#DejaVuSans-6d"/>
     <use xlink:href="#DejaVuSans-65" x="97.412109"/>
     <use xlink:href="#DejaVuSans-72" x="158.935547"/>
     <use xlink:href="#DejaVuSans-63" x="197.798828"/>
     <use xlink:href="#DejaVuSans-68" x="252.779297"/>
     <use xlink:href="#DejaVuSans-61" x="316.158203"/>
     <use xlink:href="#DejaVuSans-6e" x="377.4375"/>
     <use xlink:href="#DejaVuSans-74" x="440.816406"/>
     <use xlink:href="#DejaVuSans-20" x="480.025391"/>
     <use xlink:href="#DejaVuSans-76" x="511.8125"/>
     <use xlink:href="#DejaVuSans-6f" x="570.992188"/>
     <use xlink:href="#DejaVuSans-63" x="632.173828"/>
     <use xlink:href="#DejaVuSans-61" x="687.154297"/>
     <use xlink:href="#DejaVuSans-62" x="748.433594"/>
    </g>
    <!-- (freq scan, top-K) -->
    <g style="fill: #0b0b0b" transform="translate(75.908616 115.643797) scale(0.082 -0.082)">
     <defs>
      <path id="DejaVuSans-28" d="M 1984 4856 
Q 1566 4138 1362 3434 
Q 1159 2731 1159 2009 
Q 1159 1288 1364 580 
Q 1569 -128 1984 -844 
L 1484 -844 
Q 1016 -109 783 600 
Q 550 1309 550 2009 
Q 550 2706 781 3412 
Q 1013 4119 1484 4856 
L 1984 4856 
z
" transform="scale(0.015625)"/>
      <path id="DejaVuSans-71" d="M 947 1747 
Q 947 1113 1208 752 
Q 1469 391 1925 391 
Q 2381 391 2643 752 
Q 2906 1113 2906 1747 
Q 2906 2381 2643 2742 
Q 2381 3103 1925 3103 
Q 1469 3103 1208 2742 
Q 947 2381 947 1747 
z
M 2906 525 
Q 2725 213 2448 61 
Q 2172 -91 1784 -91 
Q 1150 -91 751 415 
Q 353 922 353 1747 
Q 353 2572 751 3078 
Q 1150 3584 1784 3584 
Q 2172 3584 2448 3432 
Q 2725 3281 2906 2969 
L 2906 3500 
L 3481 3500 
L 3481 -1331 
L 2906 -1331 
L 2906 525 
z
" transform="scale(0.015625)"/>
      <path id="DejaVuSans-4b" d="M 628 4666 
L 1259 4666 
L 1259 2694 
L 3353 4666 
L 4166 4666 
L 1850 2491 
L 4331 0 
L 3500 0 
L 1259 2247 
L 1259 0 
L 628 0 
L 628 4666 
z
" transform="scale(0.015625)"/>
      <path id="DejaVuSans-29" d="M 513 4856 
L 1013 4856 
Q 1481 4119 1714 3412 
Q 1947 2706 1947 2009 
Q 1947 1309 1714 600 
Q 1481 -109 1013 -844 
L 513 -844 
Q 928 -128 1133 580 
Q 1338 1288 1338 2009 
Q 1338 2731 1133 3434 
Q 928 4138 513 4856 
z
" transform="scale(0.015625)"/>
     </defs>
     <use xlink:href="#DejaVuSans-28"/>
     <use xlink:href="#DejaVuSans-66" x="39.013672"/>
     <use xlink:href="#DejaVuSans-72" x="74.21875"/>
     <use xlink:href="#DejaVuSans-65" x="113.082031"/>
     <use xlink:href="#DejaVuSans-71" x="174.605469"/>
     <use xlink:href="#DejaVuSans-20" x="238.082031"/>
     <use xlink:href="#DejaVuSans-73" x="269.869141"/>
     <use xlink:href="#DejaVuSans-63" x="321.96875"/>
     <use xlink:href="#DejaVuSans-61" x="376.949219"/>
     <use xlink:href="#DejaVuSans-6e" x="438.228516"/>
     <use xlink:href="#DejaVuSans-2c" x="501.607422"/>
     <use xlink:href="#DejaVuSans-20" x="533.394531"/>
     <use xlink:href="#DejaVuSans-74" x="565.181641"/>
     <use xlink:href="#DejaVuSans-6f" x="604.390625"/>
     <use xlink:href="#DejaVuSans-70" x="665.572266"/>
     <use xlink:href="#DejaVuSans-2d" x="729.048828"/>
     <use xlink:href="#DejaVuSans-4b" x="765.132812"/>
     <use xlink:href="#DejaVuSans-29" x="830.708984"/>
    </g>
   </g>
   <g id="text_5">
    <g id="patch_15">
     <path d="M 21.954813 56.684089 
L 67.408156 56.684089 
Q 69.258156 56.684089 69.258156 54.834089 
L 69.258156 39.385896 
Q 69.258156 37.535896 67.408156 37.535896 
L 21.954813 37.535896 
Q 20.104813 37.535896 20.104813 39.385896 
L 20.104813 54.834089 
Q 20.104813 56.684089 21.954813 56.684089 
z
" style="fill: #e1e0d9; opacity: 0.7"/>
    </g>
    <!-- raw parquet -->
    <g style="fill: #52514e" transform="translate(22.197625 45.008739) scale(0.074 -0.074)">
     <defs>
      <path id="DejaVuSans-77" d="M 269 3500 
L 844 3500 
L 1563 769 
L 2278 3500 
L 2956 3500 
L 3675 769 
L 4391 3500 
L 4966 3500 
L 4050 0 
L 3372 0 
L 2619 2869 
L 1863 0 
L 1184 0 
L 269 3500 
z
" transform="scale(0.015625)"/>
     </defs>
     <use xlink:href="#DejaVuSans-72"/>
     <use xlink:href="#DejaVuSans-61" x="41.113281"/>
     <use xlink:href="#DejaVuSans-77" x="102.392578"/>
     <use xlink:href="#DejaVuSans-20" x="184.179688"/>
     <use xlink:href="#DejaVuSans-70" x="215.966797"/>
     <use xlink:href="#DejaVuSans-61" x="279.443359"/>
     <use xlink:href="#DejaVuSans-72" x="340.722656"/>
     <use xlink:href="#DejaVuSans-71" x="380.085938"/>
     <use xlink:href="#DejaVuSans-75" x="443.5625"/>
     <use xlink:href="#DejaVuSans-65" x="506.941406"/>
     <use xlink:href="#DejaVuSans-74" x="568.464844"/>
    </g>
    <!-- + splits.json -->
    <g style="fill: #52514e" transform="translate(21.954813 53.295121) scale(0.074 -0.074)">
     <defs>
      <path id="DejaVuSans-2b" d="M 2944 4013 
L 2944 2272 
L 4684 2272 
L 4684 1741 
L 2944 1741 
L 2944 0 
L 2419 0 
L 2419 1741 
L 678 1741 
L 678 2272 
L 2419 2272 
L 2419 4013 
L 2944 4013 
z
" transform="scale(0.015625)"/>
      <path id="DejaVuSans-2e" d="M 684 794 
L 1344 794 
L 1344 0 
L 684 0 
L 684 794 
z
" transform="scale(0.015625)"/>
      <path id="DejaVuSans-6a" d="M 603 3500 
L 1178 3500 
L 1178 -63 
Q 1178 -731 923 -1031 
Q 669 -1331 103 -1331 
L -116 -1331 
L -116 -844 
L 38 -844 
Q 366 -844 484 -692 
Q 603 -541 603 -63 
L 603 3500 
z
M 603 4863 
L 1178 4863 
L 1178 4134 
L 603 4134 
L 603 4863 
z
" transform="scale(0.015625)"/>
     </defs>
     <use xlink:href="#DejaVuSans-2b"/>
     <use xlink:href="#DejaVuSans-20" x="83.789062"/>
     <use xlink:href="#DejaVuSans-73" x="115.576172"/>
     <use xlink:href="#DejaVuSans-70" x="167.675781"/>
     <use xlink:href="#DejaVuSans-6c" x="231.152344"/>
     <use xlink:href="#DejaVuSans-69" x="258.935547"/>
     <use xlink:href="#DejaVuSans-74" x="286.71875"/>
     <use xlink:href="#DejaVuSans-73" x="325.927734"/>
     <use xlink:href="#DejaVuSans-2e" x="378.027344"/>
     <use xlink:href="#DejaVuSans-6a" x="409.814453"/>
     <use xlink:href="#DejaVuSans-73" x="437.597656"/>
     <use xlink:href="#DejaVuSans-6f" x="489.697266"/>
     <use xlink:href="#DejaVuSans-6e" x="550.878906"/>
    </g>
   </g>
   <g id="text_6">
    <!-- Ray Data -->
    <g style="fill: #2a78d6" transform="translate(195.357905 88.094382) scale(0.095 -0.095)">
     <use xlink:href="#DejaVuSans-Bold-52"/>
     <use xlink:href="#DejaVuSans-Bold-61" x="77.001953"/>
     <use xlink:href="#DejaVuSans-Bold-79" x="141.357422"/>
     <use xlink:href="#DejaVuSans-Bold-20" x="206.542969"/>
     <use xlink:href="#DejaVuSans-Bold-44" x="241.357422"/>
     <use xlink:href="#DejaVuSans-Bold-61" x="324.365234"/>
     <use xlink:href="#DejaVuSans-Bold-74" x="391.845703"/>
     <use xlink:href="#DejaVuSans-Bold-61" x="439.648438"/>
    </g>
   </g>
   <g id="text_7">
    <!-- tokenize -->
    <g style="fill: #0b0b0b" transform="translate(202.170709 106.461591) scale(0.082 -0.082)">
     <defs>
      <path id="DejaVuSans-6b" d="M 581 4863 
L 1159 4863 
L 1159 1991 
L 2875 3500 
L 3609 3500 
L 1753 1863 
L 3688 0 
L 2938 0 
L 1159 1709 
L 1159 0 
L 581 0 
L 581 4863 
z
" transform="scale(0.015625)"/>
      <path id="DejaVuSans-7a" d="M 353 3500 
L 3084 3500 
L 3084 2975 
L 922 459 
L 3084 459 
L 3084 0 
L 275 0 
L 275 525 
L 2438 3041 
L 353 3041 
L 353 3500 
z
" transform="scale(0.015625)"/>
     </defs>
     <use xlink:href="#DejaVuSans-74"/>
     <use xlink:href="#DejaVuSans-6f" x="39.208984"/>
     <use xlink:href="#DejaVuSans-6b" x="100.390625"/>
     <use xlink:href="#DejaVuSans-65" x="154.675781"/>
     <use xlink:href="#DejaVuSans-6e" x="216.199219"/>
     <use xlink:href="#DejaVuSans-69" x="279.578125"/>
     <use xlink:href="#DejaVuSans-7a" x="307.361328"/>
     <use xlink:href="#DejaVuSans-65" x="359.851562"/>
    </g>
    <!-- (static/dynamic, map_groups) -->
    <g style="fill: #0b0b0b" transform="translate(158.275725 115.643797) scale(0.082 -0.082)">
     <defs>
      <path id="DejaVuSans-2f" d="M 1625 4666 
L 2156 4666 
L 531 -594 
L 0 -594 
L 1625 4666 
z
" transform="scale(0.015625)"/>
      <path id="DejaVuSans-5f" d="M 3263 -1063 
L 3263 -1509 
L -63 -1509 
L -63 -1063 
L 3263 -1063 
z
" transform="scale(0.015625)"/>
     </defs>
     <use xlink:href="#DejaVuSans-28"/>
     <use xlink:href="#DejaVuSans-73" x="39.013672"/>
     <use xlink:href="#DejaVuSans-74" x="91.113281"/>
     <use xlink:href="#DejaVuSans-61" x="130.322266"/>
     <use xlink:href="#DejaVuSans-74" x="191.601562"/>
     <use xlink:href="#DejaVuSans-69" x="230.810547"/>
     <use xlink:href="#DejaVuSans-63" x="258.59375"/>
     <use xlink:href="#DejaVuSans-2f" x="313.574219"/>
     <use xlink:href="#DejaVuSans-64" x="347.265625"/>
     <use xlink:href="#DejaVuSans-79" x="410.742188"/>
     <use xlink:href="#DejaVuSans-6e" x="469.921875"/>
     <use xlink:href="#DejaVuSans-61" x="533.300781"/>
     <use xlink:href="#DejaVuSans-6d" x="594.580078"/>
     <use xlink:href="#DejaVuSans-69" x="691.992188"/>
     <use xlink:href="#DejaVuSans-63" x="719.775391"/>
     <use xlink:href="#DejaVuSans-2c" x="774.755859"/>
     <use xlink:href="#DejaVuSans-20" x="806.542969"/>
     <use xlink:href="#DejaVuSans-6d" x="838.330078"/>
     <use xlink:href="#DejaVuSans-61" x="935.742188"/>
     <use xlink:href="#DejaVuSans-70" x="997.021484"/>
     <use xlink:href="#DejaVuSans-5f" x="1060.498047"/>
     <use xlink:href="#DejaVuSans-67" x="1110.498047"/>
     <use xlink:href="#DejaVuSans-72" x="1173.974609"/>
     <use xlink:href="#DejaVuSans-6f" x="1212.837891"/>
     <use xlink:href="#DejaVuSans-75" x="1274.019531"/>
     <use xlink:href="#DejaVuSans-70" x="1337.398438"/>
     <use xlink:href="#DejaVuSans-73" x="1400.875"/>
     <use xlink:href="#DejaVuSans-29" x="1452.974609"/>
    </g>
   </g>
   <g id="text_8">
    <g id="patch_16">
     <path d="M 145.662366 56.684089 
L 185.351803 56.684089 
Q 187.201803 56.684089 187.201803 54.834089 
L 187.201803 47.672277 
Q 187.201803 45.822277 185.351803 45.822277 
L 145.662366 45.822277 
Q 143.812366 45.822277 143.812366 47.672277 
L 143.812366 54.834089 
Q 143.812366 56.684089 145.662366 56.684089 
z
" style="fill: #e1e0d9; opacity: 0.7"/>
    </g>
    <!-- vocab.json -->
    <g style="fill: #52514e" transform="translate(145.662366 53.295121) scale(0.074 -0.074)">
     <use xlink:href="#DejaVuSans-76"/>
     <use xlink:href="#DejaVuSans-6f" x="59.179688"/>
     <use xlink:href="#DejaVuSans-63" x="120.361328"/>
     <use xlink:href="#DejaVuSans-61" x="175.341797"/>
     <use xlink:href="#DejaVuSans-62" x="236.621094"/>
     <use xlink:href="#DejaVuSans-2e" x="300.097656"/>
     <use xlink:href="#DejaVuSans-6a" x="331.884766"/>
     <use xlink:href="#DejaVuSans-73" x="359.667969"/>
     <use xlink:href="#DejaVuSans-6f" x="411.767578"/>
     <use xlink:href="#DejaVuSans-6e" x="472.949219"/>
    </g>
   </g>
   <g id="text_9">
    <!-- Ray Train -->
    <g style="fill: #104281" transform="translate(302.587006 88.094382) scale(0.095 -0.095)">
     <defs>
      <path id="DejaVuSans-Bold-54" d="M 31 4666 
L 4331 4666 
L 4331 3756 
L 2784 3756 
L 2784 0 
L 1581 0 
L 1581 3756 
L 31 3756 
L 31 4666 
z
" transform="scale(0.015625)"/>
      <path id="DejaVuSans-Bold-72" d="M 3138 2547 
Q 2991 2616 2845 2648 
Q 2700 2681 2553 2681 
Q 2122 2681 1889 2404 
Q 1656 2128 1656 1613 
L 1656 0 
L 538 0 
L 538 3500 
L 1656 3500 
L 1656 2925 
Q 1872 3269 2151 3426 
Q 2431 3584 2822 3584 
Q 2878 3584 2943 3579 
Q 3009 3575 3134 3559 
L 3138 2547 
z
" transform="scale(0.015625)"/>
      <path id="DejaVuSans-Bold-69" d="M 538 3500 
L 1656 3500 
L 1656 0 
L 538 0 
L 538 3500 
z
M 538 4863 
L 1656 4863 
L 1656 3950 
L 538 3950 
L 538 4863 
z
" transform="scale(0.015625)"/>
      <path id="DejaVuSans-Bold-6e" d="M 4056 2131 
L 4056 0 
L 2931 0 
L 2931 347 
L 2931 1631 
Q 2931 2084 2911 2256 
Q 2891 2428 2841 2509 
Q 2775 2619 2662 2680 
Q 2550 2741 2406 2741 
Q 2056 2741 1856 2470 
Q 1656 2200 1656 1722 
L 1656 0 
L 538 0 
L 538 3500 
L 1656 3500 
L 1656 2988 
Q 1909 3294 2193 3439 
Q 2478 3584 2822 3584 
Q 3428 3584 3742 3212 
Q 4056 2841 4056 2131 
z
" transform="scale(0.015625)"/>
     </defs>
     <use xlink:href="#DejaVuSans-Bold-52"/>
     <use xlink:href="#DejaVuSans-Bold-61" x="77.001953"/>
     <use xlink:href="#DejaVuSans-Bold-79" x="141.357422"/>
     <use xlink:href="#DejaVuSans-Bold-20" x="206.542969"/>
     <use xlink:href="#DejaVuSans-Bold-54" x="241.357422"/>
     <use xlink:href="#DejaVuSans-Bold-72" x="298.570312"/>
     <use xlink:href="#DejaVuSans-Bold-61" x="347.886719"/>
     <use xlink:href="#DejaVuSans-Bold-69" x="415.367188"/>
     <use xlink:href="#DejaVuSans-Bold-6e" x="449.644531"/>
    </g>
   </g>
   <g id="text_10">
    <!-- masked pretrain + InfoNCE -->
    <g style="fill: #0b0b0b" transform="translate(271.446647 106.461591) scale(0.082 -0.082)">
     <defs>
      <path id="DejaVuSans-49" d="M 628 4666 
L 1259 4666 
L 1259 0 
L 628 0 
L 628 4666 
z
" transform="scale(0.015625)"/>
      <path id="DejaVuSans-4e" d="M 628 4666 
L 1478 4666 
L 3547 763 
L 3547 4666 
L 4159 4666 
L 4159 0 
L 3309 0 
L 1241 3903 
L 1241 0 
L 628 0 
L 628 4666 
z
" transform="scale(0.015625)"/>
      <path id="DejaVuSans-43" d="M 4122 4306 
L 4122 3641 
Q 3803 3938 3442 4084 
Q 3081 4231 2675 4231 
Q 1875 4231 1450 3742 
Q 1025 3253 1025 2328 
Q 1025 1406 1450 917 
Q 1875 428 2675 428 
Q 3081 428 3442 575 
Q 3803 722 4122 1019 
L 4122 359 
Q 3791 134 3420 21 
Q 3050 -91 2638 -91 
Q 1578 -91 968 557 
Q 359 1206 359 2328 
Q 359 3453 968 4101 
Q 1578 4750 2638 4750 
Q 3056 4750 3426 4639 
Q 3797 4528 4122 4306 
z
" transform="scale(0.015625)"/>
      <path id="DejaVuSans-45" d="M 628 4666 
L 3578 4666 
L 3578 4134 
L 1259 4134 
L 1259 2753 
L 3481 2753 
L 3481 2222 
L 1259 2222 
L 1259 531 
L 3634 531 
L 3634 0 
L 628 0 
L 628 4666 
z
" transform="scale(0.015625)"/>
     </defs>
     <use xlink:href="#DejaVuSans-6d"/>
     <use xlink:href="#DejaVuSans-61" x="97.412109"/>
     <use xlink:href="#DejaVuSans-73" x="158.691406"/>
     <use xlink:href="#DejaVuSans-6b" x="210.791016"/>
     <use xlink:href="#DejaVuSans-65" x="265.076172"/>
     <use xlink:href="#DejaVuSans-64" x="326.599609"/>
     <use xlink:href="#DejaVuSans-20" x="390.076172"/>
     <use xlink:href="#DejaVuSans-70" x="421.863281"/>
     <use xlink:href="#DejaVuSans-72" x="485.339844"/>
     <use xlink:href="#DejaVuSans-65" x="524.203125"/>
     <use xlink:href="#DejaVuSans-74" x="585.726562"/>
     <use xlink:href="#DejaVuSans-72" x="624.935547"/>
     <use xlink:href="#DejaVuSans-61" x="666.048828"/>
     <use xlink:href="#DejaVuSans-69" x="727.328125"/>
     <use xlink:href="#DejaVuSans-6e" x="755.111328"/>
     <use xlink:href="#DejaVuSans-20" x="818.490234"/>
     <use xlink:href="#DejaVuSans-2b" x="850.277344"/>
     <use xlink:href="#DejaVuSans-20" x="934.066406"/>
     <use xlink:href="#DejaVuSans-49" x="965.853516"/>
     <use xlink:href="#DejaVuSans-6e" x="995.345703"/>
     <use xlink:href="#DejaVuSans-66" x="1058.724609"/>
     <use xlink:href="#DejaVuSans-6f" x="1093.929688"/>
     <use xlink:href="#DejaVuSans-4e" x="1155.111328"/>
     <use xlink:href="#DejaVuSans-43" x="1229.916016"/>
     <use xlink:href="#DejaVuSans-45" x="1299.740234"/>
    </g>
    <!-- (PyTorch DDP) -->
    <g style="fill: #0b0b0b" transform="translate(298.377881 115.643797) scale(0.082 -0.082)">
     <defs>
      <path id="DejaVuSans-50" d="M 1259 4147 
L 1259 2394 
L 2053 2394 
Q 2494 2394 2734 2622 
Q 2975 2850 2975 3272 
Q 2975 3691 2734 3919 
Q 2494 4147 2053 4147 
L 1259 4147 
z
M 628 4666 
L 2053 4666 
Q 2838 4666 3239 4311 
Q 3641 3956 3641 3272 
Q 3641 2581 3239 2228 
Q 2838 1875 2053 1875 
L 1259 1875 
L 1259 0 
L 628 0 
L 628 4666 
z
" transform="scale(0.015625)"/>
      <path id="DejaVuSans-54" d="M -19 4666 
L 3928 4666 
L 3928 4134 
L 2272 4134 
L 2272 0 
L 1638 0 
L 1638 4134 
L -19 4134 
L -19 4666 
z
" transform="scale(0.015625)"/>
      <path id="DejaVuSans-44" d="M 1259 4147 
L 1259 519 
L 2022 519 
Q 2988 519 3436 956 
Q 3884 1394 3884 2338 
Q 3884 3275 3436 3711 
Q 2988 4147 2022 4147 
L 1259 4147 
z
M 628 4666 
L 1925 4666 
Q 3281 4666 3915 4102 
Q 4550 3538 4550 2338 
Q 4550 1131 3912 565 
Q 3275 0 1925 0 
L 628 0 
L 628 4666 
z
" transform="scale(0.015625)"/>
     </defs>
     <use xlink:href="#DejaVuSans-28"/>
     <use xlink:href="#DejaVuSans-50" x="39.013672"/>
     <use xlink:href="#DejaVuSans-79" x="99.316406"/>
     <use xlink:href="#DejaVuSans-54" x="158.496094"/>
     <use xlink:href="#DejaVuSans-6f" x="202.580078"/>
     <use xlink:href="#DejaVuSans-72" x="263.761719"/>
     <use xlink:href="#DejaVuSans-63" x="302.625"/>
     <use xlink:href="#DejaVuSans-68" x="357.605469"/>
     <use xlink:href="#DejaVuSans-20" x="420.984375"/>
     <use xlink:href="#DejaVuSans-44" x="452.771484"/>
     <use xlink:href="#DejaVuSans-44" x="529.773438"/>
     <use xlink:href="#DejaVuSans-50" x="606.775391"/>
     <use xlink:href="#DejaVuSans-29" x="667.078125"/>
    </g>
   </g>
   <g id="text_11">
    <g id="patch_17">
     <path d="M 245.901866 56.684089 
L 300.872303 56.684089 
Q 302.722303 56.684089 302.722303 54.834089 
L 302.722303 39.385896 
Q 302.722303 37.535896 300.872303 37.535896 
L 245.901866 37.535896 
Q 244.051866 37.535896 244.051866 39.385896 
L 244.051866 54.834089 
Q 244.051866 56.684089 245.901866 56.684089 
z
" style="fill: #e1e0d9; opacity: 0.7"/>
    </g>
    <!-- token windows -->
    <g style="fill: #52514e" transform="translate(245.901866 45.008739) scale(0.074 -0.074)">
     <use xlink:href="#DejaVuSans-74"/>
     <use xlink:href="#DejaVuSans-6f" x="39.208984"/>
     <use xlink:href="#DejaVuSans-6b" x="100.390625"/>
     <use xlink:href="#DejaVuSans-65" x="154.675781"/>
     <use xlink:href="#DejaVuSans-6e" x="216.199219"/>
     <use xlink:href="#DejaVuSans-20" x="279.578125"/>
     <use xlink:href="#DejaVuSans-77" x="311.365234"/>
     <use xlink:href="#DejaVuSans-69" x="393.152344"/>
     <use xlink:href="#DejaVuSans-6e" x="420.935547"/>
     <use xlink:href="#DejaVuSans-64" x="484.314453"/>
     <use xlink:href="#DejaVuSans-6f" x="547.791016"/>
     <use xlink:href="#DejaVuSans-77" x="608.972656"/>
     <use xlink:href="#DejaVuSans-73" x="690.759766"/>
    </g>
    <!-- (object store) -->
    <g style="fill: #52514e" transform="translate(248.565287 53.295121) scale(0.074 -0.074)">
     <use xlink:href="#DejaVuSans-28"/>
     <use xlink:href="#DejaVuSans-6f" x="39.013672"/>
     <use xlink:href="#DejaVuSans-62" x="100.195312"/>
     <use xlink:href="#DejaVuSans-6a" x="163.671875"/>
     <use xlink:href="#DejaVuSans-65" x="191.455078"/>
     <use xlink:href="#DejaVuSans-63" x="252.978516"/>
     <use xlink:href="#DejaVuSans-74" x="307.958984"/>
     <use xlink:href="#DejaVuSans-20" x="347.167969"/>
     <use xlink:href="#DejaVuSans-73" x="378.955078"/>
     <use xlink:href="#DejaVuSans-74" x="431.054688"/>
     <use xlink:href="#DejaVuSans-6f" x="470.263672"/>
     <use xlink:href="#DejaVuSans-72" x="531.445312"/>
     <use xlink:href="#DejaVuSans-65" x="570.308594"/>
     <use xlink:href="#DejaVuSans-29" x="631.832031"/>
    </g>
   </g>
   <g id="text_12">
    <!-- Ray Data -->
    <g style="fill: #2a78d6" transform="translate(411.117905 88.094382) scale(0.095 -0.095)">
     <use xlink:href="#DejaVuSans-Bold-52"/>
     <use xlink:href="#DejaVuSans-Bold-61" x="77.001953"/>
     <use xlink:href="#DejaVuSans-Bold-79" x="141.357422"/>
     <use xlink:href="#DejaVuSans-Bold-20" x="206.542969"/>
     <use xlink:href="#DejaVuSans-Bold-44" x="241.357422"/>
     <use xlink:href="#DejaVuSans-Bold-61" x="324.365234"/>
     <use xlink:href="#DejaVuSans-Bold-74" x="391.845703"/>
     <use xlink:href="#DejaVuSans-Bold-61" x="439.648438"/>
    </g>
   </g>
   <g id="text_13">
    <!-- embedding extraction -->
    <g style="fill: #0b0b0b" transform="translate(389.925147 106.461591) scale(0.082 -0.082)">
     <defs>
      <path id="DejaVuSans-78" d="M 3513 3500 
L 2247 1797 
L 3578 0 
L 2900 0 
L 1881 1375 
L 863 0 
L 184 0 
L 1544 1831 
L 300 3500 
L 978 3500 
L 1906 2253 
L 2834 3500 
L 3513 3500 
z
" transform="scale(0.015625)"/>
     </defs>
     <use xlink:href="#DejaVuSans-65"/>
     <use xlink:href="#DejaVuSans-6d" x="61.523438"/>
     <use xlink:href="#DejaVuSans-62" x="158.935547"/>
     <use xlink:href="#DejaVuSans-65" x="222.412109"/>
     <use xlink:href="#DejaVuSans-64" x="283.935547"/>
     <use xlink:href="#DejaVuSans-64" x="347.412109"/>
     <use xlink:href="#DejaVuSans-69" x="410.888672"/>
     <use xlink:href="#DejaVuSans-6e" x="438.671875"/>
     <use xlink:href="#DejaVuSans-67" x="502.050781"/>
     <use xlink:href="#DejaVuSans-20" x="565.527344"/>
     <use xlink:href="#DejaVuSans-65" x="597.314453"/>
     <use xlink:href="#DejaVuSans-78" x="657.087891"/>
     <use xlink:href="#DejaVuSans-74" x="716.267578"/>
     <use xlink:href="#DejaVuSans-72" x="755.476562"/>
     <use xlink:href="#DejaVuSans-61" x="796.589844"/>
     <use xlink:href="#DejaVuSans-63" x="857.869141"/>
     <use xlink:href="#DejaVuSans-74" x="912.849609"/>
     <use xlink:href="#DejaVuSans-69" x="952.058594"/>
     <use xlink:href="#DejaVuSans-6f" x="979.841797"/>
     <use xlink:href="#DejaVuSans-6e" x="1041.023438"/>
    </g>
    <!-- (CPU read → GPU forward) -->
    <g style="fill: #0b0b0b" transform="translate(381.423412 115.643797) scale(0.082 -0.082)">
     <defs>
      <path id="DejaVuSans-55" d="M 556 4666 
L 1191 4666 
L 1191 1831 
Q 1191 1081 1462 751 
Q 1734 422 2344 422 
Q 2950 422 3222 751 
Q 3494 1081 3494 1831 
L 3494 4666 
L 4128 4666 
L 4128 1753 
Q 4128 841 3676 375 
Q 3225 -91 2344 -91 
Q 1459 -91 1007 375 
Q 556 841 556 1753 
L 556 4666 
z
" transform="scale(0.015625)"/>
      <path id="DejaVuSans-47" d="M 3809 666 
L 3809 1919 
L 2778 1919 
L 2778 2438 
L 4434 2438 
L 4434 434 
Q 4069 175 3628 42 
Q 3188 -91 2688 -91 
Q 1594 -91 976 548 
Q 359 1188 359 2328 
Q 359 3472 976 4111 
Q 1594 4750 2688 4750 
Q 3144 4750 3555 4637 
Q 3966 4525 4313 4306 
L 4313 3634 
Q 3963 3931 3569 4081 
Q 3175 4231 2741 4231 
Q 1884 4231 1454 3753 
Q 1025 3275 1025 2328 
Q 1025 1384 1454 906 
Q 1884 428 2741 428 
Q 3075 428 3337 486 
Q 3600 544 3809 666 
z
" transform="scale(0.015625)"/>
     </defs>
     <use xlink:href="#DejaVuSans-28"/>
     <use xlink:href="#DejaVuSans-43" x="39.013672"/>
     <use xlink:href="#DejaVuSans-50" x="108.837891"/>
     <use xlink:href="#DejaVuSans-55" x="169.140625"/>
     <use xlink:href="#DejaVuSans-20" x="242.333984"/>
     <use xlink:href="#DejaVuSans-72" x="274.121094"/>
     <use xlink:href="#DejaVuSans-65" x="312.984375"/>
     <use xlink:href="#DejaVuSans-61" x="374.507812"/>
     <use xlink:href="#DejaVuSans-64" x="435.787109"/>
     <use xlink:href="#DejaVuSans-20" x="499.263672"/>
     <use xlink:href="#DejaVuSans-2192" x="531.050781"/>
     <use xlink:href="#DejaVuSans-20" x="614.839844"/>
     <use xlink:href="#DejaVuSans-47" x="646.626953"/>
     <use xlink:href="#DejaVuSans-50" x="724.117188"/>
     <use xlink:href="#DejaVuSans-55" x="784.419922"/>
     <use xlink:href="#DejaVuSans-20" x="857.613281"/>
     <use xlink:href="#DejaVuSans-66" x="889.400391"/>
     <use xlink:href="#DejaVuSans-6f" x="924.605469"/>
     <use xlink:href="#DejaVuSans-72" x="985.787109"/>
     <use xlink:href="#DejaVuSans-77" x="1026.900391"/>
     <use xlink:href="#DejaVuSans-61" x="1108.6875"/>
     <use xlink:href="#DejaVuSans-72" x="1169.966797"/>
     <use xlink:href="#DejaVuSans-64" x="1209.330078"/>
     <use xlink:href="#DejaVuSans-29" x="1272.806641"/>
    </g>
   </g>
   <g id="text_14">
    <g id="patch_18">
     <path d="M 360.998022 56.684089 
L 401.536147 56.684089 
Q 403.386147 56.684089 403.386147 54.834089 
L 403.386147 47.672277 
Q 403.386147 45.822277 401.536147 45.822277 
L 360.998022 45.822277 
Q 359.148022 45.822277 359.148022 47.672277 
L 359.148022 54.834089 
Q 359.148022 56.684089 360.998022 56.684089 
z
" style="fill: #e1e0d9; opacity: 0.7"/>
    </g>
    <!-- checkpoint -->
    <g style="fill: #52514e" transform="translate(360.998022 53.295121) scale(0.074 -0.074)">
     <use xlink:href="#DejaVuSans-63"/>
     <use xlink:href="#DejaVuSans-68" x="54.980469"/>
     <use xlink:href="#DejaVuSans-65" x="118.359375"/>
     <use xlink:href="#DejaVuSans-63" x="179.882812"/>
     <use xlink:href="#DejaVuSans-6b" x="234.863281"/>
     <use xlink:href="#DejaVuSans-70" x="292.773438"/>
     <use xlink:href="#DejaVuSans-6f" x="356.25"/>
     <use xlink:href="#DejaVuSans-69" x="417.431641"/>
     <use xlink:href="#DejaVuSans-6e" x="445.214844"/>
     <use xlink:href="#DejaVuSans-74" x="508.59375"/>
    </g>
   </g>
   <g id="text_15">
    <!-- XGBoost -->
    <g style="fill: #8a6d1f" transform="translate(520.281889 88.094382) scale(0.095 -0.095)">
     <defs>
      <path id="DejaVuSans-Bold-58" d="M 3188 2381 
L 4806 0 
L 3553 0 
L 2463 1594 
L 1381 0 
L 122 0 
L 1741 2381 
L 184 4666 
L 1441 4666 
L 2463 3163 
L 3481 4666 
L 4744 4666 
L 3188 2381 
z
" transform="scale(0.015625)"/>
      <path id="DejaVuSans-Bold-47" d="M 4781 347 
Q 4331 128 3847 18 
Q 3363 -91 2847 -91 
Q 1681 -91 1000 561 
Q 319 1213 319 2328 
Q 319 3456 1012 4103 
Q 1706 4750 2913 4750 
Q 3378 4750 3804 4662 
Q 4231 4575 4609 4403 
L 4609 3438 
Q 4219 3659 3833 3768 
Q 3447 3878 3059 3878 
Q 2341 3878 1952 3476 
Q 1563 3075 1563 2328 
Q 1563 1588 1938 1184 
Q 2313 781 3003 781 
Q 3191 781 3352 804 
Q 3513 828 3641 878 
L 3641 1784 
L 2906 1784 
L 2906 2591 
L 4781 2591 
L 4781 347 
z
" transform="scale(0.015625)"/>
      <path id="DejaVuSans-Bold-42" d="M 2456 2859 
Q 2741 2859 2887 2984 
Q 3034 3109 3034 3353 
Q 3034 3594 2887 3720 
Q 2741 3847 2456 3847 
L 1791 3847 
L 1791 2859 
L 2456 2859 
z
M 2497 819 
Q 2859 819 3042 972 
Q 3225 1125 3225 1434 
Q 3225 1738 3044 1889 
Q 2863 2041 2497 2041 
L 1791 2041 
L 1791 819 
L 2497 819 
z
M 3616 2497 
Q 4003 2384 4215 2081 
Q 4428 1778 4428 1338 
Q 4428 663 3972 331 
Q 3516 0 2584 0 
L 588 0 
L 588 4666 
L 2394 4666 
Q 3366 4666 3802 4372 
Q 4238 4078 4238 3431 
Q 4238 3091 4078 2852 
Q 3919 2613 3616 2497 
z
" transform="scale(0.015625)"/>
      <path id="DejaVuSans-Bold-6f" d="M 2203 2784 
Q 1831 2784 1636 2517 
Q 1441 2250 1441 1747 
Q 1441 1244 1636 976 
Q 1831 709 2203 709 
Q 2569 709 2762 976 
Q 2956 1244 2956 1747 
Q 2956 2250 2762 2517 
Q 2569 2784 2203 2784 
z
M 2203 3584 
Q 3106 3584 3614 3096 
Q 4122 2609 4122 1747 
Q 4122 884 3614 396 
Q 3106 -91 2203 -91 
Q 1297 -91 786 396 
Q 275 884 275 1747 
Q 275 2609 786 3096 
Q 1297 3584 2203 3584 
z
" transform="scale(0.015625)"/>
      <path id="DejaVuSans-Bold-73" d="M 3272 3391 
L 3272 2541 
Q 2913 2691 2578 2766 
Q 2244 2841 1947 2841 
Q 1628 2841 1473 2761 
Q 1319 2681 1319 2516 
Q 1319 2381 1436 2309 
Q 1553 2238 1856 2203 
L 2053 2175 
Q 2913 2066 3209 1816 
Q 3506 1566 3506 1031 
Q 3506 472 3093 190 
Q 2681 -91 1863 -91 
Q 1516 -91 1145 -36 
Q 775 19 384 128 
L 384 978 
Q 719 816 1070 734 
Q 1422 653 1784 653 
Q 2113 653 2278 743 
Q 2444 834 2444 1013 
Q 2444 1163 2330 1236 
Q 2216 1309 1875 1350 
L 1678 1375 
Q 931 1469 631 1722 
Q 331 1975 331 2491 
Q 331 3047 712 3315 
Q 1094 3584 1881 3584 
Q 2191 3584 2531 3537 
Q 2872 3491 3272 3391 
z
" transform="scale(0.015625)"/>
     </defs>
     <use xlink:href="#DejaVuSans-Bold-58"/>
     <use xlink:href="#DejaVuSans-Bold-47" x="77.099609"/>
     <use xlink:href="#DejaVuSans-Bold-42" x="159.179688"/>
     <use xlink:href="#DejaVuSans-Bold-6f" x="235.400391"/>
     <use xlink:href="#DejaVuSans-Bold-6f" x="304.101562"/>
     <use xlink:href="#DejaVuSans-Bold-73" x="372.802734"/>
     <use xlink:href="#DejaVuSans-Bold-74" x="432.324219"/>
    </g>
   </g>
   <g id="text_16">
    <!-- fraud readout -->
    <g style="fill: #0b0b0b" transform="translate(514.995678 106.461591) scale(0.082 -0.082)">
     <use xlink:href="#DejaVuSans-66"/>
     <use xlink:href="#DejaVuSans-72" x="35.205078"/>
     <use xlink:href="#DejaVuSans-61" x="76.318359"/>
     <use xlink:href="#DejaVuSans-75" x="137.597656"/>
     <use xlink:href="#DejaVuSans-64" x="200.976562"/>
     <use xlink:href="#DejaVuSans-20" x="264.453125"/>
     <use xlink:href="#DejaVuSans-72" x="296.240234"/>
     <use xlink:href="#DejaVuSans-65" x="335.103516"/>
     <use xlink:href="#DejaVuSans-61" x="396.626953"/>
     <use xlink:href="#DejaVuSans-64" x="457.90625"/>
     <use xlink:href="#DejaVuSans-6f" x="521.382812"/>
     <use xlink:href="#DejaVuSans-75" x="582.564453"/>
     <use xlink:href="#DejaVuSans-74" x="645.943359"/>
    </g>
    <!-- raw-13 vs embedding -->
    <g style="fill: #0b0b0b" transform="translate(498.482928 115.643797) scale(0.082 -0.082)">
     <defs>
      <path id="DejaVuSans-31" d="M 794 531 
L 1825 531 
L 1825 4091 
L 703 3866 
L 703 4441 
L 1819 4666 
L 2450 4666 
L 2450 531 
L 3481 531 
L 3481 0 
L 794 0 
L 794 531 
z
" transform="scale(0.015625)"/>
      <path id="DejaVuSans-33" d="M 2597 2516 
Q 3050 2419 3304 2112 
Q 3559 1806 3559 1356 
Q 3559 666 3084 287 
Q 2609 -91 1734 -91 
Q 1441 -91 1130 -33 
Q 819 25 488 141 
L 488 750 
Q 750 597 1062 519 
Q 1375 441 1716 441 
Q 2309 441 2620 675 
Q 2931 909 2931 1356 
Q 2931 1769 2642 2001 
Q 2353 2234 1838 2234 
L 1294 2234 
L 1294 2753 
L 1863 2753 
Q 2328 2753 2575 2939 
Q 2822 3125 2822 3475 
Q 2822 3834 2567 4026 
Q 2313 4219 1838 4219 
Q 1578 4219 1281 4162 
Q 984 4106 628 3988 
L 628 4550 
Q 988 4650 1302 4700 
Q 1616 4750 1894 4750 
Q 2613 4750 3031 4423 
Q 3450 4097 3450 3541 
Q 3450 3153 3228 2886 
Q 3006 2619 2597 2516 
z
" transform="scale(0.015625)"/>
     </defs>
     <use xlink:href="#DejaVuSans-72"/>
     <use xlink:href="#DejaVuSans-61" x="41.113281"/>
     <use xlink:href="#DejaVuSans-77" x="102.392578"/>
     <use xlink:href="#DejaVuSans-2d" x="184.179688"/>
     <use xlink:href="#DejaVuSans-31" x="220.263672"/>
     <use xlink:href="#DejaVuSans-33" x="283.886719"/>
     <use xlink:href="#DejaVuSans-20" x="347.509766"/>
     <use xlink:href="#DejaVuSans-76" x="379.296875"/>
     <use xlink:href="#DejaVuSans-73" x="438.476562"/>
     <use xlink:href="#DejaVuSans-20" x="490.576172"/>
     <use xlink:href="#DejaVuSans-65" x="522.363281"/>
     <use xlink:href="#DejaVuSans-6d" x="583.886719"/>
     <use xlink:href="#DejaVuSans-62" x="681.298828"/>
     <use xlink:href="#DejaVuSans-65" x="744.775391"/>
     <use xlink:href="#DejaVuSans-64" x="806.298828"/>
     <use xlink:href="#DejaVuSans-64" x="869.775391"/>
     <use xlink:href="#DejaVuSans-69" x="933.251953"/>
     <use xlink:href="#DejaVuSans-6e" x="961.035156"/>
     <use xlink:href="#DejaVuSans-67" x="1024.414062"/>
    </g>
   </g>
   <g id="text_17">
    <g id="patch_19">
     <path d="M 466.293803 56.684089 
L 512.000366 56.684089 
Q 513.850366 56.684089 513.850366 54.834089 
L 513.850366 39.385896 
Q 513.850366 37.535896 512.000366 37.535896 
L 466.293803 37.535896 
Q 464.443803 37.535896 464.443803 39.385896 
L 464.443803 54.834089 
Q 464.443803 56.684089 466.293803 56.684089 
z
" style="fill: #e1e0d9; opacity: 0.7"/>
    </g>
    <!-- embeddings -->
    <g style="fill: #52514e" transform="translate(466.293803 45.008739) scale(0.074 -0.074)">
     <use xlink:href="#DejaVuSans-65"/>
     <use xlink:href="#DejaVuSans-6d" x="61.523438"/>
     <use xlink:href="#DejaVuSans-62" x="158.935547"/>
     <use xlink:href="#DejaVuSans-65" x="222.412109"/>
     <use xlink:href="#DejaVuSans-64" x="283.935547"/>
     <use xlink:href="#DejaVuSans-64" x="347.412109"/>
     <use xlink:href="#DejaVuSans-69" x="410.888672"/>
     <use xlink:href="#DejaVuSans-6e" x="438.671875"/>
     <use xlink:href="#DejaVuSans-67" x="502.050781"/>
     <use xlink:href="#DejaVuSans-73" x="565.527344"/>
    </g>
    <!-- parquet -->
    <g style="fill: #52514e" transform="translate(474.653491 53.295121) scale(0.074 -0.074)">
     <use xlink:href="#DejaVuSans-70"/>
     <use xlink:href="#DejaVuSans-61" x="63.476562"/>
     <use xlink:href="#DejaVuSans-72" x="124.755859"/>
     <use xlink:href="#DejaVuSans-71" x="164.119141"/>
     <use xlink:href="#DejaVuSans-75" x="227.595703"/>
     <use xlink:href="#DejaVuSans-65" x="290.974609"/>
     <use xlink:href="#DejaVuSans-74" x="352.498047"/>
    </g>
   </g>
   <g id="text_18">
    <!-- rank -->
    <g style="fill: #8a6d1f" transform="translate(638.879077 88.094382) scale(0.095 -0.095)">
     <defs>
      <path id="DejaVuSans-Bold-6b" d="M 538 4863 
L 1656 4863 
L 1656 2216 
L 2944 3500 
L 4244 3500 
L 2534 1894 
L 4378 0 
L 3022 0 
L 1656 1459 
L 1656 0 
L 538 0 
L 538 4863 
z
" transform="scale(0.015625)"/>
     </defs>
     <use xlink:href="#DejaVuSans-Bold-72"/>
     <use xlink:href="#DejaVuSans-Bold-61" x="49.316406"/>
     <use xlink:href="#DejaVuSans-Bold-6e" x="116.796875"/>
     <use xlink:href="#DejaVuSans-Bold-6b" x="187.988281"/>
    </g>
   </g>
   <g id="text_19">
    <!-- next-merchant reco -->
    <g style="fill: #0b0b0b" transform="translate(610.541725 106.461591) scale(0.082 -0.082)">
     <use xlink:href="#DejaVuSans-6e"/>
     <use xlink:href="#DejaVuSans-65" x="63.378906"/>
     <use xlink:href="#DejaVuSans-78" x="123.152344"/>
     <use xlink:href="#DejaVuSans-74" x="182.332031"/>
     <use xlink:href="#DejaVuSans-2d" x="221.541016"/>
     <use xlink:href="#DejaVuSans-6d" x="257.625"/>
     <use xlink:href="#DejaVuSans-65" x="355.037109"/>
     <use xlink:href="#DejaVuSans-72" x="416.560547"/>
     <use xlink:href="#DejaVuSans-63" x="455.423828"/>
     <use xlink:href="#DejaVuSans-68" x="510.404297"/>
     <use xlink:href="#DejaVuSans-61" x="573.783203"/>
     <use xlink:href="#DejaVuSans-6e" x="635.0625"/>
     <use xlink:href="#DejaVuSans-74" x="698.441406"/>
     <use xlink:href="#DejaVuSans-20" x="737.650391"/>
     <use xlink:href="#DejaVuSans-72" x="769.4375"/>
     <use xlink:href="#DejaVuSans-65" x="808.300781"/>
     <use xlink:href="#DejaVuSans-63" x="869.824219"/>
     <use xlink:href="#DejaVuSans-6f" x="924.804688"/>
    </g>
    <!-- (HR@K / NDCG@K) -->
    <g style="fill: #0b0b0b" transform="translate(612.006834 115.643797) scale(0.082 -0.082)">
     <defs>
      <path id="DejaVuSans-48" d="M 628 4666 
L 1259 4666 
L 1259 2753 
L 3553 2753 
L 3553 4666 
L 4184 4666 
L 4184 0 
L 3553 0 
L 3553 2222 
L 1259 2222 
L 1259 0 
L 628 0 
L 628 4666 
z
" transform="scale(0.015625)"/>
      <path id="DejaVuSans-52" d="M 2841 2188 
Q 3044 2119 3236 1894 
Q 3428 1669 3622 1275 
L 4263 0 
L 3584 0 
L 2988 1197 
Q 2756 1666 2539 1819 
Q 2322 1972 1947 1972 
L 1259 1972 
L 1259 0 
L 628 0 
L 628 4666 
L 2053 4666 
Q 2853 4666 3247 4331 
Q 3641 3997 3641 3322 
Q 3641 2881 3436 2590 
Q 3231 2300 2841 2188 
z
M 1259 4147 
L 1259 2491 
L 2053 2491 
Q 2509 2491 2742 2702 
Q 2975 2913 2975 3322 
Q 2975 3731 2742 3939 
Q 2509 4147 2053 4147 
L 1259 4147 
z
" transform="scale(0.015625)"/>
      <path id="DejaVuSans-40" d="M 2381 1678 
Q 2381 1231 2603 976 
Q 2825 722 3213 722 
Q 3597 722 3817 978 
Q 4038 1234 4038 1678 
Q 4038 2116 3813 2373 
Q 3588 2631 3206 2631 
Q 2828 2631 2604 2375 
Q 2381 2119 2381 1678 
z
M 4084 744 
Q 3897 503 3655 389 
Q 3413 275 3091 275 
Q 2553 275 2217 664 
Q 1881 1053 1881 1678 
Q 1881 2303 2218 2693 
Q 2556 3084 3091 3084 
Q 3413 3084 3656 2967 
Q 3900 2850 4084 2613 
L 4084 3022 
L 4531 3022 
L 4531 722 
Q 4988 791 5245 1139 
Q 5503 1488 5503 2041 
Q 5503 2375 5404 2669 
Q 5306 2963 5106 3213 
Q 4781 3622 4314 3839 
Q 3847 4056 3297 4056 
Q 2913 4056 2559 3954 
Q 2206 3853 1906 3653 
Q 1416 3334 1139 2817 
Q 863 2300 863 1697 
Q 863 1200 1042 765 
Q 1222 331 1563 0 
Q 1891 -325 2322 -495 
Q 2753 -666 3244 -666 
Q 3647 -666 4036 -530 
Q 4425 -394 4750 -141 
L 5031 -488 
Q 4641 -791 4180 -952 
Q 3719 -1113 3244 -1113 
Q 2666 -1113 2153 -908 
Q 1641 -703 1241 -313 
Q 841 78 631 592 
Q 422 1106 422 1697 
Q 422 2266 634 2781 
Q 847 3297 1241 3688 
Q 1644 4084 2172 4295 
Q 2700 4506 3291 4506 
Q 3953 4506 4520 4234 
Q 5088 3963 5472 3463 
Q 5706 3156 5829 2797 
Q 5953 2438 5953 2053 
Q 5953 1231 5456 756 
Q 4959 281 4084 263 
L 4084 744 
z
" transform="scale(0.015625)"/>
     </defs>
     <use xlink:href="#DejaVuSans-28"/>
     <use xlink:href="#DejaVuSans-48" x="39.013672"/>
     <use xlink:href="#DejaVuSans-52" x="114.208984"/>
     <use xlink:href="#DejaVuSans-40" x="183.691406"/>
     <use xlink:href="#DejaVuSans-4b" x="283.691406"/>
     <use xlink:href="#DejaVuSans-20" x="349.267578"/>
     <use xlink:href="#DejaVuSans-2f" x="381.054688"/>
     <use xlink:href="#DejaVuSans-20" x="414.746094"/>
     <use xlink:href="#DejaVuSans-4e" x="446.533203"/>
     <use xlink:href="#DejaVuSans-44" x="521.337891"/>
     <use xlink:href="#DejaVuSans-43" x="598.339844"/>
     <use xlink:href="#DejaVuSans-47" x="668.164062"/>
     <use xlink:href="#DejaVuSans-40" x="745.654297"/>
     <use xlink:href="#DejaVuSans-4b" x="845.654297"/>
     <use xlink:href="#DejaVuSans-29" x="911.230469"/>
    </g>
   </g>
   <g id="text_20">
    <g id="patch_20">
     <path d="M 578.406256 56.684089 
L 615.647912 56.684089 
Q 617.497912 56.684089 617.497912 54.834089 
L 617.497912 39.385896 
Q 617.497912 37.535896 615.647912 37.535896 
L 578.406256 37.535896 
Q 576.556256 37.535896 576.556256 39.385896 
L 576.556256 54.834089 
Q 576.556256 56.684089 578.406256 56.684089 
z
" style="fill: #e1e0d9; opacity: 0.7"/>
    </g>
    <!-- metrics + -->
    <g style="fill: #52514e" transform="translate(578.908647 45.008739) scale(0.074 -0.074)">
     <use xlink:href="#DejaVuSans-6d"/>
     <use xlink:href="#DejaVuSans-65" x="97.412109"/>
     <use xlink:href="#DejaVuSans-74" x="158.935547"/>
     <use xlink:href="#DejaVuSans-72" x="198.144531"/>
     <use xlink:href="#DejaVuSans-69" x="239.257812"/>
     <use xlink:href="#DejaVuSans-63" x="267.041016"/>
     <use xlink:href="#DejaVuSans-73" x="322.021484"/>
     <use xlink:href="#DejaVuSans-20" x="374.121094"/>
     <use xlink:href="#DejaVuSans-2b" x="405.908203"/>
    </g>
    <!-- test preds -->
    <g style="fill: #52514e" transform="translate(578.406256 53.295121) scale(0.074 -0.074)">
     <use xlink:href="#DejaVuSans-74"/>
     <use xlink:href="#DejaVuSans-65" x="39.208984"/>
     <use xlink:href="#DejaVuSans-73" x="100.732422"/>
     <use xlink:href="#DejaVuSans-74" x="152.832031"/>
     <use xlink:href="#DejaVuSans-20" x="192.041016"/>
     <use xlink:href="#DejaVuSans-70" x="223.828125"/>
     <use xlink:href="#DejaVuSans-72" x="287.304688"/>
     <use xlink:href="#DejaVuSans-65" x="326.167969"/>
     <use xlink:href="#DejaVuSans-64" x="387.691406"/>
     <use xlink:href="#DejaVuSans-73" x="451.167969"/>
    </g>
   </g>
   <g id="text_21">
    <!-- Ray Serve -->
    <g style="fill: #3d7a4e" transform="translate(732.07935 88.094382) scale(0.095 -0.095)">
     <defs>
      <path id="DejaVuSans-Bold-53" d="M 3834 4519 
L 3834 3531 
Q 3450 3703 3084 3790 
Q 2719 3878 2394 3878 
Q 1963 3878 1756 3759 
Q 1550 3641 1550 3391 
Q 1550 3203 1689 3098 
Q 1828 2994 2194 2919 
L 2706 2816 
Q 3484 2659 3812 2340 
Q 4141 2022 4141 1434 
Q 4141 663 3683 286 
Q 3225 -91 2284 -91 
Q 1841 -91 1394 -6 
Q 947 78 500 244 
L 500 1259 
Q 947 1022 1364 901 
Q 1781 781 2169 781 
Q 2563 781 2772 912 
Q 2981 1044 2981 1288 
Q 2981 1506 2839 1625 
Q 2697 1744 2272 1838 
L 1806 1941 
Q 1106 2091 782 2419 
Q 459 2747 459 3303 
Q 459 4000 909 4375 
Q 1359 4750 2203 4750 
Q 2588 4750 2994 4692 
Q 3400 4634 3834 4519 
z
" transform="scale(0.015625)"/>
      <path id="DejaVuSans-Bold-65" d="M 4031 1759 
L 4031 1441 
L 1416 1441 
Q 1456 1047 1700 850 
Q 1944 653 2381 653 
Q 2734 653 3104 758 
Q 3475 863 3866 1075 
L 3866 213 
Q 3469 63 3072 -14 
Q 2675 -91 2278 -91 
Q 1328 -91 801 392 
Q 275 875 275 1747 
Q 275 2603 792 3093 
Q 1309 3584 2216 3584 
Q 3041 3584 3536 3087 
Q 4031 2591 4031 1759 
z
M 2881 2131 
Q 2881 2450 2695 2645 
Q 2509 2841 2209 2841 
Q 1884 2841 1681 2658 
Q 1478 2475 1428 2131 
L 2881 2131 
z
" transform="scale(0.015625)"/>
      <path id="DejaVuSans-Bold-76" d="M 97 3500 
L 1216 3500 
L 2088 1081 
L 2956 3500 
L 4078 3500 
L 2700 0 
L 1472 0 
L 97 3500 
z
" transform="scale(0.015625)"/>
     </defs>
     <use xlink:href="#DejaVuSans-Bold-52"/>
     <use xlink:href="#DejaVuSans-Bold-61" x="77.001953"/>
     <use xlink:href="#DejaVuSans-Bold-79" x="141.357422"/>
     <use xlink:href="#DejaVuSans-Bold-20" x="206.542969"/>
     <use xlink:href="#DejaVuSans-Bold-53" x="241.357422"/>
     <use xlink:href="#DejaVuSans-Bold-65" x="313.378906"/>
     <use xlink:href="#DejaVuSans-Bold-72" x="381.201172"/>
     <use xlink:href="#DejaVuSans-Bold-76" x="430.517578"/>
     <use xlink:href="#DejaVuSans-Bold-65" x="495.703125"/>
    </g>
   </g>
   <g id="text_22">
    <!-- online embed + score -->
    <g style="fill: #0b0b0b" transform="translate(713.736194 106.461591) scale(0.082 -0.082)">
     <use xlink:href="#DejaVuSans-6f"/>
     <use xlink:href="#DejaVuSans-6e" x="61.181641"/>
     <use xlink:href="#DejaVuSans-6c" x="124.560547"/>
     <use xlink:href="#DejaVuSans-69" x="152.34375"/>
     <use xlink:href="#DejaVuSans-6e" x="180.126953"/>
     <use xlink:href="#DejaVuSans-65" x="243.505859"/>
     <use xlink:href="#DejaVuSans-20" x="305.029297"/>
     <use xlink:href="#DejaVuSans-65" x="336.816406"/>
     <use xlink:href="#DejaVuSans-6d" x="398.339844"/>
     <use xlink:href="#DejaVuSans-62" x="495.751953"/>
     <use xlink:href="#DejaVuSans-65" x="559.228516"/>
     <use xlink:href="#DejaVuSans-64" x="620.751953"/>
     <use xlink:href="#DejaVuSans-20" x="684.228516"/>
     <use xlink:href="#DejaVuSans-2b" x="716.015625"/>
     <use xlink:href="#DejaVuSans-20" x="799.804688"/>
     <use xlink:href="#DejaVuSans-73" x="831.591797"/>
     <use xlink:href="#DejaVuSans-63" x="883.691406"/>
     <use xlink:href="#DejaVuSans-6f" x="938.671875"/>
     <use xlink:href="#DejaVuSans-72" x="999.853516"/>
     <use xlink:href="#DejaVuSans-65" x="1038.716797"/>
    </g>
    <!-- (cached) -->
    <g style="fill: #0b0b0b" transform="translate(740.902537 115.643797) scale(0.082 -0.082)">
     <use xlink:href="#DejaVuSans-28"/>
     <use xlink:href="#DejaVuSans-63" x="39.013672"/>
     <use xlink:href="#DejaVuSans-61" x="93.994141"/>
     <use xlink:href="#DejaVuSans-63" x="155.273438"/>
     <use xlink:href="#DejaVuSans-68" x="210.253906"/>
     <use xlink:href="#DejaVuSans-65" x="273.632812"/>
     <use xlink:href="#DejaVuSans-64" x="335.15625"/>
     <use xlink:href="#DejaVuSans-29" x="398.632812"/>
    </g>
   </g>
  </g>
 </g>
 <defs>
  <clipPath id="p8b89624a88">
   <rect x="30.657084" y="11.970997" width="809.1" height="188.496"/>
  </clipPath>
 </defs>
</svg>
